<?xml version="1.0" encoding="UTF-8" standalone="no"?>
<!-- Created with Inkscape (http://www.inkscape.org/) -->

<svg
   xmlns:dc="http://purl.org/dc/elements/1.1/"
   xmlns:cc="http://creativecommons.org/ns#"
   xmlns:rdf="http://www.w3.org/1999/02/22-rdf-syntax-ns#"
   xmlns:svg="http://www.w3.org/2000/svg"
   xmlns="http://www.w3.org/2000/svg"
   xmlns:sodipodi="http://sodipodi.sourceforge.net/DTD/sodipodi-0.dtd"
   xmlns:inkscape="http://www.inkscape.org/namespaces/inkscape"
   width="32"
   height="32"
   viewBox="0 0 31.999999 31.999998"
   id="svg4413"
   version="1.1"
   inkscape:version="0.91 r13725"
   sodipodi:docname="chat.svg">
  <defs
     id="defs4415" />
  <sodipodi:namedview
     id="base"
     pagecolor="#e8e8e0"
     bordercolor="#666666"
     borderopacity="1.0"
     inkscape:pageopacity="0"
     inkscape:pageshadow="2"
     inkscape:zoom="11.96875"
     inkscape:cx="1.2853137"
     inkscape:cy="17.671018"
     inkscape:document-units="px"
     inkscape:current-layer="g3389"
     showgrid="true"
     units="px">
    <inkscape:grid
       type="xygrid"
       id="grid4421"
       spacingx="2.0000001"
       spacingy="2.0000001" />
  </sodipodi:namedview>
  <metadata
     id="metadata4418">
    <rdf:RDF>
      <cc:Work
         rdf:about="">
        <dc:format>image/svg+xml</dc:format>
        <dc:type
           rdf:resource="http://purl.org/dc/dcmitype/StillImage" />
        <dc:title />
      </cc:Work>
    </rdf:RDF>
  </metadata>
  <g
     inkscape:label="Layer 1"
     inkscape:groupmode="layer"
     id="layer1"
     transform="translate(0,-1020.3622)">
    <g
       id="g3389"
       style="opacity:0.8">
      <path
         id="path4331"
         d="m 16.5,1020.8623 a 14.999351,14.999765 0 0 0 -1.0625,0.039 14.999351,14.999765 0 0 0 -1.486328,0.1797 14.999351,14.999765 0 0 0 -1.464844,0.33 14.999351,14.999765 0 0 0 -1.421875,0.4727 14.999351,14.999765 0 0 0 -1.3691406,0.6113 14.999351,14.999765 0 0 0 -1.296875,0.7442 14.999351,14.999765 0 0 0 -1.2226563,0.875 14.999351,14.999765 0 0 0 -1.125,0.9882 14.999351,14.999765 0 0 0 -1.0214843,1.0957 14.999351,14.999765 0 0 0 -0.9082031,1.1934 14.999351,14.999765 0 0 0 -0.7832032,1.2812 14.999351,14.999765 0 0 0 -0.6523437,1.3477 14.999351,14.999765 0 0 0 -0.515625,1.4102 14.999351,14.999765 0 0 0 -0.3730469,1.4511 14.999351,14.999765 0 0 0 -0.2207031,1.4825 14.999351,14.999765 0 0 0 -0.076172,1.498 l 0,15 15.0000002,0 a 14.999351,14.999765 0 0 0 1.0625,-0.037 14.999351,14.999765 0 0 0 1.486328,-0.1797 14.999351,14.999765 0 0 0 1.464844,-0.3301 14.999351,14.999765 0 0 0 1.421875,-0.4726 14.999351,14.999765 0 0 0 1.369141,-0.6114 14.999351,14.999765 0 0 0 1.296874,-0.7461 14.999351,14.999765 0 0 0 1.222657,-0.875 14.999351,14.999765 0 0 0 1.125,-0.9863 14.999351,14.999765 0 0 0 1.021484,-1.0976 14.999351,14.999765 0 0 0 0.908203,-1.1914 14.999351,14.999765 0 0 0 0.783203,-1.2813 14.999351,14.999765 0 0 0 0.652344,-1.3476 14.999351,14.999765 0 0 0 0.515625,-1.4102 14.999351,14.999765 0 0 0 0.373047,-1.4531 14.999351,14.999765 0 0 0 0.220703,-1.4805 14.999351,14.999765 0 0 0 0.07617,-1.5 14.999351,14.999765 0 0 0 -0.03906,-1.0625 14.999351,14.999765 0 0 0 -0.179688,-1.4863 14.999351,14.999765 0 0 0 -0.330078,-1.4649 14.999351,14.999765 0 0 0 -0.472656,-1.4218 14.999351,14.999765 0 0 0 -0.611328,-1.3692 14.999351,14.999765 0 0 0 -0.744141,-1.2969 14.999351,14.999765 0 0 0 -0.875,-1.2226 14.999351,14.999765 0 0 0 -0.988281,-1.125 14.999351,14.999765 0 0 0 -1.095704,-1.0215 14.999351,14.999765 0 0 0 -1.193359,-0.9082 14.999351,14.999765 0 0 0 -1.28125,-0.7832 14.999351,14.999765 0 0 0 -1.347656,-0.6524 14.999351,14.999765 0 0 0 -1.410156,-0.5156 14.999351,14.999765 0 0 0 -1.451172,-0.3711 14.999351,14.999765 0 0 0 -1.482422,-0.2226 14.999351,14.999765 0 0 0 -1.498047,-0.074 l 0,0 z"
         style="opacity:1;fill:#000000;fill-opacity:1;fill-rule:nonzero;stroke:#ffffff;stroke-width:0.99999994;stroke-linecap:round;stroke-linejoin:miter;stroke-miterlimit:4;stroke-dasharray:none;stroke-dashoffset:0;stroke-opacity:0.76862745"
         inkscape:connector-curvature="0" />
      <rect
         ry="1"
         rx="1"
         y="1044.3622"
         x="9.9999847"
         height="2"
         width="11.999999"
         id="rect4341"
         style="opacity:1;fill:#ffffff;fill-opacity:1;fill-rule:nonzero;stroke:none;stroke-width:2;stroke-linecap:round;stroke-linejoin:miter;stroke-miterlimit:4;stroke-dasharray:none;stroke-dashoffset:0;stroke-opacity:1" />
      <rect
         ry="1"
         rx="1"
         y="1028.3622"
         x="9.999999"
         height="2"
         width="11.999999"
         id="rect4371"
         style="opacity:1;fill:#ffffff;fill-opacity:1;fill-rule:nonzero;stroke:none;stroke-width:2;stroke-linecap:round;stroke-linejoin:miter;stroke-miterlimit:4;stroke-dasharray:none;stroke-dashoffset:0;stroke-opacity:1" />
      <rect
         style="opacity:1;fill:#ffffff;fill-opacity:1;fill-rule:nonzero;stroke:none;stroke-width:2;stroke-linecap:round;stroke-linejoin:miter;stroke-miterlimit:4;stroke-dasharray:none;stroke-dashoffset:0;stroke-opacity:1"
         id="rect3362"
         width="11.999999"
         height="2"
         x="5.9999847"
         y="1040.3622"
         rx="1"
         ry="1" />
      <rect
         ry="1"
         rx="1"
         y="1036.3622"
         x="11.999985"
         height="2"
         width="11.999999"
         id="rect3364"
         style="opacity:1;fill:#ffffff;fill-opacity:1;fill-rule:nonzero;stroke:none;stroke-width:2;stroke-linecap:round;stroke-linejoin:miter;stroke-miterlimit:4;stroke-dasharray:none;stroke-dashoffset:0;stroke-opacity:1" />
      <rect
         style="opacity:1;fill:#ffffff;fill-opacity:1;fill-rule:nonzero;stroke:none;stroke-width:2;stroke-linecap:round;stroke-linejoin:miter;stroke-miterlimit:4;stroke-dasharray:none;stroke-dashoffset:0;stroke-opacity:1"
         id="rect3366"
         width="11.999999"
         height="2"
         x="7.9999847"
         y="1032.3622"
         rx="1"
         ry="1" />
      <rect
         style="opacity:1;fill:#ffffff;fill-opacity:1;fill-rule:nonzero;stroke:none;stroke-width:2;stroke-linecap:round;stroke-linejoin:miter;stroke-miterlimit:4;stroke-dasharray:none;stroke-dashoffset:0;stroke-opacity:1"
         id="rect3368"
         width="7.9999995"
         height="2"
         x="11.999999"
         y="1024.3622"
         rx="1"
         ry="1" />
    </g>
  </g>
</svg>
