<?xml version="1.0" encoding="UTF-8" standalone="no"?>
<!-- Created with Inkscape (http://www.inkscape.org/) -->

<svg
   xmlns:dc="http://purl.org/dc/elements/1.1/"
   xmlns:cc="http://creativecommons.org/ns#"
   xmlns:rdf="http://www.w3.org/1999/02/22-rdf-syntax-ns#"
   xmlns:svg="http://www.w3.org/2000/svg"
   xmlns="http://www.w3.org/2000/svg"
   xmlns:sodipodi="http://sodipodi.sourceforge.net/DTD/sodipodi-0.dtd"
   xmlns:inkscape="http://www.inkscape.org/namespaces/inkscape"
   width="32"
   height="32"
   viewBox="0 0 31.999999 31.999998"
   id="svg4413"
   version="1.1"
   inkscape:version="0.91 r13725"
   sodipodi:docname="copy.svg">
  <defs
     id="defs4415" />
  <sodipodi:namedview
     id="base"
     pagecolor="#e8e8e0"
     bordercolor="#666666"
     borderopacity="1.0"
     inkscape:pageopacity="0"
     inkscape:pageshadow="2"
     inkscape:zoom="8.4631843"
     inkscape:cx="10.318538"
     inkscape:cy="16"
     inkscape:document-units="px"
     inkscape:current-layer="g4406"
     showgrid="true"
     units="px">
    <inkscape:grid
       type="xygrid"
       id="grid4421"
       spacingx="2.0000001"
       spacingy="2.0000001" />
  </sodipodi:namedview>
  <metadata
     id="metadata4418">
    <rdf:RDF>
      <cc:Work
         rdf:about="">
        <dc:format>image/svg+xml</dc:format>
        <dc:type
           rdf:resource="http://purl.org/dc/dcmitype/StillImage" />
        <dc:title />
      </cc:Work>
    </rdf:RDF>
  </metadata>
  <g
     inkscape:label="Layer 1"
     inkscape:groupmode="layer"
     id="layer1"
     transform="translate(0,-1020.3622)">
    <g
       transform="translate(147.45597,-98.304001)"
       id="g4406">
      <path
         style="opacity:0.8;fill:#000000;fill-opacity:1;fill-rule:nonzero;stroke:#ffffff;stroke-width:0.99999994;stroke-linecap:round;stroke-linejoin:miter;stroke-miterlimit:4;stroke-dasharray:none;stroke-dashoffset:0;stroke-opacity:0.76862746"
         d="m -135.45599,1127.1669 a 11.499918,11.49993 0 0 0 -0.81502,0.029 11.499918,11.49993 0 0 0 -1.13907,0.138 11.499918,11.49993 0 0 0 -1.12304,0.2537 11.499918,11.49993 0 0 0 -1.09095,0.3625 11.499918,11.49993 0 0 0 -1.04924,0.4685 11.499918,11.49993 0 0 0 -0.99469,0.5709 11.499918,11.49993 0 0 0 -0.93694,0.6707 11.499918,11.49993 0 0 0 -0.86313,0.7573 11.499918,11.49993 0 0 0 -0.78293,0.8407 11.499918,11.49993 0 0 0 -0.69629,0.9144 11.499918,11.49993 0 0 0 -0.60001,0.9821 11.499918,11.49993 0 0 0 -0.50055,1.0333 11.499918,11.49993 0 0 0 -0.39467,1.0812 11.499918,11.49993 0 0 0 -0.28558,1.1131 11.499918,11.49993 0 0 0 -0.17007,1.1363 11.499918,11.49993 0 0 0 -0.0578,1.1484 11.499918,11.49993 0 0 0 0.029,0.8151 11.499918,11.49993 0 0 0 0.13799,1.1392 11.499918,11.49993 0 0 0 0.25349,1.1228 11.499918,11.49993 0 0 0 0.36257,1.091 11.499918,11.49993 0 0 0 0.46847,1.0492 11.499918,11.49993 0 0 0 0.57115,0.9945 11.499918,11.49993 0 0 0 0.67062,0.9372 11.499918,11.49993 0 0 0 0.75724,0.8628 11.499918,11.49993 0 0 0 0.84068,0.7832 11.499918,11.49993 0 0 0 0.91447,0.6963 11.499918,11.49993 0 0 0 0.98186,0.5998 11.499918,11.49993 0 0 0 1.0332,0.5007 11.499918,11.49993 0 0 0 1.08132,0.3949 11.499918,11.49993 0 0 0 1.1134,0.2856 11.499918,11.49993 0 0 0 1.13589,0.1699 11.499918,11.49993 0 0 0 1.14871,0.057 11.499918,11.49993 0 0 0 0.81499,-0.029 11.499918,11.49993 0 0 0 1.1391,-0.138 11.499918,11.49993 0 0 0 1.12304,-0.2534 11.499918,11.49993 0 0 0 1.09095,-0.3625 11.499918,11.49993 0 0 0 1.04923,-0.4688 11.499918,11.49993 0 0 0 0.9947,-0.5708 11.499918,11.49993 0 0 0 0.93693,-0.6707 11.499918,11.49993 0 0 0 0.86312,-0.7574 11.499918,11.49993 0 0 0 0.78293,-0.8406 11.499918,11.49993 0 0 0 0.69628,-0.9144 11.499918,11.49993 0 0 0 0.60004,-0.9818 11.499918,11.49993 0 0 0 0.50054,-1.0332 11.499918,11.49993 0 0 0 0.39467,-1.0814 11.499918,11.49993 0 0 0 0.28558,-1.1134 11.499918,11.49993 0 0 0 0.17006,-1.1359 11.499918,11.49993 0 0 0 0.0578,-1.1489 11.499918,11.49993 0 0 0 -0.029,-0.8147 11.499918,11.49993 0 0 0 -0.13802,-1.1392 11.499918,11.49993 0 0 0 -0.25348,-1.123 11.499918,11.49993 0 0 0 -0.36258,-1.091 11.499918,11.49993 0 0 0 -0.46848,-1.0494 11.499918,11.49993 0 0 0 -0.57115,-0.9946 11.499918,11.49993 0 0 0 -0.67061,-0.9371 11.499918,11.49993 0 0 0 -0.75725,-0.8629 11.499918,11.49993 0 0 0 -0.84068,-0.7829 11.499918,11.49993 0 0 0 -0.91447,-0.6962 11.499918,11.49993 0 0 0 -0.98184,-0.6002 11.499918,11.49993 0 0 0 -1.0332,-0.5004 11.499918,11.49993 0 0 0 -1.08133,-0.3948 11.499918,11.49993 0 0 0 -1.11342,-0.2855 11.499918,11.49993 0 0 0 -1.13586,-0.1701 11.499918,11.49993 0 0 0 -1.14871,-0.058 z"
         id="path4396"
         inkscape:connector-curvature="0" />
      <path
         inkscape:connector-curvature="0"
         id="path4398"
         d="m -127.45602,1119.1673 a 11.499918,11.49993 0 0 0 -0.81502,0.029 11.499918,11.49993 0 0 0 -1.13906,0.138 11.499918,11.49993 0 0 0 -1.12306,0.2537 11.499918,11.49993 0 0 0 -1.09094,0.3625 11.499918,11.49993 0 0 0 -1.04923,0.4685 11.499918,11.49993 0 0 0 -0.9947,0.5709 11.499918,11.49993 0 0 0 -0.93693,0.6707 11.499918,11.49993 0 0 0 -0.86314,0.7573 11.499918,11.49993 0 0 0 -0.78293,0.8407 11.499918,11.49993 0 0 0 -0.69628,0.9144 11.499918,11.49993 0 0 0 -0.60002,0.9821 11.499918,11.49993 0 0 0 -0.50056,1.0333 11.499918,11.49993 0 0 0 -0.39465,1.0812 11.499918,11.49993 0 0 0 -0.28558,1.1131 11.499918,11.49993 0 0 0 -0.17007,1.1363 11.499918,11.49993 0 0 0 -0.0578,1.1484 11.499918,11.49993 0 0 0 0.029,0.8151 11.499918,11.49993 0 0 0 0.13799,1.1392 11.499918,11.49993 0 0 0 0.25349,1.1228 11.499918,11.49993 0 0 0 0.36258,1.091 11.499918,11.49993 0 0 0 0.46847,1.0492 11.499918,11.49993 0 0 0 0.57115,0.9945 11.499918,11.49993 0 0 0 0.67061,0.9372 11.499918,11.49993 0 0 0 0.75724,0.8628 11.499918,11.49993 0 0 0 0.84068,0.7832 11.499918,11.49993 0 0 0 0.91448,0.6963 11.499918,11.49993 0 0 0 0.98186,0.5998 11.499918,11.49993 0 0 0 1.0332,0.5007 11.499918,11.49993 0 0 0 1.08132,0.3949 11.499918,11.49993 0 0 0 1.1134,0.2856 11.499918,11.49993 0 0 0 1.13588,0.1699 11.499918,11.49993 0 0 0 1.14871,0.057 11.499918,11.49993 0 0 0 0.81499,-0.029 11.499918,11.49993 0 0 0 1.1391,-0.138 11.499918,11.49993 0 0 0 1.12304,-0.2534 11.499918,11.49993 0 0 0 1.09095,-0.3625 11.499918,11.49993 0 0 0 1.04924,-0.4688 11.499918,11.49993 0 0 0 0.99469,-0.5708 11.499918,11.49993 0 0 0 0.93693,-0.6707 11.499918,11.49993 0 0 0 0.86314,-0.7574 11.499918,11.49993 0 0 0 0.78291,-0.8406 11.499918,11.49993 0 0 0 0.69629,-0.9144 11.499918,11.49993 0 0 0 0.60004,-0.9818 11.499918,11.49993 0 0 0 0.50054,-1.0332 11.499918,11.49993 0 0 0 0.39467,-1.0814 11.499918,11.49993 0 0 0 0.28558,-1.1134 11.499918,11.49993 0 0 0 0.17005,-1.1359 11.499918,11.49993 0 0 0 0.0578,-1.1489 11.499918,11.49993 0 0 0 -0.029,-0.8147 11.499918,11.49993 0 0 0 -0.13801,-1.1392 11.499918,11.49993 0 0 0 -0.25349,-1.123 11.499918,11.49993 0 0 0 -0.36258,-1.091 11.499918,11.49993 0 0 0 -0.46848,-1.0494 11.499918,11.49993 0 0 0 -0.57114,-0.9946 11.499918,11.49993 0 0 0 -0.67061,-0.9371 11.499918,11.49993 0 0 0 -0.75726,-0.8629 11.499918,11.49993 0 0 0 -0.84068,-0.7829 11.499918,11.49993 0 0 0 -0.91446,-0.6962 11.499918,11.49993 0 0 0 -0.98185,-0.6002 11.499918,11.49993 0 0 0 -1.0332,-0.5004 11.499918,11.49993 0 0 0 -1.08132,-0.3948 11.499918,11.49993 0 0 0 -1.11342,-0.2855 11.499918,11.49993 0 0 0 -1.13587,-0.1701 11.499918,11.49993 0 0 0 -1.14871,-0.058 z"
         style="opacity:0.8;fill:#000000;fill-opacity:1;fill-rule:nonzero;stroke:#ffffff;stroke-width:0.99999994;stroke-linecap:round;stroke-linejoin:miter;stroke-miterlimit:4;stroke-dasharray:none;stroke-dashoffset:0;stroke-opacity:0.76862746" />
    </g>
  </g>
</svg>
