<?xml version="1.0" encoding="UTF-8" standalone="no"?>
<!-- Created with Inkscape (http://www.inkscape.org/) -->

<svg
   xmlns:dc="http://purl.org/dc/elements/1.1/"
   xmlns:cc="http://creativecommons.org/ns#"
   xmlns:rdf="http://www.w3.org/1999/02/22-rdf-syntax-ns#"
   xmlns:svg="http://www.w3.org/2000/svg"
   xmlns="http://www.w3.org/2000/svg"
   xmlns:sodipodi="http://sodipodi.sourceforge.net/DTD/sodipodi-0.dtd"
   xmlns:inkscape="http://www.inkscape.org/namespaces/inkscape"
   width="32"
   height="32"
   viewBox="0 0 31.999999 31.999998"
   id="svg4413"
   version="1.1"
   inkscape:version="0.91 r13725"
   sodipodi:docname="down.svg">
  <defs
     id="defs4415" />
  <sodipodi:namedview
     id="base"
     pagecolor="#e8e8e0"
     bordercolor="#666666"
     borderopacity="1.0"
     inkscape:pageopacity="0"
     inkscape:pageshadow="2"
     inkscape:zoom="2.9921875"
     inkscape:cx="4.6370759"
     inkscape:cy="17.671018"
     inkscape:document-units="px"
     inkscape:current-layer="layer1"
     showgrid="true"
     units="px">
    <inkscape:grid
       type="xygrid"
       id="grid4421"
       spacingx="2.0000001"
       spacingy="2.0000001" />
  </sodipodi:namedview>
  <metadata
     id="metadata4418">
    <rdf:RDF>
      <cc:Work
         rdf:about="">
        <dc:format>image/svg+xml</dc:format>
        <dc:type
           rdf:resource="http://purl.org/dc/dcmitype/StillImage" />
        <dc:title></dc:title>
      </cc:Work>
    </rdf:RDF>
  </metadata>
  <g
     inkscape:label="Layer 1"
     inkscape:groupmode="layer"
     id="layer1"
     transform="translate(0,-1020.3622)">
    <path
       sodipodi:nodetypes="sccsssssccss"
       inkscape:connector-curvature="0"
       id="path4193"
       d="m 31.336988,1029.7075 c 0.1817,-0.6364 0.1714,-1.1242 -0.076,-1.4096 -2.7054,-0.8004 -8.0175,-2.4802 -8.6206,-0.4529 -0.4793,0.8144 -1.2248,1.8002 -2.0568,2.7535 -0.8316,0.9533 -1.751,1.8747 -2.5774,2.5566 -0.8265,0.6819 -1.5598,1.1242 -2.0225,1.1242 -0.4625,0 -1.1961,-0.4423 -2.0223,-1.1242 -0.8264,-0.6819 -1.7457,-1.6033 -2.5777,-2.5566 -0.832,-0.9533 -1.5773004,-1.9391 -2.0566004,-2.7535 -0.025,-2.0012 -7.671,-0.4678 -8.62059996,0.4529 -1.98620004,2.2834 11.30500036,17.5635 15.27720036,17.5635 3.4759,0 14.0862,-11.6995 15.3541,-16.1539 z"
       style="opacity:0.8;fill:#000000;fill-opacity:1;fill-rule:nonzero;stroke:#ffffff;stroke-width:0.99999994;stroke-linecap:round;stroke-linejoin:miter;stroke-miterlimit:4;stroke-dasharray:none;stroke-dashoffset:0;stroke-opacity:0.76862745" />
  </g>
</svg>
