<?xml version="1.0" encoding="UTF-8" standalone="no"?>
<!-- Created with Inkscape (http://www.inkscape.org/) -->

<svg
   xmlns:dc="http://purl.org/dc/elements/1.1/"
   xmlns:cc="http://creativecommons.org/ns#"
   xmlns:rdf="http://www.w3.org/1999/02/22-rdf-syntax-ns#"
   xmlns:svg="http://www.w3.org/2000/svg"
   xmlns="http://www.w3.org/2000/svg"
   xmlns:sodipodi="http://sodipodi.sourceforge.net/DTD/sodipodi-0.dtd"
   xmlns:inkscape="http://www.inkscape.org/namespaces/inkscape"
   width="32"
   height="32"
   viewBox="0 0 31.999999 31.999998"
   id="svg4413"
   version="1.1"
   inkscape:version="0.91 r13725"
   sodipodi:docname="eject.svg">
  <defs
     id="defs4415" />
  <sodipodi:namedview
     id="base"
     pagecolor="#e8e8e0"
     bordercolor="#666666"
     borderopacity="1.0"
     inkscape:pageopacity="0"
     inkscape:pageshadow="2"
     inkscape:zoom="5.984375"
     inkscape:cx="18.686087"
     inkscape:cy="16"
     inkscape:document-units="px"
     inkscape:current-layer="layer1"
     showgrid="true"
     units="px">
    <inkscape:grid
       type="xygrid"
       id="grid4421"
       spacingx="2.0000001"
       spacingy="2.0000001" />
  </sodipodi:namedview>
  <metadata
     id="metadata4418">
    <rdf:RDF>
      <cc:Work
         rdf:about="">
        <dc:format>image/svg+xml</dc:format>
        <dc:type
           rdf:resource="http://purl.org/dc/dcmitype/StillImage" />
        <dc:title />
      </cc:Work>
    </rdf:RDF>
  </metadata>
  <g
     inkscape:label="Layer 1"
     inkscape:groupmode="layer"
     id="layer1"
     transform="translate(0,-1020.3622)">
    <g
       id="g12334"
       style="opacity:0.8">
      <path
         inkscape:connector-curvature="0"
         id="path4448"
         d="m 30.311827,1036.5284 c -0.464917,0.4444 -2.369806,0.7773 -4.995148,0.9991 -2.625058,0.2223 -5.971498,0.3347 -9.316544,0.3347 -3.345044,0 -6.6920009,-0.1127 -9.3169846,-0.3345 -2.6249723,-0.2222 -4.5298591,-0.5549 -4.9949111,-0.9994 -0.4649654,-0.444 -0.035205,-1.5201 0.9288323,-2.8848 0.9638996,-1.3646 2.4627806,-3.0163 4.1350064,-4.6137 1.6726086,-1.5975 3.52065,-3.139 5.182092,-4.2817 1.661291,-1.1425 3.135913,-1.8859 4.065965,-1.8859 0.930056,0 2.404405,0.7434 4.066058,1.8859 1.661403,1.1427 3.509345,2.6842 5.181546,4.2817 1.672473,1.5974 3.171589,3.2491 4.135032,4.6137 0.963914,1.3647 1.394008,2.4408 0.929056,2.8849 z"
         style="opacity:1;fill:#000000;fill-opacity:1;fill-rule:nonzero;stroke:#ffffff;stroke-width:1;stroke-linecap:round;stroke-linejoin:miter;stroke-miterlimit:4;stroke-dasharray:none;stroke-dashoffset:0;stroke-opacity:0.76862745" />
      <rect
         ry="3"
         rx="3.0000002"
         y="1039.8622"
         x="1.4999999"
         height="8.999999"
         width="28.999998"
         id="rect5076"
         style="opacity:1;fill:#000000;fill-opacity:1;fill-rule:nonzero;stroke:#ffffff;stroke-width:0.99999994;stroke-linecap:round;stroke-linejoin:round;stroke-miterlimit:4;stroke-dasharray:none;stroke-dashoffset:0;stroke-opacity:0.76862745" />
    </g>
  </g>
</svg>
