<?xml version="1.0" encoding="UTF-8" standalone="no"?>
<!-- Created with Inkscape (http://www.inkscape.org/) -->

<svg
   xmlns:dc="http://purl.org/dc/elements/1.1/"
   xmlns:cc="http://creativecommons.org/ns#"
   xmlns:rdf="http://www.w3.org/1999/02/22-rdf-syntax-ns#"
   xmlns:svg="http://www.w3.org/2000/svg"
   xmlns="http://www.w3.org/2000/svg"
   xmlns:sodipodi="http://sodipodi.sourceforge.net/DTD/sodipodi-0.dtd"
   xmlns:inkscape="http://www.inkscape.org/namespaces/inkscape"
   width="32"
   height="32"
   viewBox="0 0 31.999999 31.999998"
   id="svg4413"
   version="1.1"
   inkscape:version="0.91 r13725"
   sodipodi:docname="excel-document.svg">
  <defs
     id="defs4415" />
  <sodipodi:namedview
     id="base"
     pagecolor="#e8e8e0"
     bordercolor="#666666"
     borderopacity="1.0"
     inkscape:pageopacity="0"
     inkscape:pageshadow="2"
     inkscape:zoom="7.9999999"
     inkscape:cx="15.522284"
     inkscape:cy="17.444229"
     inkscape:document-units="px"
     inkscape:current-layer="layer1"
     showgrid="true"
     units="px">
    <inkscape:grid
       type="xygrid"
       id="grid4421"
       spacingx="2.0000001"
       spacingy="2.0000001" />
  </sodipodi:namedview>
  <metadata
     id="metadata4418">
    <rdf:RDF>
      <cc:Work
         rdf:about="">
        <dc:format>image/svg+xml</dc:format>
        <dc:type
           rdf:resource="http://purl.org/dc/dcmitype/StillImage" />
        <dc:title />
      </cc:Work>
    </rdf:RDF>
  </metadata>
  <g
     inkscape:label="Layer 1"
     inkscape:groupmode="layer"
     id="layer1"
     transform="translate(0,-1020.3622)">
    <g
       id="g12945"
       style="opacity:0.8">
      <path
         style="opacity:1;fill:#11d116;fill-opacity:1;fill-rule:nonzero;stroke:#000000;stroke-width:0.99999994;stroke-linecap:round;stroke-linejoin:miter;stroke-miterlimit:4;stroke-dasharray:none;stroke-dashoffset:0;stroke-opacity:0.76862745"
         d="m 16.00005,1020.8623 a 15.499875,15.499894 0 0 0 -1.09851,0.039 15.499875,15.499894 0 0 0 -1.53525,0.186 15.499875,15.499894 0 0 0 -1.51368,0.3418 15.499875,15.499894 0 0 0 -1.47043,0.4887 15.499875,15.499894 0 0 0 -1.41416,0.6312 15.499875,15.499894 0 0 0 -1.34069,0.7698 15.499875,15.499894 0 0 0 -1.26282,0.9039 15.499875,15.499894 0 0 0 -1.16334,1.0206 15.499875,15.499894 0 0 0 -1.05525,1.1333 15.499875,15.499894 0 0 0 -0.93849,1.2325 15.499875,15.499894 0 0 0 -0.80871,1.3236 15.499875,15.499894 0 0 0 -0.67467,1.3924 15.499875,15.499894 0 0 0 -0.53192,1.4573 15.499875,15.499894 0 0 0 -0.38491,1.5005 15.499875,15.499894 0 0 0 -0.22923,1.5313 15.499875,15.499894 0 0 0 -0.078,1.548 15.499875,15.499894 0 0 0 0.039,1.0986 15.499875,15.499894 0 0 0 0.186,1.5354 15.499875,15.499894 0 0 0 0.34166,1.5135 15.499875,15.499894 0 0 0 0.48869,1.4705 15.499875,15.499894 0 0 0 0.63141,1.4141 15.499875,15.499894 0 0 0 0.7698,1.3407 15.499875,15.499894 0 0 0 0.90389,1.2629 15.499875,15.499894 0 0 0 1.02062,1.1632 15.499875,15.499894 0 0 0 1.13309,1.0553 15.499875,15.499894 0 0 0 1.23255,0.9386 15.499875,15.499894 0 0 0 1.32338,0.8084 15.499875,15.499894 0 0 0 1.39257,0.6748 15.499875,15.499894 0 0 0 1.45744,0.5321 15.499875,15.499894 0 0 0 1.50066,0.3848 15.499875,15.499894 0 0 0 1.53098,0.2293 15.499875,15.499894 0 0 0 1.54824,0.078 15.499875,15.499894 0 0 0 1.09848,-0.038 15.499875,15.499894 0 0 0 1.5353,-0.186 15.499875,15.499894 0 0 0 1.51366,-0.3413 15.499875,15.499894 0 0 0 1.47041,-0.4889 15.499875,15.499894 0 0 0 1.41419,-0.6317 15.499875,15.499894 0 0 0 1.34067,-0.7695 15.499875,15.499894 0 0 0 1.26283,-0.904 15.499875,15.499894 0 0 0 1.16335,-1.0208 15.499875,15.499894 0 0 0 1.05523,-1.1331 15.499875,15.499894 0 0 0 0.93847,-1.2322 15.499875,15.499894 0 0 0 0.80876,-1.3235 15.499875,15.499894 0 0 0 0.67463,-1.3927 15.499875,15.499894 0 0 0 0.53195,-1.4574 15.499875,15.499894 0 0 0 0.38491,-1.5006 15.499875,15.499894 0 0 0 0.2292,-1.531 15.499875,15.499894 0 0 0 0.078,-1.5485 15.499875,15.499894 0 0 0 -0.039,-1.0983 15.499875,15.499894 0 0 0 -0.186,-1.5351 15.499875,15.499894 0 0 0 -0.34166,-1.5137 15.499875,15.499894 0 0 0 -0.48869,-1.4706 15.499875,15.499894 0 0 0 -0.63143,-1.4143 15.499875,15.499894 0 0 0 -0.76981,-1.3405 15.499875,15.499894 0 0 0 -0.90385,-1.2628 15.499875,15.499894 0 0 0 -1.02066,-1.1634 15.499875,15.499894 0 0 0 -1.13308,-1.0553 15.499875,15.499894 0 0 0 -1.23255,-0.9382 15.499875,15.499894 0 0 0 -1.32336,-0.8089 15.499875,15.499894 0 0 0 -1.39257,-0.6746 15.499875,15.499894 0 0 0 -1.45743,-0.5321 15.499875,15.499894 0 0 0 -1.5007,-0.3849 15.499875,15.499894 0 0 0 -1.53094,-0.229 A 15.499875,15.499894 0 0 0 16,1020.8636 Z"
         id="path4331"
         inkscape:connector-curvature="0" />
      <rect
         style="opacity:1;fill:#ffffff;fill-opacity:1;fill-rule:nonzero;stroke:none;stroke-width:2;stroke-linecap:round;stroke-linejoin:miter;stroke-miterlimit:4;stroke-dasharray:none;stroke-dashoffset:0;stroke-opacity:1"
         id="rect4339"
         width="3.9999998"
         height="9.999999"
         x="13.999985"
         y="1034.3622"
         rx="1"
         ry="0.99999988" />
      <rect
         ry="1"
         rx="1"
         y="1038.3622"
         x="19.999985"
         height="5.9999995"
         width="3.9999998"
         id="rect4341"
         style="opacity:1;fill:#ffffff;fill-opacity:1;fill-rule:nonzero;stroke:none;stroke-width:2;stroke-linecap:round;stroke-linejoin:miter;stroke-miterlimit:4;stroke-dasharray:none;stroke-dashoffset:0;stroke-opacity:1" />
      <rect
         style="opacity:1;fill:#ffffff;fill-opacity:1;fill-rule:nonzero;stroke:none;stroke-width:2;stroke-linecap:round;stroke-linejoin:miter;stroke-miterlimit:4;stroke-dasharray:none;stroke-dashoffset:0;stroke-opacity:1"
         id="rect4246"
         width="3.9999998"
         height="2"
         x="7.9999852"
         y="1026.3622"
         rx="1"
         ry="1" />
      <rect
         ry="1"
         rx="1"
         y="1026.3622"
         x="13.999985"
         height="2"
         width="3.9999998"
         id="rect4276"
         style="opacity:1;fill:#ffffff;fill-opacity:1;fill-rule:nonzero;stroke:none;stroke-width:2;stroke-linecap:round;stroke-linejoin:miter;stroke-miterlimit:4;stroke-dasharray:none;stroke-dashoffset:0;stroke-opacity:1" />
      <rect
         style="opacity:1;fill:#ffffff;fill-opacity:1;fill-rule:nonzero;stroke:none;stroke-width:2;stroke-linecap:round;stroke-linejoin:miter;stroke-miterlimit:4;stroke-dasharray:none;stroke-dashoffset:0;stroke-opacity:1"
         id="rect4278"
         width="3.9999998"
         height="2"
         x="19.999985"
         y="1026.3622"
         rx="1"
         ry="1" />
      <rect
         ry="1"
         rx="1"
         y="1030.3622"
         x="7.9999852"
         height="2"
         width="3.9999998"
         id="rect4280"
         style="opacity:1;fill:#ffffff;fill-opacity:1;fill-rule:nonzero;stroke:none;stroke-width:2;stroke-linecap:round;stroke-linejoin:miter;stroke-miterlimit:4;stroke-dasharray:none;stroke-dashoffset:0;stroke-opacity:1" />
      <rect
         style="opacity:1;fill:#ffffff;fill-opacity:1;fill-rule:nonzero;stroke:none;stroke-width:2;stroke-linecap:round;stroke-linejoin:miter;stroke-miterlimit:4;stroke-dasharray:none;stroke-dashoffset:0;stroke-opacity:1"
         id="rect4282"
         width="3.9999998"
         height="2"
         x="13.999985"
         y="1030.3622"
         rx="1"
         ry="1" />
      <rect
         ry="1"
         rx="1"
         y="1030.3622"
         x="19.999985"
         height="2"
         width="3.9999998"
         id="rect4284"
         style="opacity:1;fill:#ffffff;fill-opacity:1;fill-rule:nonzero;stroke:none;stroke-width:2;stroke-linecap:round;stroke-linejoin:miter;stroke-miterlimit:4;stroke-dasharray:none;stroke-dashoffset:0;stroke-opacity:1" />
      <rect
         style="opacity:1;fill:#ffffff;fill-opacity:1;fill-rule:nonzero;stroke:none;stroke-width:2;stroke-linecap:round;stroke-linejoin:miter;stroke-miterlimit:4;stroke-dasharray:none;stroke-dashoffset:0;stroke-opacity:1"
         id="rect4286"
         width="3.9999998"
         height="2"
         x="7.9999852"
         y="1034.3622"
         rx="1"
         ry="1" />
      <rect
         ry="1"
         rx="1"
         y="1038.3622"
         x="7.9999852"
         height="2"
         width="3.9999998"
         id="rect4288"
         style="opacity:1;fill:#ffffff;fill-opacity:1;fill-rule:nonzero;stroke:none;stroke-width:2;stroke-linecap:round;stroke-linejoin:miter;stroke-miterlimit:4;stroke-dasharray:none;stroke-dashoffset:0;stroke-opacity:1" />
      <rect
         style="opacity:1;fill:#ffffff;fill-opacity:1;fill-rule:nonzero;stroke:none;stroke-width:2;stroke-linecap:round;stroke-linejoin:miter;stroke-miterlimit:4;stroke-dasharray:none;stroke-dashoffset:0;stroke-opacity:1"
         id="rect4292"
         width="3.9999998"
         height="2"
         x="7.9999852"
         y="1042.3622"
         rx="1"
         ry="1" />
    </g>
  </g>
</svg>
