<?xml version="1.0" encoding="UTF-8" standalone="no"?>
<!-- Created with Inkscape (http://www.inkscape.org/) -->

<svg
   xmlns:dc="http://purl.org/dc/elements/1.1/"
   xmlns:cc="http://creativecommons.org/ns#"
   xmlns:rdf="http://www.w3.org/1999/02/22-rdf-syntax-ns#"
   xmlns:svg="http://www.w3.org/2000/svg"
   xmlns="http://www.w3.org/2000/svg"
   xmlns:sodipodi="http://sodipodi.sourceforge.net/DTD/sodipodi-0.dtd"
   xmlns:inkscape="http://www.inkscape.org/namespaces/inkscape"
   width="32"
   height="32"
   viewBox="0 0 31.999999 31.999998"
   id="svg4413"
   version="1.1"
   inkscape:version="0.91 r13725"
   sodipodi:docname="film.svg">
  <defs
     id="defs4415" />
  <sodipodi:namedview
     id="base"
     pagecolor="#e8e8e0"
     bordercolor="#666666"
     borderopacity="1.0"
     inkscape:pageopacity="0"
     inkscape:pageshadow="2"
     inkscape:zoom="23.9375"
     inkscape:cx="16"
     inkscape:cy="16"
     inkscape:document-units="px"
     inkscape:current-layer="g15465"
     showgrid="true"
     units="px">
    <inkscape:grid
       type="xygrid"
       id="grid4421"
       spacingx="2.0000001"
       spacingy="2.0000001"
       empspacing="2" />
  </sodipodi:namedview>
  <metadata
     id="metadata4418">
    <rdf:RDF>
      <cc:Work
         rdf:about="">
        <dc:format>image/svg+xml</dc:format>
        <dc:type
           rdf:resource="http://purl.org/dc/dcmitype/StillImage" />
        <dc:title />
      </cc:Work>
    </rdf:RDF>
  </metadata>
  <g
     inkscape:label="Layer 1"
     inkscape:groupmode="layer"
     id="layer1"
     transform="translate(0,-1020.3622)">
    <g
       id="g15465"
       style="opacity:0.9">
      <g
         id="g12654"
         transform="translate(0,-1.9999826)">
        <rect
           style="opacity:1;fill:#000000;fill-opacity:1;fill-rule:nonzero;stroke:#ffffff;stroke-width:0.99999994;stroke-linecap:round;stroke-linejoin:round;stroke-miterlimit:4;stroke-dasharray:none;stroke-dashoffset:0;stroke-opacity:0.76862745"
           id="rect4298"
           width="30.999998"
           height="20.999998"
           x="0.49999997"
           y="1027.8622"
           rx="2"
           ry="2" />
        <path
           inkscape:connector-curvature="0"
           id="path4330"
           d="m 5.9999996,1029.3622 a 0.99999999,0.99999999 0 0 1 1,1 0.99999999,0.99999999 0 0 1 -1,1 0.99999999,0.99999999 0 0 1 -0.9999999,-1 0.99999999,0.99999999 0 0 1 0.9999999,-1 z"
           style="opacity:1;fill:#ffffff;fill-opacity:1;fill-rule:nonzero;stroke:none;stroke-width:2;stroke-linecap:round;stroke-linejoin:miter;stroke-miterlimit:4;stroke-dasharray:none;stroke-dashoffset:0;stroke-opacity:1" />
        <path
           style="opacity:1;fill:#ffffff;fill-opacity:1;fill-rule:nonzero;stroke:none;stroke-width:2;stroke-linecap:round;stroke-linejoin:miter;stroke-miterlimit:4;stroke-dasharray:none;stroke-dashoffset:0;stroke-opacity:1"
           d="m 9.9999994,1029.3622 a 0.99999999,0.99999999 0 0 1 0.9999996,1 0.99999999,0.99999999 0 0 1 -0.9999996,1 0.99999999,0.99999999 0 0 1 -0.9999999,-1 0.99999999,0.99999999 0 0 1 0.9999999,-1 z"
           id="path12561"
           inkscape:connector-curvature="0" />
        <path
           inkscape:connector-curvature="0"
           id="path12563"
           d="m 14,1029.3622 a 0.99999999,0.99999999 0 0 1 1,1 0.99999999,0.99999999 0 0 1 -1,1 0.99999999,0.99999999 0 0 1 -1,-1 0.99999999,0.99999999 0 0 1 1,-1 z"
           style="opacity:1;fill:#ffffff;fill-opacity:1;fill-rule:nonzero;stroke:none;stroke-width:2;stroke-linecap:round;stroke-linejoin:miter;stroke-miterlimit:4;stroke-dasharray:none;stroke-dashoffset:0;stroke-opacity:1" />
        <path
           style="opacity:1;fill:#ffffff;fill-opacity:1;fill-rule:nonzero;stroke:none;stroke-width:2;stroke-linecap:round;stroke-linejoin:miter;stroke-miterlimit:4;stroke-dasharray:none;stroke-dashoffset:0;stroke-opacity:1"
           d="m 18,1029.3622 a 0.99999999,0.99999999 0 0 1 1,1 0.99999999,0.99999999 0 0 1 -1,1 0.99999999,0.99999999 0 0 1 -1,-1 0.99999999,0.99999999 0 0 1 1,-1 z"
           id="path12565"
           inkscape:connector-curvature="0" />
        <path
           inkscape:connector-curvature="0"
           id="path12567"
           d="m 22,1029.3622 a 0.99999999,0.99999999 0 0 1 1,1 0.99999999,0.99999999 0 0 1 -1,1 0.99999999,0.99999999 0 0 1 -1,-1 0.99999999,0.99999999 0 0 1 1,-1 z"
           style="opacity:1;fill:#ffffff;fill-opacity:1;fill-rule:nonzero;stroke:none;stroke-width:2;stroke-linecap:round;stroke-linejoin:miter;stroke-miterlimit:4;stroke-dasharray:none;stroke-dashoffset:0;stroke-opacity:1" />
        <path
           style="opacity:1;fill:#ffffff;fill-opacity:1;fill-rule:nonzero;stroke:none;stroke-width:2;stroke-linecap:round;stroke-linejoin:miter;stroke-miterlimit:4;stroke-dasharray:none;stroke-dashoffset:0;stroke-opacity:1"
           d="m 26,1029.3622 a 0.99999999,0.99999999 0 0 1 1,1 0.99999999,0.99999999 0 0 1 -1,1 0.99999999,0.99999999 0 0 1 -1,-1 0.99999999,0.99999999 0 0 1 1,-1 z"
           id="path12569"
           inkscape:connector-curvature="0" />
        <path
           inkscape:connector-curvature="0"
           id="path12571"
           d="m 30,1029.3622 a 0.99999999,0.99999999 0 0 1 1,1 0.99999999,0.99999999 0 0 1 -1,1 0.99999999,0.99999999 0 0 1 -1,-1 0.99999999,0.99999999 0 0 1 1,-1 z"
           style="opacity:1;fill:#ffffff;fill-opacity:1;fill-rule:nonzero;stroke:none;stroke-width:2;stroke-linecap:round;stroke-linejoin:miter;stroke-miterlimit:4;stroke-dasharray:none;stroke-dashoffset:0;stroke-opacity:1" />
        <path
           style="opacity:1;fill:#ffffff;fill-opacity:1;fill-rule:nonzero;stroke:none;stroke-width:2;stroke-linecap:round;stroke-linejoin:miter;stroke-miterlimit:4;stroke-dasharray:none;stroke-dashoffset:0;stroke-opacity:1"
           d="m 1.9999998,1029.3622 a 0.99999999,0.99999999 0 0 1 1,1 0.99999999,0.99999999 0 0 1 -1,1 0.99999999,0.99999999 0 0 1 -0.99999986,-1 0.99999999,0.99999999 0 0 1 0.99999986,-1 z"
           id="path12573"
           inkscape:connector-curvature="0" />
        <path
           style="opacity:1;fill:#ffffff;fill-opacity:1;fill-rule:nonzero;stroke:none;stroke-width:2;stroke-linecap:round;stroke-linejoin:miter;stroke-miterlimit:4;stroke-dasharray:none;stroke-dashoffset:0;stroke-opacity:1"
           d="m 5.9999996,1045.3622 a 0.99999999,0.99999999 0 0 1 1,1 0.99999999,0.99999999 0 0 1 -1,1 0.99999999,0.99999999 0 0 1 -0.9999999,-1 0.99999999,0.99999999 0 0 1 0.9999999,-1 z"
           id="path12575"
           inkscape:connector-curvature="0" />
        <path
           inkscape:connector-curvature="0"
           id="path12577"
           d="m 9.9999994,1045.3622 a 0.99999999,0.99999999 0 0 1 0.9999996,1 0.99999999,0.99999999 0 0 1 -0.9999996,1 0.99999999,0.99999999 0 0 1 -0.9999999,-1 0.99999999,0.99999999 0 0 1 0.9999999,-1 z"
           style="opacity:1;fill:#ffffff;fill-opacity:1;fill-rule:nonzero;stroke:none;stroke-width:2;stroke-linecap:round;stroke-linejoin:miter;stroke-miterlimit:4;stroke-dasharray:none;stroke-dashoffset:0;stroke-opacity:1" />
        <path
           style="opacity:1;fill:#ffffff;fill-opacity:1;fill-rule:nonzero;stroke:none;stroke-width:2;stroke-linecap:round;stroke-linejoin:miter;stroke-miterlimit:4;stroke-dasharray:none;stroke-dashoffset:0;stroke-opacity:1"
           d="m 14,1045.3622 a 0.99999999,0.99999999 0 0 1 1,1 0.99999999,0.99999999 0 0 1 -1,1 0.99999999,0.99999999 0 0 1 -1,-1 0.99999999,0.99999999 0 0 1 1,-1 z"
           id="path12579"
           inkscape:connector-curvature="0" />
        <path
           inkscape:connector-curvature="0"
           id="path12581"
           d="m 18,1045.3622 a 0.99999999,0.99999999 0 0 1 1,1 0.99999999,0.99999999 0 0 1 -1,1 0.99999999,0.99999999 0 0 1 -1,-1 0.99999999,0.99999999 0 0 1 1,-1 z"
           style="opacity:1;fill:#ffffff;fill-opacity:1;fill-rule:nonzero;stroke:none;stroke-width:2;stroke-linecap:round;stroke-linejoin:miter;stroke-miterlimit:4;stroke-dasharray:none;stroke-dashoffset:0;stroke-opacity:1" />
        <path
           style="opacity:1;fill:#ffffff;fill-opacity:1;fill-rule:nonzero;stroke:none;stroke-width:2;stroke-linecap:round;stroke-linejoin:miter;stroke-miterlimit:4;stroke-dasharray:none;stroke-dashoffset:0;stroke-opacity:1"
           d="m 22,1045.3622 a 0.99999999,0.99999999 0 0 1 1,1 0.99999999,0.99999999 0 0 1 -1,1 0.99999999,0.99999999 0 0 1 -1,-1 0.99999999,0.99999999 0 0 1 1,-1 z"
           id="path12583"
           inkscape:connector-curvature="0" />
        <path
           inkscape:connector-curvature="0"
           id="path12585"
           d="m 26,1045.3622 a 0.99999999,0.99999999 0 0 1 1,1 0.99999999,0.99999999 0 0 1 -1,1 0.99999999,0.99999999 0 0 1 -1,-1 0.99999999,0.99999999 0 0 1 1,-1 z"
           style="opacity:1;fill:#ffffff;fill-opacity:1;fill-rule:nonzero;stroke:none;stroke-width:2;stroke-linecap:round;stroke-linejoin:miter;stroke-miterlimit:4;stroke-dasharray:none;stroke-dashoffset:0;stroke-opacity:1" />
        <path
           style="opacity:1;fill:#ffffff;fill-opacity:1;fill-rule:nonzero;stroke:none;stroke-width:2;stroke-linecap:round;stroke-linejoin:miter;stroke-miterlimit:4;stroke-dasharray:none;stroke-dashoffset:0;stroke-opacity:1"
           d="m 30,1045.3622 a 0.99999999,0.99999999 0 0 1 1,1 0.99999999,0.99999999 0 0 1 -1,1 0.99999999,0.99999999 0 0 1 -1,-1 0.99999999,0.99999999 0 0 1 1,-1 z"
           id="path12587"
           inkscape:connector-curvature="0" />
        <path
           inkscape:connector-curvature="0"
           id="path12589"
           d="m 1.9999998,1045.3622 a 0.99999999,0.99999999 0 0 1 1,1 0.99999999,0.99999999 0 0 1 -1,1 0.99999999,0.99999999 0 0 1 -0.99999986,-1 0.99999999,0.99999999 0 0 1 0.99999986,-1 z"
           style="opacity:1;fill:#ffffff;fill-opacity:1;fill-rule:nonzero;stroke:none;stroke-width:2;stroke-linecap:round;stroke-linejoin:miter;stroke-miterlimit:4;stroke-dasharray:none;stroke-dashoffset:0;stroke-opacity:1" />
        <rect
           ry="3"
           rx="3"
           y="1032.3622"
           x="7.9999995"
           height="11.999999"
           width="15.999999"
           id="rect12591"
           style="opacity:1;fill:#ffffff;fill-opacity:1;fill-rule:nonzero;stroke:none;stroke-width:0.99999994;stroke-linecap:round;stroke-linejoin:round;stroke-miterlimit:4;stroke-dasharray:none;stroke-dashoffset:0;stroke-opacity:0.76862745" />
        <path
           style="opacity:1;fill:#ffffff;fill-opacity:1;fill-rule:nonzero;stroke:none;stroke-width:0.99999994;stroke-linecap:round;stroke-linejoin:round;stroke-miterlimit:4;stroke-dasharray:none;stroke-dashoffset:0;stroke-opacity:0.76862745"
           d="m 29.018309,1032.3622 c -1.671723,-0.037 -3.018309,1.338 -3.018309,3 l 0,6 c 0,1.662 1.346166,3 3.018309,3 l 1.981691,0.044 0,-12 z"
           id="rect12633"
           inkscape:connector-curvature="0"
           sodipodi:nodetypes="ssssccs" />
        <path
           style="opacity:1;fill:#ffffff;fill-opacity:1;fill-rule:nonzero;stroke:none;stroke-width:0.99999994;stroke-linecap:round;stroke-linejoin:round;stroke-miterlimit:4;stroke-dasharray:none;stroke-dashoffset:0;stroke-opacity:0.76862745"
           d="m 0.99999994,1032.3622 0,12 2.00829536,0 c 1.6574043,0 2.9917043,-1.338 2.9917043,-3 l 0,-6 c 0,-1.662 -1.3343,-3 -2.9917043,-3 z"
           id="rect3363"
           inkscape:connector-curvature="0"
           sodipodi:nodetypes="ccssssc" />
      </g>
    </g>
  </g>
</svg>
