<?xml version="1.0" encoding="UTF-8" standalone="no"?>
<!-- Generator: Adobe Illustrator 13.0.0, SVG Export Plug-In . SVG Version: 6.00 Build 14948)  -->

<svg
   xmlns:dc="http://purl.org/dc/elements/1.1/"
   xmlns:cc="http://creativecommons.org/ns#"
   xmlns:rdf="http://www.w3.org/1999/02/22-rdf-syntax-ns#"
   xmlns:svg="http://www.w3.org/2000/svg"
   xmlns="http://www.w3.org/2000/svg"
   xmlns:sodipodi="http://sodipodi.sourceforge.net/DTD/sodipodi-0.dtd"
   xmlns:inkscape="http://www.inkscape.org/namespaces/inkscape"
   version="1.0"
   id="Layer_1"
   x="0px"
   y="0px"
   width="32"
   height="32"
   viewBox="0 0 50 57.5"
   enable-background="new 0 0 200 230"
   xml:space="preserve"
   sodipodi:version="0.32"
   inkscape:version="0.91 r13725"
   sodipodi:docname="firewire.svg"
   inkscape:output_extension="org.inkscape.output.svg.inkscape"><metadata
     id="metadata5687"><rdf:RDF><cc:Work
         rdf:about=""><dc:format>image/svg+xml</dc:format><dc:type
           rdf:resource="http://purl.org/dc/dcmitype/StillImage" /><dc:title></dc:title></cc:Work></rdf:RDF></metadata><defs
     id="defs5685"><inkscape:perspective
       sodipodi:type="inkscape:persp3d"
       inkscape:vp_x="0 : 115 : 1"
       inkscape:vp_y="0 : 1000 : 0"
       inkscape:vp_z="200 : 115 : 1"
       inkscape:persp3d-origin="100 : 76.666667 : 1"
       id="perspective5689" /></defs><sodipodi:namedview
     inkscape:window-height="794"
     inkscape:window-width="1325"
     inkscape:pageshadow="2"
     inkscape:pageopacity="0.0"
     guidetolerance="10.0"
     gridtolerance="10.0"
     objecttolerance="10.0"
     borderopacity="1.0"
     bordercolor="#666666"
     pagecolor="#ffffff"
     id="base"
     showgrid="true"
     inkscape:zoom="5.7306394"
     inkscape:cx="-2.1871121"
     inkscape:cy="59.159809"
     inkscape:window-x="37"
     inkscape:window-y="133"
     inkscape:current-layer="Layer_1"
     inkscape:window-maximized="0"><inkscape:grid
       type="xygrid"
       id="grid12543"
       empspacing="4" /></sodipodi:namedview><g
     id="g5634"
     style="opacity:1"
     transform="translate(0,-172.5)"><path
       inkscape:connector-curvature="0"
       d=""
       id="path5636"
       style="fill:none;stroke:#000000;stroke-width:0.175;stroke-dasharray:1.4, 1.05, 1.4, 1.05, 1.4, 1.05" /></g><g
     id="g12553"
     transform="matrix(0.24166577,0,0,0.24333153,0.62912207,42.711359)"><path
       id="path5640"
       d="m 54.762845,-64.26853 c 0,-24.362194 19.752746,-44.11777 44.117766,-44.11777 24.362189,0 44.114939,19.752748 44.114939,44.11777 0,24.36502 -19.74992,44.12625 -44.114939,44.12625 -24.36502,-0.003 -44.117766,-19.76406 -44.117766,-44.12625 m 44.117766,24.71002 c 13.650179,0 24.698709,-11.06267 24.698709,-24.71002 0,-13.638871 -11.04853,-24.712851 -24.698709,-24.712851 -13.644524,0 -24.701537,11.07398 -24.701537,24.712851 -0.0028,13.64735 11.057013,24.71002 24.701537,24.71002 z"
       style="fill:#000000;fill-opacity:1;stroke:#1d99f3;stroke-width:7.40987873;stroke-opacity:0.50196078"
       inkscape:connector-curvature="0" /><rect
       id="rect5642"
       height="19.404917"
       width="58.228889"
       y="-0.73452759"
       x="69.756264"
       style="fill:#000000;fill-opacity:1;stroke:#1d99f3;stroke-width:7.40987873;stroke-opacity:0.50196078" /><rect
       id="rect5644"
       height="19.421885"
       width="58.228889"
       y="38.07811"
       x="69.756264"
       style="fill:#000000;fill-opacity:1;stroke:#1d99f3;stroke-width:7.40987873;stroke-opacity:0.50196078" /><polyline
       transform="matrix(2.8278806,0,0,2.8278806,-184.41364,-343.32379)"
       id="polyline5646"
       points="72.156,85.221 77.011,90.08 91.574,75.516 86.72,70.658 72.156,85.221 "
       style="fill:#000000;fill-opacity:1;stroke:#1d99f3;stroke-width:2.62029433;stroke-opacity:0.50196078" /><polyline
       transform="matrix(2.8278806,0,0,2.8278806,-184.41364,-343.32379)"
       id="polyline5648"
       points="62.45,75.594 67.302,80.452 81.866,65.806 77.011,61.03 62.45,75.594 "
       style="fill:#000000;fill-opacity:1;stroke:#1d99f3;stroke-width:2.62029433;stroke-opacity:0.50196078" /><polyline
       transform="matrix(2.8278806,0,0,2.8278806,-184.41364,-343.32379)"
       id="polyline5650"
       points="125.654,60.407 109.664,76.396 122.38,89.033 138.37,73.204 125.654,60.407 "
       style="fill:#000000;fill-opacity:1;stroke:#1d99f3;stroke-width:2.62029433;stroke-opacity:0.50196078" /></g></svg>