<?xml version="1.0" encoding="UTF-8" standalone="no"?>
<!-- Created with Inkscape (http://www.inkscape.org/) -->

<svg
   xmlns:dc="http://purl.org/dc/elements/1.1/"
   xmlns:cc="http://creativecommons.org/ns#"
   xmlns:rdf="http://www.w3.org/1999/02/22-rdf-syntax-ns#"
   xmlns:svg="http://www.w3.org/2000/svg"
   xmlns="http://www.w3.org/2000/svg"
   xmlns:sodipodi="http://sodipodi.sourceforge.net/DTD/sodipodi-0.dtd"
   xmlns:inkscape="http://www.inkscape.org/namespaces/inkscape"
   width="32"
   height="32"
   viewBox="0 0 31.999999 31.999998"
   id="svg4413"
   version="1.1"
   inkscape:version="0.91 r13725"
   sodipodi:docname="folder-orange.svg">
  <defs
     id="defs4415" />
  <sodipodi:namedview
     id="base"
     pagecolor="#e8e8e0"
     bordercolor="#666666"
     borderopacity="1.0"
     inkscape:pageopacity="0"
     inkscape:pageshadow="2"
     inkscape:zoom="8.4631843"
     inkscape:cx="-5.7510636"
     inkscape:cy="21.013055"
     inkscape:document-units="px"
     inkscape:current-layer="g14839"
     showgrid="true"
     units="px">
    <inkscape:grid
       type="xygrid"
       id="grid4421"
       spacingx="2.0000001"
       spacingy="2.0000001" />
  </sodipodi:namedview>
  <metadata
     id="metadata4418">
    <rdf:RDF>
      <cc:Work
         rdf:about="">
        <dc:format>image/svg+xml</dc:format>
        <dc:type
           rdf:resource="http://purl.org/dc/dcmitype/StillImage" />
        <dc:title></dc:title>
      </cc:Work>
    </rdf:RDF>
  </metadata>
  <g
     inkscape:label="Layer 1"
     inkscape:groupmode="layer"
     id="layer1"
     transform="translate(0,-1020.3622)">
    <g
       id="g14839"
       style="opacity:0.8">
      <path
         inkscape:connector-curvature="0"
         id="path4377"
         d="m 5.0000071,1042.8635 a 4.4999641,4.5003573 0 0 0 -0.318919,0.011 4.4999641,4.5003573 0 0 0 -0.4457213,0.054 4.4999641,4.5003573 0 0 0 -0.4394552,0.099 4.4999641,4.5003573 0 0 0 -0.4268929,0.1419 4.4999641,4.5003573 0 0 0 -0.4105671,0.1833 4.4999641,4.5003573 0 0 0 -0.3892298,0.2235 4.4999641,4.5003573 0 0 0 -0.3666246,0.2624 4.4999641,4.5003573 0 0 0 -0.3377473,0.2964 4.4999641,4.5003573 0 0 0 -0.3063635,0.329 4.4999641,4.5003573 0 0 0 -0.2724596,0.3578 4.4999641,4.5003573 0 0 0 -0.2347895,0.3844 4.4999641,4.5003573 0 0 0 -0.1958696,0.4043 4.4999641,4.5003573 0 0 0 -0.1544332,0.4231 4.4999641,4.5003573 0 0 0 -0.1117475,0.4357 4.4999641,4.5003573 0 0 0 -0.066548,0.4445 4.4999641,4.5003573 0 0 0 -0.022639,0.4494 4.4999641,4.5003573 0 0 0 0.01132,0.319 4.4999641,4.5003573 0 0 0 0.053998,0.4459 4.4999641,4.5003573 0 0 0 0.099191,0.4395 4.4999641,4.5003573 0 0 0 0.1418775,0.4269 4.4999641,4.5003573 0 0 0 0.1833142,0.4106 4.4999641,4.5003573 0 0 0 0.2234906,0.3892 4.4999641,4.5003573 0 0 0 0.2624171,0.3666 4.4999641,4.5003573 0 0 0 0.2963108,0.3378 4.4999641,4.5003573 0 0 0 0.3289579,0.3064 4.4999641,4.5003573 0 0 0 0.3578389,0.2725 4.4999641,4.5003573 0 0 0 0.3842068,0.2347 4.4999641,4.5003573 0 0 0 0.4042948,0.1959 4.4999641,4.5003573 0 0 0 0.4231262,0.1546 4.4999641,4.5003573 0 0 0 0.4356788,0.1114 4.4999641,4.5003573 0 0 0 0.4444746,0.066 4.4999641,4.5003573 0 0 0 0.4494944,0.022 4.4999641,4.5003573 0 0 0 0.3189123,-0.011 4.4999641,4.5003573 0 0 0 0.4457316,-0.054 4.4999641,4.5003573 0 0 0 0.4394517,-0.099 4.4999641,4.5003573 0 0 0 0.4268932,-0.1418 4.4999641,4.5003573 0 0 0 0.4105673,-0.1835 4.4999641,4.5003573 0 0 0 0.389229,-0.2234 4.4999641,4.5003573 0 0 0 0.3666254,-0.2624 4.4999641,4.5003573 0 0 0 0.3377471,-0.2965 4.4999641,4.5003573 0 0 0 0.3063602,-0.3289 4.4999641,4.5003573 0 0 0 0.2724596,-0.3578 4.4999641,4.5003573 0 0 0 0.2347962,-0.3843 4.4999641,4.5003573 0 0 0 0.1958629,-0.4043 4.4999641,4.5003573 0 0 0 0.1544367,-0.4232 4.4999641,4.5003573 0 0 0 0.1117476,-0.4357 4.4999641,4.5003573 0 0 0 0.066544,-0.4446 4.4999641,4.5003573 0 0 0 0.022643,-0.4496 4.4999641,4.5003573 0 0 0 -0.011322,-0.3188 4.4999641,4.5003573 0 0 0 -0.054004,-0.4458 4.4999641,4.5003573 0 0 0 -0.099191,-0.4394 4.4999641,4.5003573 0 0 0 -0.1418776,-0.427 4.4999641,4.5003573 0 0 0 -0.1833176,-0.4106 4.4999641,4.5003573 0 0 0 -0.2234934,-0.3893 4.4999641,4.5003573 0 0 0 -0.2624105,-0.3666 4.4999641,4.5003573 0 0 0 -0.2963181,-0.3378 4.4999641,4.5003573 0 0 0 -0.3289613,-0.3064 4.4999641,4.5003573 0 0 0 -0.3578351,-0.2724 4.4999641,4.5003573 0 0 0 -0.3842002,-0.2349 4.4999641,4.5003573 0 0 0 -0.4042946,-0.1959 4.4999641,4.5003573 0 0 0 -0.4231263,-0.1545 4.4999641,4.5003573 0 0 0 -0.435686,-0.1114 4.4999641,4.5003573 0 0 0 -0.4444679,-0.066 4.4999641,4.5003573 0 0 0 -0.4494976,-0.023 z"
         style="opacity:1;fill:#f67400;fill-opacity:1;fill-rule:nonzero;stroke:#ffffff;stroke-width:1;stroke-linecap:round;stroke-linejoin:miter;stroke-miterlimit:4;stroke-dasharray:none;stroke-dashoffset:0;stroke-opacity:0.76862745" />
      <path
         style="opacity:1;fill:#f67400;fill-opacity:1;fill-rule:nonzero;stroke:#ffffff;stroke-width:0.99999988;stroke-linecap:round;stroke-linejoin:miter;stroke-miterlimit:4;stroke-dasharray:none;stroke-dashoffset:0;stroke-opacity:0.76862745"
         d="m 9.0000111,1020.8622 a 8.4999318,8.5001454 0 0 0 -0.6024025,0.021 8.4999318,8.5001454 0 0 0 -0.8419178,0.102 8.4999318,8.5001454 0 0 0 -0.8300821,0.1875 8.4999318,8.5001454 0 0 0 -0.8063531,0.2679 8.4999318,8.5001454 0 0 0 -0.7755158,0.3463 8.4999318,8.5001454 0 0 0 -0.7352119,0.4221 8.4999318,8.5001454 0 0 0 -0.6925132,0.4957 8.4999318,8.5001454 0 0 0 -0.6379667,0.5597 8.4999318,8.5001454 0 0 0 -0.5786866,0.6214 8.4999318,8.5001454 0 0 0 -0.514646,0.6759 8.4999318,8.5001454 0 0 0 -0.4434914,0.726 8.4999318,8.5001454 0 0 0 -0.3699759,0.7636 8.4999318,8.5001454 0 0 0 -0.29170686,0.7992 8.4999318,8.5001454 0 0 0 -0.2110777,0.8228 8.4999318,8.5001454 0 0 0 -0.1257012,0.8399 8.4999318,8.5001454 0 0 0 -0.0427624,0.8489 8.4999318,8.5001454 0 0 0 0.0213825,0.6023 8.4999318,8.5001454 0 0 0 0.1019976,0.8421 8.4999318,8.5001454 0 0 0 0.1873616,0.83 8.4999318,8.5001454 0 0 0 0.26799086,0.8064 8.4999318,8.5001454 0 0 0 0.34626,0.7754 8.4999318,8.5001454 0 0 0 0.4221488,0.7352 8.4999318,8.5001454 0 0 0 0.4956771,0.6926 8.4999318,8.5001454 0 0 0 0.5596979,0.6379 8.4999318,8.5001454 0 0 0 0.621365,0.5788 8.4999318,8.5001454 0 0 0 0.6759178,0.5147 8.4999318,8.5001454 0 0 0 0.7257239,0.4434 8.4999318,8.5001454 0 0 0 0.7636681,0.3701 8.4999318,8.5001454 0 0 0 0.7992384,0.2917 8.4999318,8.5001454 0 0 0 0.8229485,0.2112 8.4999318,8.5001454 0 0 0 0.8395633,0.1256 8.4999318,8.5001454 0 0 0 0.8490451,0.043 8.4999318,8.5001454 0 0 0 0.60239,-0.021 8.4999318,8.5001454 0 0 0 0.8419366,-0.102 8.4999318,8.5001454 0 0 0 0.830076,-0.1872 8.4999318,8.5001454 0 0 0 0.806354,-0.268 8.4999318,8.5001454 0 0 0 0.775516,-0.3465 8.4999318,8.5001454 0 0 0 0.73521,-0.4219 8.4999318,8.5001454 0 0 0 0.692514,-0.4957 8.4999318,8.5001454 0 0 0 0.637966,-0.5599 8.4999318,8.5001454 0 0 0 0.578682,-0.6214 8.4999318,8.5001454 0 0 0 0.514645,-0.6758 8.4999318,8.5001454 0 0 0 0.443503,-0.7257 8.4999318,8.5001454 0 0 0 0.369965,-0.7637 8.4999318,8.5001454 0 0 0 0.291714,-0.7993 8.4999318,8.5001454 0 0 0 0.211078,-0.823 8.4999318,8.5001454 0 0 0 0.125694,-0.8395 8.4999318,8.5001454 0 0 0 0.04277,-0.8493 8.4999318,8.5001454 0 0 0 -0.02139,-0.6022 8.4999318,8.5001454 0 0 0 -0.102006,-0.842 8.4999318,8.5001454 0 0 0 -0.187361,-0.83 8.4999318,8.5001454 0 0 0 -0.267991,-0.8065 8.4999318,8.5001454 0 0 0 -0.346267,-0.7756 8.4999318,8.5001454 0 0 0 -0.422154,-0.7352 8.4999318,8.5001454 0 0 0 -0.495664,-0.6926 8.4999318,8.5001454 0 0 0 -0.559712,-0.6378 8.4999318,8.5001454 0 0 0 -0.621371,-0.5787 8.4999318,8.5001454 0 0 0 -0.675911,-0.5146 8.4999318,8.5001454 0 0 0 -0.725712,-0.4436 8.4999318,8.5001454 0 0 0 -0.763667,-0.3699 8.4999318,8.5001454 0 0 0 -0.799239,-0.2918 8.4999318,8.5001454 0 0 0 -0.822961,-0.2111 8.4999318,8.5001454 0 0 0 -0.8395516,-0.1257 8.4999318,8.5001454 0 0 0 -0.8490506,-0.043 z"
         id="path4379"
         inkscape:connector-curvature="0" />
      <path
         style="opacity:1;fill:#f67400;fill-opacity:1;fill-rule:nonzero;stroke:#ffffff;stroke-width:1;stroke-linecap:round;stroke-linejoin:miter;stroke-miterlimit:4;stroke-dasharray:none;stroke-dashoffset:0;stroke-opacity:0.76862745"
         d="m 27.000005,1031.8627 a 4.4999637,4.5003573 0 0 0 -0.318918,0.011 4.4999637,4.5003573 0 0 0 -0.445721,0.054 4.4999637,4.5003573 0 0 0 -0.439456,0.099 4.4999637,4.5003573 0 0 0 -0.426892,0.1419 4.4999637,4.5003573 0 0 0 -0.410567,0.1833 4.4999637,4.5003573 0 0 0 -0.389231,0.2235 4.4999637,4.5003573 0 0 0 -0.366624,0.2624 4.4999637,4.5003573 0 0 0 -0.337747,0.2964 4.4999637,4.5003573 0 0 0 -0.306364,0.329 4.4999637,4.5003573 0 0 0 -0.272459,0.3578 4.4999637,4.5003573 0 0 0 -0.23479,0.3844 4.4999637,4.5003573 0 0 0 -0.195869,0.4043 4.4999637,4.5003573 0 0 0 -0.154433,0.4231 4.4999637,4.5003573 0 0 0 -0.111746,0.4357 4.4999637,4.5003573 0 0 0 -0.06655,0.4445 4.4999637,4.5003573 0 0 0 -0.02264,0.4494 4.4999637,4.5003573 0 0 0 0.01132,0.319 4.4999637,4.5003573 0 0 0 0.05399,0.4459 4.4999637,4.5003573 0 0 0 0.09919,0.4395 4.4999637,4.5003573 0 0 0 0.141877,0.4269 4.4999637,4.5003573 0 0 0 0.183314,0.4106 4.4999637,4.5003573 0 0 0 0.22349,0.3892 4.4999637,4.5003573 0 0 0 0.262418,0.3666 4.4999637,4.5003573 0 0 0 0.296311,0.3378 4.4999637,4.5003573 0 0 0 0.328958,0.3064 4.4999637,4.5003573 0 0 0 0.357838,0.2725 4.4999637,4.5003573 0 0 0 0.384207,0.2347 4.4999637,4.5003573 0 0 0 0.404295,0.1959 4.4999637,4.5003573 0 0 0 0.423127,0.1546 4.4999637,4.5003573 0 0 0 0.435678,0.1114 4.4999637,4.5003573 0 0 0 0.444474,0.066 4.4999637,4.5003573 0 0 0 0.449495,0.023 4.4999637,4.5003573 0 0 0 0.318912,-0.011 4.4999637,4.5003573 0 0 0 0.445732,-0.054 4.4999637,4.5003573 0 0 0 0.439451,-0.099 4.4999637,4.5003573 0 0 0 0.426893,-0.1419 4.4999637,4.5003573 0 0 0 0.410568,-0.1835 4.4999637,4.5003573 0 0 0 0.389229,-0.2234 4.4999637,4.5003573 0 0 0 0.366625,-0.2624 4.4999637,4.5003573 0 0 0 0.337747,-0.2965 4.4999637,4.5003573 0 0 0 0.306361,-0.3289 4.4999637,4.5003573 0 0 0 0.272459,-0.3578 4.4999637,4.5003573 0 0 0 0.234796,-0.3843 4.4999637,4.5003573 0 0 0 0.195863,-0.4043 4.4999637,4.5003573 0 0 0 0.154437,-0.4232 4.4999637,4.5003573 0 0 0 0.111745,-0.4357 4.4999637,4.5003573 0 0 0 0.06655,-0.4446 4.4999637,4.5003573 0 0 0 0.02265,-0.4496 4.4999637,4.5003573 0 0 0 -0.01132,-0.3188 4.4999637,4.5003573 0 0 0 -0.05401,-0.4458 4.4999637,4.5003573 0 0 0 -0.09919,-0.4394 4.4999637,4.5003573 0 0 0 -0.141877,-0.427 4.4999637,4.5003573 0 0 0 -0.183318,-0.4106 4.4999637,4.5003573 0 0 0 -0.223493,-0.3893 4.4999637,4.5003573 0 0 0 -0.26241,-0.3666 4.4999637,4.5003573 0 0 0 -0.296318,-0.3378 4.4999637,4.5003573 0 0 0 -0.328962,-0.3064 4.4999637,4.5003573 0 0 0 -0.357834,-0.2724 4.4999637,4.5003573 0 0 0 -0.384201,-0.2349 4.4999637,4.5003573 0 0 0 -0.404294,-0.1959 4.4999637,4.5003573 0 0 0 -0.423127,-0.1545 4.4999637,4.5003573 0 0 0 -0.435685,-0.1114 4.4999637,4.5003573 0 0 0 -0.444469,-0.066 4.4999637,4.5003573 0 0 0 -0.449497,-0.023 z"
         id="path4381"
         inkscape:connector-curvature="0" />
    </g>
  </g>
</svg>
