<?xml version="1.0" encoding="UTF-8" standalone="no"?>
<!-- Created with Inkscape (http://www.inkscape.org/) -->

<svg
   xmlns:dc="http://purl.org/dc/elements/1.1/"
   xmlns:cc="http://creativecommons.org/ns#"
   xmlns:rdf="http://www.w3.org/1999/02/22-rdf-syntax-ns#"
   xmlns:svg="http://www.w3.org/2000/svg"
   xmlns="http://www.w3.org/2000/svg"
   xmlns:sodipodi="http://sodipodi.sourceforge.net/DTD/sodipodi-0.dtd"
   xmlns:inkscape="http://www.inkscape.org/namespaces/inkscape"
   width="32"
   height="32"
   viewBox="0 0 31.999999 31.999998"
   id="svg4413"
   version="1.1"
   inkscape:version="0.91 r13725"
   sodipodi:docname="fullscreen-restore.svg">
  <defs
     id="defs4415" />
  <sodipodi:namedview
     id="base"
     pagecolor="#e8e8e0"
     bordercolor="#666666"
     borderopacity="1.0"
     inkscape:pageopacity="0"
     inkscape:pageshadow="2"
     inkscape:zoom="8"
     inkscape:cx="4.6370759"
     inkscape:cy="17.671018"
     inkscape:document-units="px"
     inkscape:current-layer="layer1"
     showgrid="true"
     units="px">
    <inkscape:grid
       type="xygrid"
       id="grid4421"
       spacingx="2.0000001"
       spacingy="2.0000001" />
  </sodipodi:namedview>
  <metadata
     id="metadata4418">
    <rdf:RDF>
      <cc:Work
         rdf:about="">
        <dc:format>image/svg+xml</dc:format>
        <dc:type
           rdf:resource="http://purl.org/dc/dcmitype/StillImage" />
        <dc:title></dc:title>
      </cc:Work>
    </rdf:RDF>
  </metadata>
  <g
     inkscape:label="Layer 1"
     inkscape:groupmode="layer"
     id="layer1"
     transform="translate(0,-1020.3622)">
    <path
       sodipodi:nodetypes="sccsssssccss"
       inkscape:connector-curvature="0"
       id="path4193"
       d="m 8.6998275,1021.3969 c -0.193224,-0.284 -0.3787194,-0.4644 -0.5474775,-0.5096 -0.9765604,0.3762 -2.9345709,1.0744 -2.3252219,1.9854 0.1855762,0.4252 0.3688562,0.9813 0.5183619,1.5468 0.1495121,0.5654 0.2651523,1.1407 0.3143047,1.6031 0.049055,0.4623 0.031605,0.8115 -0.0841,0.9272 -0.1156254,0.1157 -0.4649277,0.1332 -0.9271749,0.084 -0.462368,-0.049 -1.037714,-0.1647 -1.603164,-0.3142 -0.565521,-0.1495 -1.12154,-0.3328 -1.546763,-0.5184 -0.756604,-0.7442 -2.0932472,1.7425 -1.9853862,2.3252 0.359655,1.3528 9.4125005,3.7597 10.4056094,2.7665 0.869035,-0.869 -0.865304,-7.9089 -2.2187017,-9.8963 z"
       style="opacity:0.8;fill:#000000;fill-opacity:1;fill-rule:nonzero;stroke:#ffffff;stroke-width:0.99999976;stroke-linecap:round;stroke-linejoin:miter;stroke-miterlimit:4;stroke-dasharray:none;stroke-dashoffset:0;stroke-opacity:0.76862745" />
    <path
       style="opacity:0.8;fill:#000000;fill-opacity:1;fill-rule:nonzero;stroke:#ffffff;stroke-width:0.99999976;stroke-linecap:round;stroke-linejoin:miter;stroke-miterlimit:4;stroke-dasharray:none;stroke-dashoffset:0;stroke-opacity:0.76862745"
       d="m 1.0342526,1043.6623 c -0.28390403,0.1934 -0.46471103,0.3784 -0.50947103,0.5476 0.376252,0.9766 1.07444903,2.9346 1.98541463,2.3253 0.425183,-0.1856 0.981252,-0.3689 1.546796,-0.5184 0.565332,-0.1496 1.140705,-0.2652 1.603082,-0.3143 0.462306,-0.049 0.8115461,-0.032 0.9272288,0.084 0.1156119,0.1156 0.1331482,0.4649 0.084004,0.9271 -0.049144,0.4624 -0.1647558,1.0378 -0.3141675,1.6032 -0.1495531,0.5655 -0.3328352,1.1216 -0.5184505,1.5468 -0.743311,0.7574 1.742523,2.0932 2.3252497,1.9854 1.352766,-0.3597 3.7596163,-9.4125 2.7664843,-10.4057 -0.869034,-0.869 -7.908918,0.8653 -9.8963134,2.2187 z"
       id="path3398"
       inkscape:connector-curvature="0"
       sodipodi:nodetypes="sccsssssccss" />
    <path
       sodipodi:nodetypes="sccsssssccss"
       inkscape:connector-curvature="0"
       id="path3400"
       d="m 23.299995,1051.3279 c 0.193394,0.2839 0.378444,0.4647 0.547655,0.5095 0.976585,-0.3763 2.934563,-1.0744 2.325249,-1.9854 -0.185615,-0.4252 -0.368897,-0.9813 -0.51838,-1.5468 -0.149553,-0.5653 -0.265165,-1.1407 -0.314308,-1.6031 -0.04907,-0.4623 -0.03161,-0.8115 0.08407,-0.9272 0.115611,-0.1156 0.464922,-0.1332 0.927158,-0.084 0.462377,0.049 1.03775,0.1647 1.603223,0.3141 0.565473,0.1496 1.121542,0.3329 1.546726,0.5185 0.757452,0.7433 2.093248,-1.7425 1.985414,-2.3253 -0.359705,-1.3527 -9.412511,-3.7596 -10.405642,-2.7664 -0.869034,0.869 0.865287,7.9089 2.218689,9.8963 z"
       style="opacity:0.8;fill:#000000;fill-opacity:1;fill-rule:nonzero;stroke:#ffffff;stroke-width:0.99999976;stroke-linecap:round;stroke-linejoin:miter;stroke-miterlimit:4;stroke-dasharray:none;stroke-dashoffset:0;stroke-opacity:0.76862745" />
    <path
       style="opacity:0.8;fill:#000000;fill-opacity:1;fill-rule:nonzero;stroke:#ffffff;stroke-width:0.99999976;stroke-linecap:round;stroke-linejoin:miter;stroke-miterlimit:4;stroke-dasharray:none;stroke-dashoffset:0;stroke-opacity:0.76862745"
       d="m 30.965746,1029.0621 c 0.283904,-0.1934 0.464711,-0.3784 0.509471,-0.5476 -0.376252,-0.9766 -1.074449,-2.9346 -1.985415,-2.3253 -0.425183,0.1856 -0.981252,0.3689 -1.546796,0.5184 -0.565332,0.1496 -1.140704,0.2652 -1.603082,0.3143 -0.462306,0.049 -0.811546,0.032 -0.927229,-0.084 -0.115612,-0.1156 -0.133148,-0.4649 -0.084,-0.9271 0.04914,-0.4624 0.164756,-1.0378 0.314168,-1.6032 0.149553,-0.5655 0.332835,-1.1216 0.51845,-1.5468 0.743311,-0.7574 -1.742523,-2.0932 -2.32525,-1.9854 -1.352766,0.3597 -3.759616,9.4125 -2.766484,10.4057 0.869034,0.869 7.908918,-0.8653 9.896313,-2.2187 z"
       id="path3402"
       inkscape:connector-curvature="0"
       sodipodi:nodetypes="sccsssssccss" />
    <circle
       style="opacity:0.8;fill:#000000;fill-opacity:1;fill-rule:nonzero;stroke:#ffffff;stroke-width:1;stroke-linecap:butt;stroke-linejoin:miter;stroke-miterlimit:4;stroke-dasharray:none;stroke-dashoffset:0;stroke-opacity:0.76862745"
       id="path3404"
       cx="15.999999"
       cy="1036.3622"
       r="5.4999995" />
  </g>
</svg>
