<?xml version="1.0" encoding="UTF-8" standalone="no"?>
<!-- Created with Inkscape (http://www.inkscape.org/) -->

<svg
   xmlns:dc="http://purl.org/dc/elements/1.1/"
   xmlns:cc="http://creativecommons.org/ns#"
   xmlns:rdf="http://www.w3.org/1999/02/22-rdf-syntax-ns#"
   xmlns:svg="http://www.w3.org/2000/svg"
   xmlns="http://www.w3.org/2000/svg"
   xmlns:sodipodi="http://sodipodi.sourceforge.net/DTD/sodipodi-0.dtd"
   xmlns:inkscape="http://www.inkscape.org/namespaces/inkscape"
   width="32"
   height="32"
   viewBox="0 0 31.999999 31.999998"
   id="svg4413"
   version="1.1"
   inkscape:version="0.91 r13725"
   sodipodi:docname="info.svg">
  <defs
     id="defs4415" />
  <sodipodi:namedview
     id="base"
     pagecolor="#e8e8e0"
     bordercolor="#666666"
     borderopacity="1.0"
     inkscape:pageopacity="0"
     inkscape:pageshadow="2"
     inkscape:zoom="4.2315921"
     inkscape:cx="1.7288027"
     inkscape:cy="17.671018"
     inkscape:document-units="px"
     inkscape:current-layer="layer1"
     showgrid="true"
     units="px">
    <inkscape:grid
       type="xygrid"
       id="grid4421"
       spacingx="2.0000001"
       spacingy="2.0000001" />
  </sodipodi:namedview>
  <metadata
     id="metadata4418">
    <rdf:RDF>
      <cc:Work
         rdf:about="">
        <dc:format>image/svg+xml</dc:format>
        <dc:type
           rdf:resource="http://purl.org/dc/dcmitype/StillImage" />
        <dc:title />
      </cc:Work>
    </rdf:RDF>
  </metadata>
  <g
     inkscape:label="Layer 1"
     inkscape:groupmode="layer"
     id="layer1"
     transform="translate(0,-1020.3622)">
    <g
       id="g16913"
       style="opacity:0.8">
      <path
         style="opacity:1;fill:#1d99f3;fill-opacity:1;fill-rule:nonzero;stroke:#ffffff;stroke-width:0.99999994;stroke-linecap:round;stroke-linejoin:miter;stroke-miterlimit:4;stroke-dasharray:none;stroke-dashoffset:0;stroke-opacity:0.76862745"
         d="m 16.00007,1020.8623 a 15.499876,15.499759 0 0 0 -1.098503,0.039 15.499876,15.499759 0 0 0 -1.535258,0.186 15.499876,15.499759 0 0 0 -1.513679,0.3418 15.499876,15.499759 0 0 0 -1.470425,0.4887 15.499876,15.499759 0 0 0 -1.4141658,0.6312 15.499876,15.499759 0 0 0 -1.3406841,0.7698 15.499876,15.499759 0 0 0 -1.2628193,0.9039 15.499876,15.499759 0 0 0 -1.1633475,1.0206 15.499876,15.499759 0 0 0 -1.0552464,1.1333 15.499876,15.499759 0 0 0 -0.9384859,1.2324 15.499876,15.499759 0 0 0 -0.8087147,1.3236 15.499876,15.499759 0 0 0 -0.6746665,1.3924 15.499876,15.499759 0 0 0 -0.5319281,1.4573 15.499876,15.499759 0 0 0 -0.3849095,1.5005 15.499876,15.499759 0 0 0 -0.2292223,1.5313 15.499876,15.499759 0 0 0 -0.078017,1.548 15.499876,15.499759 0 0 0 0.038957,1.0986 15.499876,15.499759 0 0 0 0.1859959,1.5353 15.499876,15.499759 0 0 0 0.3416635,1.5136 15.499876,15.499759 0 0 0 0.4886913,1.4704 15.499876,15.499759 0 0 0 0.6314091,1.4141 15.499876,15.499759 0 0 0 0.7697994,1.3407 15.499876,15.499759 0 0 0 0.9038888,1.2629 15.499876,15.499759 0 0 0 1.0206173,1.1632 15.499876,15.499759 0 0 0 1.1330905,1.0553 15.499876,15.499759 0 0 0 1.2325519,0.9385 15.499876,15.499759 0 0 0 1.3233851,0.8084 15.499876,15.499759 0 0 0 1.3925695,0.6749 15.499876,15.499759 0 0 0 1.4574348,0.532 15.499876,15.499759 0 0 0 1.500659,0.3849 15.499876,15.499759 0 0 0 1.530979,0.2293 15.499876,15.499759 0 0 0 1.548246,0.078 15.499876,15.499759 0 0 0 1.098484,-0.038 15.499876,15.499759 0 0 0 1.535298,-0.186 15.499876,15.499759 0 0 0 1.51366,-0.3413 15.499876,15.499759 0 0 0 1.470412,-0.4889 15.499876,15.499759 0 0 0 1.414188,-0.6316 15.499876,15.499759 0 0 0 1.340673,-0.7696 15.499876,15.499759 0 0 0 1.262829,-0.9039 15.499876,15.499759 0 0 0 1.163347,-1.0208 15.499876,15.499759 0 0 0 1.055226,-1.1331 15.499876,15.499759 0 0 0 0.938476,-1.2322 15.499876,15.499759 0 0 0 0.808757,-1.3235 15.499876,15.499759 0 0 0 0.674635,-1.3927 15.499876,15.499759 0 0 0 0.531948,-1.4574 15.499876,15.499759 0 0 0 0.38491,-1.5006 15.499876,15.499759 0 0 0 0.229201,-1.531 15.499876,15.499759 0 0 0 0.07802,-1.5484 15.499876,15.499759 0 0 0 -0.03896,-1.0984 15.499876,15.499759 0 0 0 -0.186006,-1.5351 15.499876,15.499759 0 0 0 -0.341664,-1.5136 15.499876,15.499759 0 0 0 -0.488679,-1.4706 15.499876,15.499759 0 0 0 -0.631431,-1.4143 15.499876,15.499759 0 0 0 -0.769819,-1.3405 15.499876,15.499759 0 0 0 -0.903848,-1.2627 15.499876,15.499759 0 0 0 -1.020659,-1.1635 15.499876,15.499759 0 0 0 -1.133081,-1.0552 15.499876,15.499759 0 0 0 -1.232551,-0.9383 15.499876,15.499759 0 0 0 -1.323354,-0.8089 15.499876,15.499759 0 0 0 -1.392569,-0.6745 15.499876,15.499759 0 0 0 -1.457434,-0.5321 15.499876,15.499759 0 0 0 -1.500702,-0.3849 15.499876,15.499759 0 0 0 -1.530937,-0.229 15.499876,15.499759 0 0 0 -1.548278,-0.077 z"
         id="path4395"
         inkscape:connector-curvature="0" />
      <rect
         transform="scale(1,-1)"
         ry="2"
         rx="2"
         y="-1044.3622"
         x="13.999999"
         height="11.999999"
         width="3.9999998"
         id="rect4898"
         style="opacity:1;fill:#ffffff;fill-opacity:1;fill-rule:nonzero;stroke:none;stroke-width:2;stroke-linecap:square;stroke-linejoin:round;stroke-miterlimit:4;stroke-dasharray:none;stroke-dashoffset:0;stroke-opacity:1" />
      <circle
         transform="scale(1,-1)"
         r="1.9999999"
         cy="-1029.3622"
         cx="15.999999"
         id="path4900"
         style="opacity:1;fill:#ffffff;fill-opacity:1;fill-rule:nonzero;stroke:none;stroke-width:2;stroke-linecap:square;stroke-linejoin:round;stroke-miterlimit:4;stroke-dasharray:none;stroke-dashoffset:0;stroke-opacity:1" />
    </g>
  </g>
</svg>
