<?xml version="1.0" encoding="UTF-8" standalone="no"?>
<!-- Created with Inkscape (http://www.inkscape.org/) -->

<svg
   xmlns:dc="http://purl.org/dc/elements/1.1/"
   xmlns:cc="http://creativecommons.org/ns#"
   xmlns:rdf="http://www.w3.org/1999/02/22-rdf-syntax-ns#"
   xmlns:svg="http://www.w3.org/2000/svg"
   xmlns="http://www.w3.org/2000/svg"
   xmlns:sodipodi="http://sodipodi.sourceforge.net/DTD/sodipodi-0.dtd"
   xmlns:inkscape="http://www.inkscape.org/namespaces/inkscape"
   width="32"
   height="32"
   viewBox="0 0 31.999999 31.999998"
   id="svg4413"
   version="1.1"
   inkscape:version="0.91 r13725"
   sodipodi:docname="lineedit-clear2.svg">
  <defs
     id="defs4415" />
  <sodipodi:namedview
     id="base"
     pagecolor="#e8e8e0"
     bordercolor="#666666"
     borderopacity="1.0"
     inkscape:pageopacity="0"
     inkscape:pageshadow="2"
     inkscape:zoom="5.984375"
     inkscape:cx="-16.756787"
     inkscape:cy="16"
     inkscape:document-units="px"
     inkscape:current-layer="layer1"
     showgrid="true"
     units="px">
    <inkscape:grid
       type="xygrid"
       id="grid4421"
       spacingx="2.0000001"
       spacingy="2.0000001" />
  </sodipodi:namedview>
  <metadata
     id="metadata4418">
    <rdf:RDF>
      <cc:Work
         rdf:about="">
        <dc:format>image/svg+xml</dc:format>
        <dc:type
           rdf:resource="http://purl.org/dc/dcmitype/StillImage" />
        <dc:title />
      </cc:Work>
    </rdf:RDF>
  </metadata>
  <g
     inkscape:label="Layer 1"
     inkscape:groupmode="layer"
     id="layer1"
     transform="translate(0,-1020.3622)">
    <path
       style="opacity:0.8;fill:#ed1515;fill-opacity:1;fill-rule:nonzero;stroke:#ffffff;stroke-width:0.99999994;stroke-linecap:round;stroke-linejoin:miter;stroke-miterlimit:4;stroke-dasharray:none;stroke-dashoffset:0;stroke-opacity:0.76862745"
       d="m 16,1025.8622 a 10.499999,10.499999 0 0 0 -10.5000006,10.5 10.499999,10.499999 0 0 0 10.5000006,10.5 10.499999,10.499999 0 0 0 10.499999,-10.5 A 10.499999,10.499999 0 0 0 16,1025.8622 Z m 0,5.6 a 4.8999997,4.8999997 0 0 1 0.489454,0.025 4.8999997,4.8999997 0 0 1 0.483987,0.072 4.8999997,4.8999997 0 0 1 0.474411,0.1218 4.8999997,4.8999997 0 0 1 0.460747,0.1681 4.8999997,4.8999997 0 0 1 0.440229,0.2133 4.8999997,4.8999997 0 0 1 0.418362,0.2557 4.8999997,4.8999997 0 0 1 0.389649,0.2966 4.8999997,4.8999997 0 0 1 0.358203,0.3336 4.8999997,4.8999997 0 0 1 0.322659,0.3678 4.8999997,4.8999997 0 0 1 0.28574,0.3992 4.8999997,4.8999997 0 0 1 0.243361,0.4238 4.8999997,4.8999997 0 0 1 0.199605,0.4471 4.8999997,4.8999997 0 0 1 0.154497,0.4648 4.8999997,4.8999997 0 0 1 0.108003,0.4785 4.8999997,4.8999997 0 0 1 0.0588,0.4854 4.8999997,4.8999997 0 0 1 0.01232,0.3473 4.8999997,4.8999997 0 0 1 -0.02464,0.4895 4.8999997,4.8999997 0 0 1 -0.07246,0.4839 4.8999997,4.8999997 0 0 1 -0.12168,0.4744 4.8999997,4.8999997 0 0 1 -0.168168,0.4608 4.8999997,4.8999997 0 0 1 -0.213276,0.4402 4.8999997,4.8999997 0 0 1 -0.255669,0.4184 4.8999997,4.8999997 0 0 1 -0.29668,0.3896 4.8999997,4.8999997 0 0 1 -0.333593,0.3582 4.8999997,4.8999997 0 0 1 -0.367773,0.3227 4.8999997,4.8999997 0 0 1 -0.399216,0.2857 4.8999997,4.8999997 0 0 1 -0.423829,0.2433 4.8999997,4.8999997 0 0 1 -0.447069,0.1997 4.8999997,4.8999997 0 0 1 -0.464843,0.1545 4.8999997,4.8999997 0 0 1 -0.478519,0.108 4.8999997,4.8999997 0 0 1 -0.485352,0.059 4.8999997,4.8999997 0 0 1 -0.347263,0.012 4.8999997,4.8999997 0 0 1 -0.489455,-0.025 4.8999997,4.8999997 0 0 1 -0.483987,-0.072 4.8999997,4.8999997 0 0 1 -0.474411,-0.1217 4.8999997,4.8999997 0 0 1 -0.46074,-0.1682 4.8999997,4.8999997 0 0 1 -0.440236,-0.2133 4.8999997,4.8999997 0 0 1 -0.418362,-0.2556 4.8999997,4.8999997 0 0 1 -0.389648,-0.2967 4.8999997,4.8999997 0 0 1 -0.358204,-0.3336 4.8999997,4.8999997 0 0 1 -0.322651,-0.3678 4.8999997,4.8999997 0 0 1 -0.285747,-0.3993 4.8999997,4.8999997 0 0 1 -0.243355,-0.4238 4.8999997,4.8999997 0 0 1 -0.199612,-0.447 4.8999997,4.8999997 0 0 1 -0.15449,-0.4649 4.8999997,4.8999997 0 0 1 -0.10801,-0.4785 4.8999997,4.8999997 0 0 1 -0.0588,-0.4854 4.8999997,4.8999997 0 0 1 -0.01232,-0.3471 4.8999997,4.8999997 0 0 1 0.02464,-0.4896 4.8999997,4.8999997 0 0 1 0.07246,-0.484 4.8999997,4.8999997 0 0 1 0.121674,-0.4744 4.8999997,4.8999997 0 0 1 0.168167,-0.4606 4.8999997,4.8999997 0 0 1 0.213284,-0.4403 4.8999997,4.8999997 0 0 1 0.255662,-0.4184 4.8999997,4.8999997 0 0 1 0.29668,-0.3896 4.8999997,4.8999997 0 0 1 0.333592,-0.3582 4.8999997,4.8999997 0 0 1 0.367773,-0.3227 4.8999997,4.8999997 0 0 1 0.399217,-0.2858 4.8999997,4.8999997 0 0 1 0.423829,-0.2433 4.8999997,4.8999997 0 0 1 0.447077,-0.1996 4.8999997,4.8999997 0 0 1 0.464841,-0.1545 4.8999997,4.8999997 0 0 1 0.478513,-0.108 4.8999997,4.8999997 0 0 1 0.485352,-0.059 4.8999997,4.8999997 0 0 1 0.347264,-0.012 z"
       id="path4282"
       inkscape:connector-curvature="0" />
  </g>
</svg>
