<?xml version="1.0" encoding="UTF-8" standalone="no"?>
<!-- Created with Inkscape (http://www.inkscape.org/) -->

<svg
   xmlns:dc="http://purl.org/dc/elements/1.1/"
   xmlns:cc="http://creativecommons.org/ns#"
   xmlns:rdf="http://www.w3.org/1999/02/22-rdf-syntax-ns#"
   xmlns:svg="http://www.w3.org/2000/svg"
   xmlns="http://www.w3.org/2000/svg"
   xmlns:sodipodi="http://sodipodi.sourceforge.net/DTD/sodipodi-0.dtd"
   xmlns:inkscape="http://www.inkscape.org/namespaces/inkscape"
   width="32"
   height="32"
   viewBox="0 0 31.999999 31.999998"
   id="svg4413"
   version="1.1"
   inkscape:version="0.91 r13725"
   sodipodi:docname="mail.svg">
  <defs
     id="defs4415" />
  <sodipodi:namedview
     id="base"
     pagecolor="#e8e8e0"
     bordercolor="#666666"
     borderopacity="1.0"
     inkscape:pageopacity="0"
     inkscape:pageshadow="2"
     inkscape:zoom="23.9375"
     inkscape:cx="16"
     inkscape:cy="21.013055"
     inkscape:document-units="px"
     inkscape:current-layer="layer1"
     showgrid="true"
     units="px">
    <inkscape:grid
       type="xygrid"
       id="grid4421"
       spacingx="2.0000001"
       spacingy="2.0000001" />
  </sodipodi:namedview>
  <metadata
     id="metadata4418">
    <rdf:RDF>
      <cc:Work
         rdf:about="">
        <dc:format>image/svg+xml</dc:format>
        <dc:type
           rdf:resource="http://purl.org/dc/dcmitype/StillImage" />
        <dc:title></dc:title>
      </cc:Work>
    </rdf:RDF>
  </metadata>
  <g
     inkscape:label="Layer 1"
     inkscape:groupmode="layer"
     id="layer1"
     transform="translate(0,-1020.3622)">
    <g
       id="g4456"
       style="opacity:0.8">
      <path
         style="opacity:1;fill:#000000;fill-opacity:1;fill-rule:nonzero;stroke:#ffffff;stroke-width:1.99999988;stroke-linecap:round;stroke-linejoin:miter;stroke-miterlimit:4;stroke-dasharray:none;stroke-dashoffset:0;stroke-opacity:1"
         d="m 16.000028,1021.3625 a 14.99935,14.999764 0 0 0 -1.063026,0.038 14.99935,14.999764 0 0 0 -1.485685,0.18 14.99935,14.999764 0 0 0 -1.464799,0.3307 14.99935,14.999764 0 0 0 -1.422926,0.473 14.99935,14.999764 0 0 0 -1.3685085,0.6108 14.99935,14.999764 0 0 0 -1.297387,0.745 14.99935,14.999764 0 0 0 -1.222039,0.8747 14.99935,14.999764 0 0 0 -1.125784,0.9877 14.99935,14.999764 0 0 0 -1.021175,1.0967 14.99935,14.999764 0 0 0 -0.908167,1.1927 14.99935,14.999764 0 0 0 -0.782604,1.2809 14.99935,14.999764 0 0 0 -0.652876,1.3475 14.99935,14.999764 0 0 0 -0.514759,1.4103 14.99935,14.999764 0 0 0 -0.372477,1.4521 14.99935,14.999764 0 0 0 -0.221817,1.4819 14.99935,14.999764 0 0 0 -0.07546,1.498 14.99935,14.999764 0 0 0 0.03773,1.0632 14.99935,14.999764 0 0 0 0.17999,1.4858 14.99935,14.999764 0 0 0 0.330626,1.4647 14.99935,14.999764 0 0 0 0.472909,1.423 14.99935,14.999764 0 0 0 0.611025,1.3685 14.99935,14.999764 0 0 0 0.744942,1.2974 14.99935,14.999764 0 0 0 0.874694,1.2222 14.99935,14.999764 0 0 0 0.987667,1.1257 14.99935,14.999764 0 0 0 1.096488,1.0212 14.99935,14.999764 0 0 0 1.192754,0.9083 14.99935,14.999764 0 0 0 1.280644,0.7823 14.99935,14.999764 0 0 0 1.3476015,0.6531 14.99935,14.999764 0 0 0 1.410371,0.5149 14.99935,14.999764 0 0 0 1.452211,0.3724 14.99935,14.999764 0 0 0 1.48153,0.2219 14.99935,14.999764 0 0 0 1.498261,0.075 14.99935,14.999764 0 0 0 1.063003,-0.037 14.99935,14.999764 0 0 0 1.485719,-0.18 14.99935,14.999764 0 0 0 1.464788,-0.3303 14.99935,14.999764 0 0 0 1.422926,-0.4731 14.99935,14.999764 0 0 0 1.368509,-0.6113 14.99935,14.999764 0 0 0 1.297386,-0.7447 14.99935,14.999764 0 0 0 1.22204,-0.8748 14.99935,14.999764 0 0 0 1.125784,-0.9879 14.99935,14.999764 0 0 0 1.021164,-1.0965 14.99935,14.999764 0 0 0 0.908167,-1.1925 14.99935,14.999764 0 0 0 0.782627,-1.2808 14.99935,14.999764 0 0 0 0.652853,-1.3477 14.99935,14.999764 0 0 0 0.51477,-1.4104 14.99935,14.999764 0 0 0 0.372477,-1.4522 14.99935,14.999764 0 0 0 0.221806,-1.4816 14.99935,14.999764 0 0 0 0.07546,-1.4985 14.99935,14.999764 0 0 0 -0.03773,-1.0629 14.99935,14.999764 0 0 0 -0.180002,-1.4856 14.99935,14.999764 0 0 0 -0.330626,-1.4648 14.99935,14.999764 0 0 0 -0.472909,-1.4232 14.99935,14.999764 0 0 0 -0.611037,-1.3686 14.99935,14.999764 0 0 0 -0.744953,-1.2973 14.99935,14.999764 0 0 0 -0.87467,-1.222 14.99935,14.999764 0 0 0 -0.987691,-1.1259 14.99935,14.999764 0 0 0 -1.0965,-1.0212 14.99935,14.999764 0 0 0 -1.192742,-0.908 14.99935,14.999764 0 0 0 -1.280621,-0.7828 14.99935,14.999764 0 0 0 -1.347602,-0.6528 14.99935,14.999764 0 0 0 -1.410371,-0.5149 14.99935,14.999764 0 0 0 -1.452234,-0.3725 14.99935,14.999764 0 0 0 -1.481507,-0.2216 14.99935,14.999764 0 0 0 -1.498273,-0.075 z"
         id="path4450"
         inkscape:connector-curvature="0" />
      <path
         style="opacity:1;fill:#000000;fill-opacity:1;fill-rule:nonzero;stroke:#ffffff;stroke-width:1.99999976;stroke-linecap:round;stroke-linejoin:miter;stroke-miterlimit:4;stroke-dasharray:none;stroke-dashoffset:0;stroke-opacity:1"
         d="m 27.586044,1049.406 c -0.376366,0.6517 -1.918453,1.14 -4.043784,1.4654 -2.125102,0.3259 -4.834189,0.4908 -7.54215,0.4908 -2.707964,0 -5.417477,-0.1654 -7.5425168,-0.4906 -2.1250213,-0.3258 -3.6671125,-0.8139 -4.0435947,-1.4657 -0.376407,-0.6512 -0.028448,-2.2296 0.7519326,-4.2311 0.7803115,-2.0015 1.9937289,-4.4238 3.3474681,-6.7668 1.35405,-2.3429 2.8501208,-4.6039 4.1951268,-6.2797 1.344889,-1.6757 2.538658,-2.7661 3.291578,-2.7661 0.752926,0 1.946473,1.0904 3.291649,2.7661 1.344981,1.6758 2.840975,3.9368 4.194692,6.2797 1.353947,2.343 2.56754,4.7653 3.34749,6.7668 0.78033,2.0015 1.128509,3.5799 0.752109,4.2312 z"
         id="path4452"
         inkscape:connector-curvature="0" />
      <path
         inkscape:connector-curvature="0"
         id="path4454"
         d="m 25.486979,1022.9627 c -0.308179,-0.5332 -1.570883,-0.9327 -3.311164,-1.199 -1.740093,-0.2666 -3.958369,-0.4015 -6.175724,-0.4015 -2.217357,0 -4.435982,0.1353 -6.1760245,0.4014 -1.740027,0.2665 -3.0027346,0.6659 -3.3110089,1.1992 -0.3082126,0.5328 -0.023294,1.8242 0.6157036,3.4618 0.638941,1.6376 1.6325213,3.6195 2.7410013,5.5365 1.1087335,1.9169 2.3337585,3.7668 3.4350875,5.1379 1.101233,1.371 2.078724,2.2632 2.695236,2.2632 0.616517,0 1.593827,-0.8922 2.695295,-2.2632 1.101308,-1.3711 2.32627,-3.221 3.434731,-5.1379 1.10865,-1.917 2.102374,-3.8989 2.741019,-5.5365 0.638956,-1.6376 0.924055,-2.929 0.615848,-3.4619 z"
         style="opacity:1;fill:#000000;fill-opacity:1;fill-rule:nonzero;stroke:#ffffff;stroke-width:1.99999976;stroke-linecap:round;stroke-linejoin:miter;stroke-miterlimit:4;stroke-dasharray:none;stroke-dashoffset:0;stroke-opacity:1" />
    </g>
  </g>
</svg>
