<?xml version="1.0" encoding="UTF-8" standalone="no"?>
<!-- Created with Inkscape (http://www.inkscape.org/) -->

<svg
   xmlns:dc="http://purl.org/dc/elements/1.1/"
   xmlns:cc="http://creativecommons.org/ns#"
   xmlns:rdf="http://www.w3.org/1999/02/22-rdf-syntax-ns#"
   xmlns:svg="http://www.w3.org/2000/svg"
   xmlns="http://www.w3.org/2000/svg"
   xmlns:sodipodi="http://sodipodi.sourceforge.net/DTD/sodipodi-0.dtd"
   xmlns:inkscape="http://www.inkscape.org/namespaces/inkscape"
   width="32"
   height="32"
   viewBox="0 0 31.999999 31.999998"
   id="svg4413"
   version="1.1"
   inkscape:version="0.91 r13725"
   sodipodi:docname="music.svg">
  <defs
     id="defs4415" />
  <sodipodi:namedview
     id="base"
     pagecolor="#e8e8e0"
     bordercolor="#666666"
     borderopacity="1.0"
     inkscape:pageopacity="0"
     inkscape:pageshadow="2"
     inkscape:zoom="5.6568542"
     inkscape:cx="22.181836"
     inkscape:cy="17.671018"
     inkscape:document-units="px"
     inkscape:current-layer="g4291"
     showgrid="true"
     units="px">
    <inkscape:grid
       type="xygrid"
       id="grid4421"
       spacingx="2.0000001"
       spacingy="2.0000001"
       empspacing="2" />
  </sodipodi:namedview>
  <metadata
     id="metadata4418">
    <rdf:RDF>
      <cc:Work
         rdf:about="">
        <dc:format>image/svg+xml</dc:format>
        <dc:type
           rdf:resource="http://purl.org/dc/dcmitype/StillImage" />
        <dc:title />
      </cc:Work>
    </rdf:RDF>
  </metadata>
  <g
     inkscape:label="Layer 1"
     inkscape:groupmode="layer"
     id="layer1"
     transform="translate(0,-1020.3622)">
    <g
       id="g3400"
       transform="translate(0,-59.999997)">
      <rect
         ry="2"
         rx="2"
         y="1024.8772"
         x="9.499999"
         height="23.965353"
         width="3"
         id="rect3448"
         style="opacity:1;fill:#000000;fill-opacity:1;fill-rule:nonzero;stroke:#ffffff;stroke-width:0.99999994;stroke-linecap:round;stroke-linejoin:miter;stroke-miterlimit:4;stroke-dasharray:none;stroke-dashoffset:0;stroke-opacity:0.76862745" />
      <rect
         style="opacity:1;fill:#000000;fill-opacity:1;fill-rule:nonzero;stroke:#ffffff;stroke-width:0.99999994;stroke-linecap:round;stroke-linejoin:miter;stroke-miterlimit:4;stroke-dasharray:none;stroke-dashoffset:0;stroke-opacity:0.76862745"
         id="rect3458"
         width="3"
         height="22"
         x="23.998487"
         y="1022.8425"
         rx="2"
         ry="2" />
      <path
         inkscape:connector-curvature="0"
         id="path3446"
         d="m 23.125332,1039.3638 a 3.9999646,3.999137 0 0 0 -0.283484,0.01 3.9999646,3.999137 0 0 0 -0.396195,0.048 3.9999646,3.999137 0 0 0 -0.390628,0.088 3.9999646,3.999137 0 0 0 -0.379463,0.1261 3.9999646,3.999137 0 0 0 -0.364946,0.1628 3.9999646,3.999137 0 0 0 -0.345983,0.1987 3.9999646,3.999137 0 0 0 -0.325888,0.2332 3.9999646,3.999137 0 0 0 -0.300219,0.2633 3.9999646,3.999137 0 0 0 -0.272321,0.2924 3.9999646,3.999137 0 0 0 -0.24219,0.318 3.9999646,3.999137 0 0 0 -0.2087,0.3415 3.9999646,3.999137 0 0 0 -0.174107,0.3592 3.9999646,3.999137 0 0 0 -0.137272,0.3761 3.9999646,3.999137 0 0 0 -0.09933,0.3871 3.9999646,3.999137 0 0 0 -0.05915,0.3951 3.9999646,3.999137 0 0 0 -0.02013,0.4 3.9999646,3.999137 0 0 0 0.01005,0.2835 3.9999646,3.999137 0 0 0 0.048,0.3961 3.9999646,3.999137 0 0 0 0.08817,0.3905 3.9999646,3.999137 0 0 0 0.126114,0.3793 3.9999646,3.999137 0 0 0 0.162944,0.365 3.9999646,3.999137 0 0 0 0.198658,0.3459 3.9999646,3.999137 0 0 0 0.233261,0.3258 3.9999646,3.999137 0 0 0 0.263385,0.3001 3.9999646,3.999137 0 0 0 0.29241,0.2723 3.9999646,3.999137 0 0 0 0.318078,0.2422 3.9999646,3.999137 0 0 0 0.341518,0.2085 3.9999646,3.999137 0 0 0 0.359372,0.1742 3.9999646,3.999137 0 0 0 0.376112,0.1372 3.9999646,3.999137 0 0 0 0.387267,0.099 3.9999646,3.999137 0 0 0 0.395091,0.059 3.9999646,3.999137 0 0 0 0.399547,0.02 3.9999646,3.999137 0 0 0 0.283479,-0.01 3.9999646,3.999137 0 0 0 0.396205,-0.048 3.9999646,3.999137 0 0 0 0.390622,-0.088 3.9999646,3.999137 0 0 0 0.379462,-0.1262 3.9999646,3.999137 0 0 0 0.36495,-0.163 3.9999646,3.999137 0 0 0 0.345981,-0.1985 3.9999646,3.999137 0 0 0 0.325891,-0.2332 3.9999646,3.999137 0 0 0 0.300218,-0.2633 3.9999646,3.999137 0 0 0 0.272316,-0.2924 3.9999646,3.999137 0 0 0 0.242188,-0.3179 3.9999646,3.999137 0 0 0 0.208711,-0.3415 3.9999646,3.999137 0 0 0 0.174099,-0.3594 3.9999646,3.999137 0 0 0 0.137277,-0.376 3.9999646,3.999137 0 0 0 0.09933,-0.3872 3.9999646,3.999137 0 0 0 0.05915,-0.395 3.9999646,3.999137 0 0 0 0.02014,-0.3988 3.9999646,3.999137 0 0 0 -0.01006,-0.2834 3.9999646,3.999137 0 0 0 -0.048,-0.396 3.9999646,3.999137 0 0 0 -0.08817,-0.3906 3.9999646,3.999137 0 0 0 -0.126111,-0.3795 3.9999646,3.999137 0 0 0 -0.16295,-0.3648 3.9999646,3.999137 0 0 0 -0.198662,-0.3459 3.9999646,3.999137 0 0 0 -0.233252,-0.3258 3.9999646,3.999137 0 0 0 -0.263395,-0.3002 3.9999646,3.999137 0 0 0 -0.292408,-0.2723 3.9999646,3.999137 0 0 0 -0.318078,-0.2421 3.9999646,3.999137 0 0 0 -0.34151,-0.2087 3.9999646,3.999137 0 0 0 -0.359372,-0.174 3.9999646,3.999137 0 0 0 -0.376112,-0.1373 3.9999646,3.999137 0 0 0 -0.387278,-0.099 3.9999646,3.999137 0 0 0 -0.39508,-0.059 3.9999646,3.999137 0 0 0 -0.399555,-0.02 z"
         style="opacity:1;fill:#000000;fill-opacity:1;fill-rule:nonzero;stroke:#ffffff;stroke-width:0.99999994;stroke-linecap:round;stroke-linejoin:miter;stroke-miterlimit:4;stroke-dasharray:none;stroke-dashoffset:0;stroke-opacity:0.76862745" />
      <path
         style="opacity:1;fill:#000000;fill-opacity:1;fill-rule:nonzero;stroke:#ffffff;stroke-width:0.99999994;stroke-linecap:round;stroke-linejoin:miter;stroke-miterlimit:4;stroke-dasharray:none;stroke-dashoffset:0;stroke-opacity:0.76862745"
         d="m 8.582252,1043.3638 a 3.9999646,3.999137 0 0 0 -0.283484,0.01 3.9999646,3.999137 0 0 0 -0.396195,0.048 3.9999646,3.999137 0 0 0 -0.390628,0.088 3.9999646,3.999137 0 0 0 -0.379463,0.1261 3.9999646,3.999137 0 0 0 -0.364946,0.1628 3.9999646,3.999137 0 0 0 -0.345983,0.1987 3.9999646,3.999137 0 0 0 -0.325888,0.2332 3.9999646,3.999137 0 0 0 -0.300219,0.2633 3.9999646,3.999137 0 0 0 -0.272321,0.2924 3.9999646,3.999137 0 0 0 -0.24219,0.318 3.9999646,3.999137 0 0 0 -0.2087,0.3415 3.9999646,3.999137 0 0 0 -0.174107,0.3592 3.9999646,3.999137 0 0 0 -0.137272,0.3761 3.9999646,3.999137 0 0 0 -0.09933,0.3871 3.9999646,3.999137 0 0 0 -0.05915,0.3951 3.9999646,3.999137 0 0 0 -0.02013,0.4 3.9999646,3.999137 0 0 0 0.01005,0.2835 3.9999646,3.999137 0 0 0 0.048,0.3961 3.9999646,3.999137 0 0 0 0.08817,0.3905 3.9999646,3.999137 0 0 0 0.126114,0.3793 3.9999646,3.999137 0 0 0 0.162944,0.365 3.9999646,3.999137 0 0 0 0.198658,0.3459 3.9999646,3.999137 0 0 0 0.233261,0.3258 3.9999646,3.999137 0 0 0 0.263385,0.3001 3.9999646,3.999137 0 0 0 0.29241,0.2723 3.9999646,3.999137 0 0 0 0.318078,0.2422 3.9999646,3.999137 0 0 0 0.341518,0.2085 3.9999646,3.999137 0 0 0 0.359372,0.1742 3.9999646,3.999137 0 0 0 0.376112,0.1372 3.9999646,3.999137 0 0 0 0.387267,0.099 3.9999646,3.999137 0 0 0 0.395091,0.059 3.9999646,3.999137 0 0 0 0.399547,0.02 3.9999646,3.999137 0 0 0 0.283479,-0.01 3.9999646,3.999137 0 0 0 0.396205,-0.048 3.9999646,3.999137 0 0 0 0.3906225,-0.088 3.9999646,3.999137 0 0 0 0.3794665,-0.1262 3.9999646,3.999137 0 0 0 0.36495,-0.163 3.9999646,3.999137 0 0 0 0.345981,-0.1985 3.9999646,3.999137 0 0 0 0.325891,-0.2332 3.9999646,3.999137 0 0 0 0.300218,-0.2633 3.9999646,3.999137 0 0 0 0.272316,-0.2924 3.9999646,3.999137 0 0 0 0.242188,-0.3179 3.9999646,3.999137 0 0 0 0.208711,-0.3415 3.9999646,3.999137 0 0 0 0.174099,-0.3594 3.9999646,3.999137 0 0 0 0.137277,-0.376 3.9999646,3.999137 0 0 0 0.09933,-0.3872 3.9999646,3.999137 0 0 0 0.05915,-0.395 3.9999646,3.999137 0 0 0 0.02014,-0.3988 3.9999646,3.999137 0 0 0 -0.01006,-0.2834 3.9999646,3.999137 0 0 0 -0.048,-0.396 3.9999646,3.999137 0 0 0 -0.08817,-0.3906 3.9999646,3.999137 0 0 0 -0.126111,-0.3795 3.9999646,3.999137 0 0 0 -0.16295,-0.3648 3.9999646,3.999137 0 0 0 -0.198662,-0.3459 3.9999646,3.999137 0 0 0 -0.233252,-0.3258 3.9999646,3.999137 0 0 0 -0.263395,-0.3002 3.9999646,3.999137 0 0 0 -0.292408,-0.2723 3.9999646,3.999137 0 0 0 -0.318078,-0.2421 3.9999646,3.999137 0 0 0 -0.34151,-0.2087 3.9999646,3.999137 0 0 0 -0.359372,-0.174 3.9999646,3.999137 0 0 0 -0.376115,-0.1373 3.9999646,3.999137 0 0 0 -0.38728,-0.099 3.9999646,3.999137 0 0 0 -0.39508,-0.059 3.9999646,3.999137 0 0 0 -0.399555,-0.02 z"
         id="path3440"
         inkscape:connector-curvature="0" />
      <rect
         transform="matrix(0.22053731,0.97537854,-0.97537854,0.22053731,0,0)"
         style="opacity:1;fill:#000000;fill-opacity:1;fill-rule:nonzero;stroke:#ffffff;stroke-width:0.99999994;stroke-linecap:round;stroke-linejoin:miter;stroke-miterlimit:4;stroke-dasharray:none;stroke-dashoffset:0;stroke-opacity:0.76862745"
         id="rect9487"
         width="3"
         height="19.593477"
         x="1002.1714"
         y="198.25664"
         rx="2"
         ry="2" />
      <rect
         ry="2"
         rx="2"
         y="199.29654"
         x="1006.0858"
         height="19.593477"
         width="3"
         id="rect9489"
         style="opacity:1;fill:#000000;fill-opacity:1;fill-rule:nonzero;stroke:#ffffff;stroke-width:0.99999994;stroke-linecap:round;stroke-linejoin:miter;stroke-miterlimit:4;stroke-dasharray:none;stroke-dashoffset:0;stroke-opacity:0.76862745"
         transform="matrix(0.22053731,0.97537854,-0.97537854,0.22053731,0,0)" />
    </g>
    <rect
       ry="2"
       rx="2"
       y="1021.8622"
       x="-12.5"
       height="4.9999995"
       width="4.9999995"
       id="rect3449"
       style="opacity:1;fill:#000000;fill-opacity:1;fill-rule:nonzero;stroke:#ffffff;stroke-width:1;stroke-linecap:butt;stroke-linejoin:miter;stroke-miterlimit:4;stroke-dasharray:none;stroke-dashoffset:0;stroke-opacity:0.76862745" />
    <g
       id="g4291"
       style="opacity:0.8">
      <rect
         ry="2"
         rx="2"
         y="1045.8622"
         x="1.4999999"
         height="4.9999995"
         width="4.9999995"
         id="rect3398"
         style="opacity:1;fill:#000000;fill-opacity:1;fill-rule:nonzero;stroke:#ffffff;stroke-width:1;stroke-linecap:butt;stroke-linejoin:miter;stroke-miterlimit:4;stroke-dasharray:none;stroke-dashoffset:0;stroke-opacity:0.76862745" />
      <rect
         style="opacity:1;fill:#000000;fill-opacity:1;fill-rule:nonzero;stroke:#ffffff;stroke-width:1;stroke-linecap:butt;stroke-linejoin:miter;stroke-miterlimit:4;stroke-dasharray:none;stroke-dashoffset:0;stroke-opacity:0.76862745"
         id="rect3424"
         width="4.9999995"
         height="4.9999995"
         x="7.499999"
         y="1045.8622"
         rx="2"
         ry="2" />
      <rect
         ry="2"
         rx="2"
         y="1045.8622"
         x="13.499998"
         height="4.9999995"
         width="4.9999995"
         id="rect3426"
         style="opacity:1;fill:#000000;fill-opacity:1;fill-rule:nonzero;stroke:#ffffff;stroke-width:1;stroke-linecap:butt;stroke-linejoin:miter;stroke-miterlimit:4;stroke-dasharray:none;stroke-dashoffset:0;stroke-opacity:0.76862745" />
      <rect
         style="opacity:1;fill:#000000;fill-opacity:1;fill-rule:nonzero;stroke:#ffffff;stroke-width:1;stroke-linecap:butt;stroke-linejoin:miter;stroke-miterlimit:4;stroke-dasharray:none;stroke-dashoffset:0;stroke-opacity:0.76862745"
         id="rect3428"
         width="4.9999995"
         height="4.9999995"
         x="1.4999999"
         y="1039.8622"
         rx="2"
         ry="2" />
      <rect
         ry="2"
         rx="2"
         y="1039.8622"
         x="7.499999"
         height="4.9999995"
         width="4.9999995"
         id="rect3430"
         style="opacity:1;fill:#000000;fill-opacity:1;fill-rule:nonzero;stroke:#ffffff;stroke-width:1;stroke-linecap:butt;stroke-linejoin:miter;stroke-miterlimit:4;stroke-dasharray:none;stroke-dashoffset:0;stroke-opacity:0.76862745" />
      <rect
         style="opacity:1;fill:#000000;fill-opacity:1;fill-rule:nonzero;stroke:#11d116;stroke-width:1;stroke-linecap:butt;stroke-linejoin:miter;stroke-miterlimit:4;stroke-dasharray:none;stroke-dashoffset:0;stroke-opacity:0.76862746"
         id="rect3432"
         width="4.9999995"
         height="4.9999995"
         x="13.499998"
         y="1039.8622"
         rx="2"
         ry="2" />
      <rect
         style="opacity:1;fill:#000000;fill-opacity:1;fill-rule:nonzero;stroke:#ffffff;stroke-width:1;stroke-linecap:butt;stroke-linejoin:miter;stroke-miterlimit:4;stroke-dasharray:none;stroke-dashoffset:0;stroke-opacity:0.76862745"
         id="rect3436"
         width="4.9999995"
         height="4.9999995"
         x="7.499999"
         y="1033.8622"
         rx="2"
         ry="2" />
      <rect
         style="opacity:1;fill:#000000;fill-opacity:1;fill-rule:nonzero;stroke:#ffffff;stroke-width:1;stroke-linecap:butt;stroke-linejoin:miter;stroke-miterlimit:4;stroke-dasharray:none;stroke-dashoffset:0;stroke-opacity:0.76862745"
         id="rect3440"
         width="4.9999995"
         height="4.9999995"
         x="19.499998"
         y="1045.8622"
         rx="2"
         ry="2" />
      <rect
         ry="2"
         rx="2"
         y="1045.8622"
         x="25.499998"
         height="4.9999995"
         width="4.9999995"
         id="rect3442"
         style="opacity:1;fill:#000000;fill-opacity:1;fill-rule:nonzero;stroke:#ffffff;stroke-width:1;stroke-linecap:butt;stroke-linejoin:miter;stroke-miterlimit:4;stroke-dasharray:none;stroke-dashoffset:0;stroke-opacity:0.76862745" />
      <rect
         ry="2"
         rx="2"
         y="1039.8622"
         x="19.499998"
         height="4.9999995"
         width="4.9999995"
         id="rect3446"
         style="opacity:1;fill:#000000;fill-opacity:1;fill-rule:nonzero;stroke:#ffffff;stroke-width:1;stroke-linecap:butt;stroke-linejoin:miter;stroke-miterlimit:4;stroke-dasharray:none;stroke-dashoffset:0;stroke-opacity:0.76862745" />
      <rect
         style="opacity:1;fill:#000000;fill-opacity:1;fill-rule:nonzero;stroke:#ffffff;stroke-width:1;stroke-linecap:butt;stroke-linejoin:miter;stroke-miterlimit:4;stroke-dasharray:none;stroke-dashoffset:0;stroke-opacity:0.76862745"
         id="rect3453"
         width="4.9999995"
         height="4.9999995"
         x="19.499998"
         y="1033.8622"
         rx="2"
         ry="2" />
      <rect
         ry="2"
         rx="2"
         y="1033.8622"
         x="1.4999982"
         height="4.9999995"
         width="4.9999995"
         id="rect3455"
         style="opacity:1;fill:#000000;fill-opacity:1;fill-rule:nonzero;stroke:#11d116;stroke-width:1;stroke-linecap:butt;stroke-linejoin:miter;stroke-miterlimit:4;stroke-dasharray:none;stroke-dashoffset:0;stroke-opacity:0.76862746" />
      <rect
         ry="2"
         rx="2"
         y="1027.8622"
         x="7.499999"
         height="4.9999995"
         width="4.9999995"
         id="rect3461"
         style="opacity:1;fill:#000000;fill-opacity:1;fill-rule:nonzero;stroke:#ed1515;stroke-width:1;stroke-linecap:butt;stroke-linejoin:miter;stroke-miterlimit:4;stroke-dasharray:none;stroke-dashoffset:0;stroke-opacity:0.76862746" />
      <rect
         ry="2"
         rx="2"
         y="1027.8622"
         x="19.499998"
         height="4.9999995"
         width="4.9999995"
         id="rect3477"
         style="opacity:1;fill:#000000;fill-opacity:1;fill-rule:nonzero;stroke:#ffffff;stroke-width:1;stroke-linecap:butt;stroke-linejoin:miter;stroke-miterlimit:4;stroke-dasharray:none;stroke-dashoffset:0;stroke-opacity:0.76862745" />
      <rect
         style="opacity:1;fill:#000000;fill-opacity:1;fill-rule:nonzero;stroke:#ed1515;stroke-width:1;stroke-linecap:butt;stroke-linejoin:miter;stroke-miterlimit:4;stroke-dasharray:none;stroke-dashoffset:0;stroke-opacity:0.76862746"
         id="rect3481"
         width="4.9999995"
         height="4.9999995"
         x="19.499998"
         y="1021.8622"
         rx="2"
         ry="2" />
      <rect
         style="opacity:1;fill:#000000;fill-opacity:1;fill-rule:nonzero;stroke:#11d116;stroke-width:1;stroke-linecap:butt;stroke-linejoin:miter;stroke-miterlimit:4;stroke-dasharray:none;stroke-dashoffset:0;stroke-opacity:0.76862746"
         id="rect3489"
         width="4.9999995"
         height="4.9999995"
         x="25.499998"
         y="1039.8622"
         rx="2"
         ry="2" />
    </g>
  </g>
</svg>
