<?xml version="1.0" encoding="UTF-8" standalone="no"?>
<!-- Created with Inkscape (http://www.inkscape.org/) -->

<svg
   xmlns:dc="http://purl.org/dc/elements/1.1/"
   xmlns:cc="http://creativecommons.org/ns#"
   xmlns:rdf="http://www.w3.org/1999/02/22-rdf-syntax-ns#"
   xmlns:svg="http://www.w3.org/2000/svg"
   xmlns="http://www.w3.org/2000/svg"
   xmlns:sodipodi="http://sodipodi.sourceforge.net/DTD/sodipodi-0.dtd"
   xmlns:inkscape="http://www.inkscape.org/namespaces/inkscape"
   width="32"
   height="32"
   viewBox="0 0 31.999999 31.999998"
   id="svg4413"
   version="1.1"
   inkscape:version="0.91 r13725"
   sodipodi:docname="open.svg">
  <defs
     id="defs4415" />
  <sodipodi:namedview
     id="base"
     pagecolor="#e8e8e0"
     bordercolor="#666666"
     borderopacity="1.0"
     inkscape:pageopacity="0"
     inkscape:pageshadow="2"
     inkscape:zoom="11.96875"
     inkscape:cx="10.318538"
     inkscape:cy="21.013055"
     inkscape:document-units="px"
     inkscape:current-layer="layer1"
     showgrid="true"
     units="px">
    <inkscape:grid
       type="xygrid"
       id="grid4421"
       spacingx="2.0000001"
       spacingy="2.0000001" />
  </sodipodi:namedview>
  <metadata
     id="metadata4418">
    <rdf:RDF>
      <cc:Work
         rdf:about="">
        <dc:format>image/svg+xml</dc:format>
        <dc:type
           rdf:resource="http://purl.org/dc/dcmitype/StillImage" />
        <dc:title />
      </cc:Work>
    </rdf:RDF>
  </metadata>
  <g
     inkscape:label="Layer 1"
     inkscape:groupmode="layer"
     id="layer1"
     transform="translate(0,-1020.3622)">
    <g
       id="g8154"
       style="opacity:0.8">
      <path
         inkscape:connector-curvature="0"
         id="path4287"
         d="m 14.000015,1020.8622 a 13.499919,13.499859 0 0 0 -0.956758,0.034 13.499919,13.499859 0 0 0 -1.337167,0.162 13.499919,13.499859 0 0 0 -1.318364,0.2977 13.499919,13.499859 0 0 0 -1.2806792,0.4256 13.499919,13.499859 0 0 0 -1.2317135,0.5498 13.499919,13.499859 0 0 0 -1.1676847,0.6704 13.499919,13.499859 0 0 0 -1.0998779,0.7873 13.499919,13.499859 0 0 0 -1.013245,0.889 13.499919,13.499859 0 0 0 -0.9190942,0.987 13.499919,13.499859 0 0 0 -0.8173816,1.0734 13.499919,13.499859 0 0 0 -0.7043679,1.1528 13.499919,13.499859 0 0 0 -0.5876129,1.2128 13.499919,13.499859 0 0 0 -0.4632984,1.2693 13.499919,13.499859 0 0 0 -0.33524083,1.3069 13.499919,13.499859 0 0 0 -0.1996448,1.3337 13.499919,13.499859 0 0 0 -0.0678851,1.3482 13.499919,13.499859 0 0 0 0.0339364,0.9568 13.499919,13.499859 0 0 0 0.161999,1.3373 13.499919,13.499859 0 0 0 0.2975769,1.3182 13.499919,13.499859 0 0 0 0.42563343,1.2808 13.499919,13.499859 0 0 0 0.5499475,1.2316 13.499919,13.499859 0 0 0 0.6704645,1.1677 13.499919,13.499859 0 0 0 0.7872575,1.0999 13.499919,13.499859 0 0 0 0.8889306,1.0132 13.499919,13.499859 0 0 0 0.9868825,0.919 13.499919,13.499859 0 0 0 1.073513,0.8175 13.499919,13.499859 0 0 0 1.1526239,0.7041 13.499919,13.499859 0 0 0 1.2128906,0.5878 13.499919,13.499859 0 0 0 1.2693772,0.4635 13.499919,13.499859 0 0 0 1.307043,0.3351 13.499919,13.499859 0 0 0 1.333426,0.1997 13.499919,13.499859 0 0 0 1.348487,0.068 13.499919,13.499859 0 0 0 0.956739,-0.033 13.499919,13.499859 0 0 0 1.337189,-0.162 13.499919,13.499859 0 0 0 1.318361,-0.2973 13.499919,13.499859 0 0 0 1.280681,-0.4257 13.499919,13.499859 0 0 0 1.23171,-0.5502 13.499919,13.499859 0 0 0 1.167688,-0.6703 13.499919,13.499859 0 0 0 1.099876,-0.7873 13.499919,13.499859 0 0 0 1.013246,-0.8891 13.499919,13.499859 0 0 0 0.919075,-0.9868 13.499919,13.499859 0 0 0 0.817381,-1.0733 13.499919,13.499859 0 0 0 0.704389,-1.1527 13.499919,13.499859 0 0 0 0.587592,-1.213 13.499919,13.499859 0 0 0 0.463317,-1.2694 13.499919,13.499859 0 0 0 0.335242,-1.3069 13.499919,13.499859 0 0 0 0.199626,-1.3335 13.499919,13.499859 0 0 0 0.0679,-1.3486 13.499919,13.499859 0 0 0 -0.03395,-0.9567 13.499919,13.499859 0 0 0 -0.162008,-1.337 13.499919,13.499859 0 0 0 -0.297575,-1.3183 13.499919,13.499859 0 0 0 -0.425633,-1.2809 13.499919,13.499859 0 0 0 -0.549947,-1.2317 13.499919,13.499859 0 0 0 -0.670485,-1.1676 13.499919,13.499859 0 0 0 -0.787237,-1.0999 13.499919,13.499859 0 0 0 -0.88895,-1.0133 13.499919,13.499859 0 0 0 -0.986885,-0.9191 13.499919,13.499859 0 0 0 -1.073512,-0.8171 13.499919,13.499859 0 0 0 -1.152604,-0.7045 13.499919,13.499859 0 0 0 -1.21289,-0.5876 13.499919,13.499859 0 0 0 -1.269378,-0.4634 13.499919,13.499859 0 0 0 -1.307062,-0.3353 13.499919,13.499859 0 0 0 -1.333406,-0.1994 13.499919,13.499859 0 0 0 -1.348489,-0.067 z"
         style="opacity:1;fill:#000000;fill-opacity:1;fill-rule:nonzero;stroke:#ffffff;stroke-width:0.99999994;stroke-linecap:round;stroke-linejoin:miter;stroke-miterlimit:4;stroke-dasharray:none;stroke-dashoffset:0;stroke-opacity:0.76862745" />
      <path
         style="opacity:1;fill:#000000;fill-opacity:1;fill-rule:nonzero;stroke:#ffffff;stroke-width:0.99999988;stroke-linecap:round;stroke-linejoin:miter;stroke-miterlimit:4;stroke-dasharray:none;stroke-dashoffset:0;stroke-opacity:0.76862745"
         d="m 31.385238,1038.1959 c -0.257023,-0.4443 -1.31039,-0.7772 -2.762104,-0.9992 -1.451598,-0.2221 -3.302114,-0.3345 -5.151826,-0.3345 -1.849714,0 -3.700462,0.1127 -5.152059,0.3345 -1.451481,0.222 -2.50485,0.5549 -2.761987,0.9992 -0.257138,0.4441 -0.01953,1.5203 0.513586,2.8849 0.533003,1.3647 1.361863,3.0163 2.286547,4.6138 0.924914,1.5974 1.946799,3.139 2.86551,4.2816 0.918709,1.1425 1.734126,1.886 2.248403,1.886 0.514275,0 1.329577,-0.7435 2.2484,-1.886 0.91871,-1.1426 1.940598,-2.6842 2.865282,-4.2816 0.924798,-1.5975 1.753773,-3.2491 2.286547,-4.6138 0.533002,-1.3646 0.770838,-2.4408 0.513701,-2.8849 z"
         id="path4245"
         inkscape:connector-curvature="0" />
    </g>
  </g>
</svg>
