<?xml version="1.0" encoding="UTF-8" standalone="no"?>
<!-- Created with Inkscape (http://www.inkscape.org/) -->

<svg
   xmlns:dc="http://purl.org/dc/elements/1.1/"
   xmlns:cc="http://creativecommons.org/ns#"
   xmlns:rdf="http://www.w3.org/1999/02/22-rdf-syntax-ns#"
   xmlns:svg="http://www.w3.org/2000/svg"
   xmlns="http://www.w3.org/2000/svg"
   xmlns:sodipodi="http://sodipodi.sourceforge.net/DTD/sodipodi-0.dtd"
   xmlns:inkscape="http://www.inkscape.org/namespaces/inkscape"
   width="32"
   height="32"
   viewBox="0 0 31.999999 31.999998"
   id="svg4413"
   version="1.1"
   inkscape:version="0.91 r13725"
   sodipodi:docname="paste.svg">
  <defs
     id="defs4415" />
  <sodipodi:namedview
     id="base"
     pagecolor="#e8e8e0"
     bordercolor="#666666"
     borderopacity="1.0"
     inkscape:pageopacity="0"
     inkscape:pageshadow="2"
     inkscape:zoom="4"
     inkscape:cx="16.000001"
     inkscape:cy="16.4998"
     inkscape:document-units="px"
     inkscape:current-layer="layer1"
     showgrid="true"
     units="px">
    <inkscape:grid
       type="xygrid"
       id="grid4421"
       spacingx="2.0000001"
       spacingy="2.0000001" />
  </sodipodi:namedview>
  <metadata
     id="metadata4418">
    <rdf:RDF>
      <cc:Work
         rdf:about="">
        <dc:format>image/svg+xml</dc:format>
        <dc:type
           rdf:resource="http://purl.org/dc/dcmitype/StillImage" />
        <dc:title />
      </cc:Work>
    </rdf:RDF>
  </metadata>
  <g
     inkscape:label="Layer 1"
     inkscape:groupmode="layer"
     id="layer1"
     transform="translate(0,-1020.3622)">
    <g
       id="g8160">
      <path
         style="opacity:0.8;fill:#000000;fill-opacity:1;fill-rule:nonzero;stroke:#ffffff;stroke-width:0.99999994;stroke-linecap:round;stroke-linejoin:miter;stroke-miterlimit:4;stroke-dasharray:none;stroke-dashoffset:0;stroke-opacity:0.76862745"
         d="m 19.999973,1051.8609 a 11.499918,11.49993 0 0 1 -0.815016,-0.029 11.499918,11.49993 0 0 1 -1.139062,-0.138 11.499918,11.49993 0 0 1 -1.123056,-0.2536 11.499918,11.49993 0 0 1 -1.090949,-0.3626 11.499918,11.49993 0 0 1 -1.049224,-0.4685 11.499918,11.49993 0 0 1 -0.994702,-0.5709 11.499918,11.49993 0 0 1 -0.936929,-0.6707 11.499918,11.49993 0 0 1 -0.863138,-0.7573 11.499918,11.49993 0 0 1 -0.78293,-0.8406 11.499918,11.49993 0 0 1 -0.69628,-0.9145 11.499918,11.49993 0 0 1 -0.6000219,-0.9821 11.499918,11.49993 0 0 1 -0.5005556,-1.0332 11.499918,11.49993 0 0 1 -0.3946587,-1.0813 11.499918,11.49993 0 0 1 -0.2855731,-1.1131 11.499918,11.49993 0 0 1 -0.1700684,-1.1363 11.499918,11.49993 0 0 1 -0.057815,-1.1484 11.499918,11.49993 0 0 1 0.02896,-0.815 11.499918,11.49993 0 0 1 0.137993,-1.1393 11.499918,11.49993 0 0 1 0.2534874,-1.1228 11.499918,11.49993 0 0 1 0.3625833,-1.0909 11.499918,11.49993 0 0 1 0.4684691,-1.0493 11.499918,11.49993 0 0 1 0.5711469,-0.9945 11.499918,11.49993 0 0 1 0.670613,-0.9372 11.499918,11.49993 0 0 1 0.757242,-0.8628 11.499918,11.49993 0 0 1 0.840671,-0.7831 11.499918,11.49993 0 0 1 0.914483,-0.6964 11.499918,11.49993 0 0 1 0.981863,-0.5998 11.499918,11.49993 0 0 1 1.033197,-0.5007 11.499918,11.49993 0 0 1 1.08132,-0.3948 11.499918,11.49993 0 0 1 1.113406,-0.2856 11.499918,11.49993 0 0 1 1.135873,-0.1699 11.499918,11.49993 0 0 1 1.148712,-0.057 11.499918,11.49993 0 0 1 0.814995,0.029 11.499918,11.49993 0 0 1 1.139093,0.138 11.499918,11.49993 0 0 1 1.123045,0.2535 11.499918,11.49993 0 0 1 1.09095,0.3624 11.499918,11.49993 0 0 1 1.049234,0.4688 11.499918,11.49993 0 0 1 0.994692,0.5708 11.499918,11.49993 0 0 1 0.936928,0.6707 11.499918,11.49993 0 0 1 0.863139,0.7574 11.499918,11.49993 0 0 1 0.782919,0.8407 11.499918,11.49993 0 0 1 0.69629,0.9143 11.499918,11.49993 0 0 1 0.600033,0.9818 11.499918,11.49993 0 0 1 0.500545,1.0333 11.499918,11.49993 0 0 1 0.39467,1.0814 11.499918,11.49993 0 0 1 0.285573,1.1133 11.499918,11.49993 0 0 1 0.170058,1.1359 11.499918,11.49993 0 0 1 0.05782,1.1489 11.499918,11.49993 0 0 1 -0.02896,0.8148 11.499918,11.49993 0 0 1 -0.138004,1.1391 11.499918,11.49993 0 0 1 -0.253497,1.123 11.499918,11.49993 0 0 1 -0.362573,1.0911 11.499918,11.49993 0 0 1 -0.46848,1.0493 11.499918,11.49993 0 0 1 -0.571147,0.9946 11.499918,11.49993 0 0 1 -0.670603,0.9371 11.499918,11.49993 0 0 1 -0.757262,0.8629 11.499918,11.49993 0 0 1 -0.840682,0.783 11.499918,11.49993 0 0 1 -0.914462,0.6961 11.499918,11.49993 0 0 1 -0.981853,0.6002 11.499918,11.49993 0 0 1 -1.033196,0.5004 11.499918,11.49993 0 0 1 -1.081321,0.3949 11.499918,11.49993 0 0 1 -1.113416,0.2855 11.499918,11.49993 0 0 1 -1.135874,0.1701 11.499918,11.49993 0 0 1 -1.148711,0.058 z"
         id="path4428"
         inkscape:connector-curvature="0" />
      <path
         inkscape:connector-curvature="0"
         id="path4426"
         d="m 11.999988,1043.8612 a 11.499917,11.49967 0 0 1 -0.815015,-0.029 11.499917,11.49967 0 0 1 -1.139073,-0.138 11.499917,11.49967 0 0 1 -1.1230447,-0.2536 11.499917,11.49967 0 0 1 -1.0909491,-0.3626 11.499917,11.49967 0 0 1 -1.0492342,-0.4685 11.499917,11.49967 0 0 1 -0.9946916,-0.5709 11.499917,11.49967 0 0 1 -0.9369393,-0.6706 11.499917,11.49967 0 0 1 -0.8631282,-0.7573 11.499917,11.49967 0 0 1 -0.7829293,-0.8406 11.499917,11.49967 0 0 1 -0.6962904,-0.9145 11.499917,11.49967 0 0 1 -0.600012,-0.9821 11.499917,11.49967 0 0 1 -0.5005555,-1.0331 11.499917,11.49967 0 0 1 -0.394669,-1.0813 11.499917,11.49967 0 0 1 -0.2855732,-1.1131 11.499917,11.49967 0 0 1 -0.1700684,-1.1363 A 11.499917,11.49967 0 0 1 0.5,1032.3611 a 11.499917,11.49967 0 0 1 0.02896,-0.815 11.499917,11.49967 0 0 1 0.137993,-1.1393 11.499917,11.49967 0 0 1 0.2534873,-1.1228 11.499917,11.49967 0 0 1 0.3625728,-1.0908 11.499917,11.49967 0 0 1 0.4684696,-1.0493 11.499917,11.49967 0 0 1 0.5711464,-0.9945 11.499917,11.49967 0 0 1 0.6706238,-0.9372 11.499917,11.49967 0 0 1 0.7572419,-0.8628 11.499917,11.49967 0 0 1 0.8406713,-0.783 11.499917,11.49967 0 0 1 0.9144718,-0.6964 11.499917,11.49967 0 0 1 0.9818635,-0.5998 11.499917,11.49967 0 0 1 1.0331967,-0.5007 11.499917,11.49967 0 0 1 1.0813201,-0.3948 11.499917,11.49967 0 0 1 1.1134058,-0.2856 11.499917,11.49967 0 0 1 1.135884,-0.1699 11.499917,11.49967 0 0 1 1.148711,-0.057 11.499917,11.49967 0 0 1 0.814995,0.029 11.499917,11.49967 0 0 1 1.139093,0.138 11.499917,11.49967 0 0 1 1.123046,0.2535 11.499917,11.49967 0 0 1 1.090948,0.3624 11.499917,11.49967 0 0 1 1.049225,0.4688 11.499917,11.49967 0 0 1 0.994702,0.5708 11.499917,11.49967 0 0 1 0.936929,0.6707 11.499917,11.49967 0 0 1 0.863127,0.7573 11.499917,11.49967 0 0 1 0.78293,0.8407 11.499917,11.49967 0 0 1 0.69628,0.9143 11.499917,11.49967 0 0 1 0.600032,0.9818 11.499917,11.49967 0 0 1 0.500546,1.0333 11.499917,11.49967 0 0 1 0.394669,1.0813 11.499917,11.49967 0 0 1 0.285583,1.1133 11.499917,11.49967 0 0 1 0.170058,1.1359 11.499917,11.49967 0 0 1 0.05782,1.1489 11.499917,11.49967 0 0 1 -0.02896,0.8147 11.499917,11.49967 0 0 1 -0.138014,1.1391 11.499917,11.49967 0 0 1 -0.253487,1.123 11.499917,11.49967 0 0 1 -0.362573,1.0911 11.499917,11.49967 0 0 1 -0.468481,1.0492 11.499917,11.49967 0 0 1 -0.571157,0.9946 11.499917,11.49967 0 0 1 -0.670602,0.9371 11.499917,11.49967 0 0 1 -0.757253,0.8629 11.499917,11.49967 0 0 1 -0.840681,0.783 11.499917,11.49967 0 0 1 -0.914472,0.696 11.499917,11.49967 0 0 1 -0.981843,0.6002 11.499917,11.49967 0 0 1 -1.033196,0.5004 11.499917,11.49967 0 0 1 -1.081331,0.3949 11.499917,11.49967 0 0 1 -1.113416,0.2855 11.499917,11.49967 0 0 1 -1.135863,0.1701 11.499917,11.49967 0 0 1 -1.148712,0.058 z"
         style="opacity:0.6;fill:#000000;fill-opacity:1;fill-rule:nonzero;stroke:#ffffff;stroke-width:1;stroke-linecap:round;stroke-linejoin:miter;stroke-miterlimit:4;stroke-dasharray:none;stroke-dashoffset:0;stroke-opacity:0.76862745" />
    </g>
  </g>
</svg>
