<?xml version="1.0" encoding="UTF-8" standalone="no"?>
<!-- Created with Inkscape (http://www.inkscape.org/) -->

<svg
   xmlns:dc="http://purl.org/dc/elements/1.1/"
   xmlns:cc="http://creativecommons.org/ns#"
   xmlns:rdf="http://www.w3.org/1999/02/22-rdf-syntax-ns#"
   xmlns:svg="http://www.w3.org/2000/svg"
   xmlns="http://www.w3.org/2000/svg"
   xmlns:sodipodi="http://sodipodi.sourceforge.net/DTD/sodipodi-0.dtd"
   xmlns:inkscape="http://www.inkscape.org/namespaces/inkscape"
   width="32"
   height="32"
   viewBox="0 0 31.999999 31.999998"
   id="svg4413"
   version="1.1"
   inkscape:version="0.91 r13725"
   sodipodi:docname="play.svg">
  <defs
     id="defs4415" />
  <sodipodi:namedview
     id="base"
     pagecolor="#e8e8e0"
     bordercolor="#666666"
     borderopacity="1.0"
     inkscape:pageopacity="0"
     inkscape:pageshadow="2"
     inkscape:zoom="6.7556944"
     inkscape:cx="36.561748"
     inkscape:cy="33.009189"
     inkscape:document-units="px"
     inkscape:current-layer="layer1"
     showgrid="true"
     units="px">
    <inkscape:grid
       type="xygrid"
       id="grid4421"
       spacingx="2.0000001"
       spacingy="2.0000001" />
  </sodipodi:namedview>
  <metadata
     id="metadata4418">
    <rdf:RDF>
      <cc:Work
         rdf:about="">
        <dc:format>image/svg+xml</dc:format>
        <dc:type
           rdf:resource="http://purl.org/dc/dcmitype/StillImage" />
        <dc:title />
      </cc:Work>
    </rdf:RDF>
  </metadata>
  <g
     inkscape:label="Layer 1"
     inkscape:groupmode="layer"
     id="layer1"
     transform="translate(0,-1020.3622)">
    <path
       style="opacity:0.8;fill:#000000;fill-opacity:1;fill-rule:nonzero;stroke:#ffffff;stroke-width:0.99999994;stroke-linecap:round;stroke-linejoin:miter;stroke-miterlimit:4;stroke-dasharray:none;stroke-dashoffset:0;stroke-opacity:0.76862745"
       d="m 6.1833718,1020.9987 c -0.9591708,-0.1816 -1.6947515,-0.1736 -2.1249187,0.074 -0.8603238,0.4965 -1.5048868,2.532 -1.9350436,5.3363 -0.4301671,2.8038 -0.6483894,6.3804 -0.6483894,9.9534 0,3.573 0.2182327,7.1495 0.6483894,9.9535 0.4301568,2.8037 1.0747198,4.8376 1.9350436,5.3342 0.860334,0.4967 2.9439684,0.039 5.5869919,-0.9917 2.643032,-1.0295 5.840086,-2.6311 8.933948,-4.4173 3.093863,-1.7865 6.080772,-3.7615 8.293637,-5.5362 2.212855,-1.7746 3.651948,-3.3491 3.651948,-4.3425 0,-0.9934 -1.439093,-2.5676 -3.651948,-4.3425 -2.212865,-1.7746 -5.199785,-3.7501 -8.293637,-5.5361 -3.093873,-1.7864 -6.290916,-3.3883 -8.933948,-4.4173 -1.3215061,-0.5148 -2.5029128,-0.8869 -3.4620732,-1.0685 z m 3.8014182,10.2826 c 0.284317,-0.1653 0.972719,-0.012 1.846166,0.3292 0.873458,0.3422 1.930628,0.8747 2.95307,1.4684 1.022452,0.5936 2.00969,1.2504 2.74098,1.84 0.731299,0.59 1.20789,1.1141 1.20789,1.4442 0,0.3301 -0.476591,0.8545 -1.20789,1.4442 -0.73129,0.5896 -1.718528,1.2441 -2.74098,1.8379 -1.022442,0.5936 -2.079612,1.1263 -2.95307,1.4685 -0.873447,0.3464 -1.561849,0.4971 -1.846166,0.3312 -0.284316,-0.1651 -0.4961165,-0.8416 -0.6382852,-1.7734 -0.1421583,-0.9319 -0.2161229,-2.1208 -0.2161229,-3.3084 0,-1.1873 0.073944,-2.3764 0.2161229,-3.3084 0.1421584,-0.9318 0.3539692,-1.6092 0.6382852,-1.7734 z"
       id="path4241"
       inkscape:connector-curvature="0" />
  </g>
</svg>
