<?xml version="1.0" encoding="UTF-8" standalone="no"?>
<!-- Created with Inkscape (http://www.inkscape.org/) -->

<svg
   xmlns:dc="http://purl.org/dc/elements/1.1/"
   xmlns:cc="http://creativecommons.org/ns#"
   xmlns:rdf="http://www.w3.org/1999/02/22-rdf-syntax-ns#"
   xmlns:svg="http://www.w3.org/2000/svg"
   xmlns="http://www.w3.org/2000/svg"
   xmlns:sodipodi="http://sodipodi.sourceforge.net/DTD/sodipodi-0.dtd"
   xmlns:inkscape="http://www.inkscape.org/namespaces/inkscape"
   width="32"
   height="32"
   viewBox="0 0 31.999999 31.999998"
   id="svg4413"
   version="1.1"
   inkscape:version="0.91 r13725"
   sodipodi:docname="redo.svg">
  <defs
     id="defs4415" />
  <sodipodi:namedview
     id="base"
     pagecolor="#e8e8e0"
     bordercolor="#666666"
     borderopacity="1.0"
     inkscape:pageopacity="0"
     inkscape:pageshadow="2"
     inkscape:zoom="8.4631843"
     inkscape:cx="10.318538"
     inkscape:cy="16"
     inkscape:document-units="px"
     inkscape:current-layer="layer1"
     showgrid="true"
     units="px">
    <inkscape:grid
       type="xygrid"
       id="grid4421"
       spacingx="2.0000001"
       spacingy="2.0000001" />
  </sodipodi:namedview>
  <metadata
     id="metadata4418">
    <rdf:RDF>
      <cc:Work
         rdf:about="">
        <dc:format>image/svg+xml</dc:format>
        <dc:type
           rdf:resource="http://purl.org/dc/dcmitype/StillImage" />
        <dc:title />
      </cc:Work>
    </rdf:RDF>
  </metadata>
  <g
     inkscape:label="Layer 1"
     inkscape:groupmode="layer"
     id="layer1"
     transform="translate(0,-1020.3622)">
    <path
       style="opacity:0.8;fill:#000000;fill-opacity:1;fill-rule:nonzero;stroke:#ffffff;stroke-width:0.99999994;stroke-linecap:round;stroke-linejoin:miter;stroke-miterlimit:4;stroke-dasharray:none;stroke-dashoffset:0;stroke-opacity:0.76862745"
       d="m 16.372221,1022.1616 c 0.970424,-5e-4 2.5089,1.4042 4.241712,3.5649 1.73252,2.1612 3.655542,5.079 5.399797,8.1003 1.744454,3.0212 3.305633,6.151 4.310763,8.7318 1.004626,2.582 1.453646,4.6188 0.968687,5.4587 -0.485008,0.8401 -2.474582,1.4719 -5.212372,1.8921 -2.737786,0.42 -6.225519,0.6269 -9.714505,0.6273 -3.488628,-1e-4 -7.0720923,0.2035 -9.7145072,-0.6273 -12.8065994,-4.0272 -2.3768988,-3.6487 2.1721522,-3.6419 2.088482,0 4.177021,-0.1276 5.816077,-0.3807 0.819503,-0.1264 1.52848,-0.2844 2.067589,-0.4735 0.539107,-0.1892 0.908142,-0.411 1.053523,-0.6628 0.14533,-0.2518 0.151086,-0.6816 0.04537,-1.243 -0.10571,-0.5613 -0.321436,-1.2548 -0.621459,-2.028 -0.600401,-1.5458 -1.533843,-3.4189 -2.576596,-5.2281 -1.042602,-1.8093 -2.193621,-3.557 -3.229618,-4.8511 -0.518095,-0.6468 -1.006194,-1.1807 -1.4382364,-1.5526 -0.4963376,-0.8865 1.3940534,-3.1072 2.1918794,-4.1173 1.732919,-2.1611 3.270871,-3.5688 4.23974,-3.5688 z"
       id="path4303"
       inkscape:connector-curvature="0"
       sodipodi:nodetypes="cccccccsccscscccccc" />
  </g>
</svg>
