<?xml version="1.0" encoding="UTF-8" standalone="no"?>
<!-- Created with Inkscape (http://www.inkscape.org/) -->

<svg
   xmlns:dc="http://purl.org/dc/elements/1.1/"
   xmlns:cc="http://creativecommons.org/ns#"
   xmlns:rdf="http://www.w3.org/1999/02/22-rdf-syntax-ns#"
   xmlns:svg="http://www.w3.org/2000/svg"
   xmlns="http://www.w3.org/2000/svg"
   xmlns:sodipodi="http://sodipodi.sourceforge.net/DTD/sodipodi-0.dtd"
   xmlns:inkscape="http://www.inkscape.org/namespaces/inkscape"
   width="32"
   height="32"
   viewBox="0 0 31.999999 31.999998"
   id="svg4413"
   version="1.1"
   inkscape:version="0.91 r13725"
   sodipodi:docname="reload.svg">
  <defs
     id="defs4415" />
  <sodipodi:namedview
     id="base"
     pagecolor="#e8e8e0"
     bordercolor="#666666"
     borderopacity="1.0"
     inkscape:pageopacity="0"
     inkscape:pageshadow="2"
     inkscape:zoom="4"
     inkscape:cx="21.233074"
     inkscape:cy="21.013055"
     inkscape:document-units="px"
     inkscape:current-layer="layer1"
     showgrid="false"
     units="px">
    <inkscape:grid
       type="xygrid"
       id="grid4421"
       spacingx="2.0000001"
       spacingy="2.0000001" />
  </sodipodi:namedview>
  <metadata
     id="metadata4418">
    <rdf:RDF>
      <cc:Work
         rdf:about="">
        <dc:format>image/svg+xml</dc:format>
        <dc:type
           rdf:resource="http://purl.org/dc/dcmitype/StillImage" />
        <dc:title />
      </cc:Work>
    </rdf:RDF>
  </metadata>
  <g
     inkscape:label="Layer 1"
     inkscape:groupmode="layer"
     id="layer1"
     transform="translate(0,-1020.3622)">
    <g
       id="g11810"
       style="opacity:0.8">
      <path
         inkscape:connector-curvature="0"
         id="path4282"
         d="m 16,1020.8622 a 15.499998,15.499998 0 0 0 -15.50000041,15.5 A 15.499998,15.499998 0 0 0 16,1051.8622 15.499998,15.499998 0 0 0 31.499999,1036.3622 15.499998,15.499998 0 0 0 16,1020.8622 Z m 0,8.2667 a 7.2333327,7.2333327 0 0 1 0.722527,0.036 7.2333327,7.2333327 0 0 1 0.714457,0.1069 7.2333327,7.2333327 0 0 1 0.700321,0.1797 7.2333327,7.2333327 0 0 1 0.68015,0.2482 7.2333327,7.2333327 0 0 1 0.649863,0.3149 7.2333327,7.2333327 0 0 1 0.617582,0.3773 7.2333327,7.2333327 0 0 1 0.575195,0.438 7.2333327,7.2333327 0 0 1 0.528777,0.4925 7.2333327,7.2333327 0 0 1 0.476305,0.5429 7.2333327,7.2333327 0 0 1 0.421807,0.5893 7.2333327,7.2333327 0 0 1 0.359248,0.6257 7.2333327,7.2333327 0 0 1 0.294655,0.6599 7.2333327,7.2333327 0 0 1 0.228067,0.6862 7.2333327,7.2333327 0 0 1 0.159433,0.7064 7.2333327,7.2333327 0 0 1 0.0868,0.7165 7.2333327,7.2333327 0 0 1 0.01819,0.5126 7.2333327,7.2333327 0 0 1 -0.03637,0.7225 7.2333327,7.2333327 0 0 1 -0.106961,0.7145 7.2333327,7.2333327 0 0 1 -0.179624,0.7003 7.2333327,7.2333327 0 0 1 -0.248248,0.6801 7.2333327,7.2333327 0 0 1 -0.314836,0.6499 7.2333327,7.2333327 0 0 1 -0.377415,0.6176 7.2333327,7.2333327 0 0 1 -0.437957,0.5751 7.2333327,7.2333327 0 0 1 -0.492446,0.5288 7.2333327,7.2333327 0 0 1 -0.542903,0.4764 7.2333327,7.2333327 0 0 1 -0.58932,0.4218 7.2333327,7.2333327 0 0 1 -0.625652,0.3592 7.2333327,7.2333327 0 0 1 -0.659959,0.2947 7.2333327,7.2333327 0 0 1 -0.686196,0.228 7.2333327,7.2333327 0 0 1 -0.706386,0.1595 7.2333327,7.2333327 0 0 1 -0.716472,0.087 7.2333327,7.2333327 0 0 1 -0.512626,0.019 7.2333327,7.2333327 0 0 1 -0.722528,-0.036 7.2333327,7.2333327 0 0 1 -0.714457,-0.1069 7.2333327,7.2333327 0 0 1 -0.700321,-0.1796 7.2333327,7.2333327 0 0 1 -0.68014,-0.2483 7.2333327,7.2333327 0 0 1 -0.649873,-0.3149 7.2333327,7.2333327 0 0 1 -0.617582,-0.3774 7.2333327,7.2333327 0 0 1 -0.575195,-0.4379 7.2333327,7.2333327 0 0 1 -0.528777,-0.4925 7.2333327,7.2333327 0 0 1 -0.476295,-0.5429 7.2333327,7.2333327 0 0 1 -0.4218175,-0.5893 7.2333327,7.2333327 0 0 1 -0.359238,-0.6257 7.2333327,7.2333327 0 0 1 -0.2946653,-0.6599 7.2333327,7.2333327 0 0 1 -0.2280566,-0.6862 7.2333327,7.2333327 0 0 1 -0.1594433,-0.7064 7.2333327,7.2333327 0 0 1 -0.0868,-0.7165 7.2333327,7.2333327 0 0 1 -0.018187,-0.5126 7.2333327,7.2333327 0 0 1 0.036373,-0.7226 7.2333327,7.2333327 0 0 1 0.1069707,-0.7144 7.2333327,7.2333327 0 0 1 0.179614,-0.7003 7.2333327,7.2333327 0 0 1 0.248248,-0.6801 7.2333327,7.2333327 0 0 1 0.3148455,-0.6499 7.2333327,7.2333327 0 0 1 0.3774055,-0.6176 7.2333327,7.2333327 0 0 1 0.437957,-0.5752 7.2333327,7.2333327 0 0 1 0.492446,-0.5287 7.2333327,7.2333327 0 0 1 0.542903,-0.4764 7.2333327,7.2333327 0 0 1 0.58932,-0.4218 7.2333327,7.2333327 0 0 1 0.625652,-0.3592 7.2333327,7.2333327 0 0 1 0.65997,-0.2947 7.2333327,7.2333327 0 0 1 0.686195,-0.2281 7.2333327,7.2333327 0 0 1 0.706376,-0.1594 7.2333327,7.2333327 0 0 1 0.716472,-0.087 7.2333327,7.2333327 0 0 1 0.512627,-0.019 z"
         style="opacity:1;fill:#000000;fill-opacity:1;fill-rule:nonzero;stroke:#ffffff;stroke-width:0.99999994;stroke-linecap:round;stroke-linejoin:miter;stroke-miterlimit:4;stroke-dasharray:none;stroke-dashoffset:0;stroke-opacity:0.76862745" />
      <path
         sodipodi:nodetypes="sccsssssccss"
         inkscape:connector-curvature="0"
         id="path6244"
         d="m 4.184881,1021.6544 c 0.289627,-0.4274 0.5689968,-0.6976 0.8215277,-0.7666 1.4671102,0.5654 4.4088683,1.6149 3.4933882,2.9834 -0.278744,0.6388 -0.5539159,1.4743 -0.7783958,2.3238 -0.2244797,0.8497 -0.3982163,1.714 -0.4718459,2.4085 -0.073706,0.6945 -0.047426,1.2192 0.1265351,1.3932 0.1736555,0.1737 0.698394,0.2001 1.3927785,0.1263 0.6945381,-0.074 1.5589212,-0.2472 2.4083622,-0.4718 0.849518,-0.2245 1.684807,-0.4998 2.323555,-0.7785 1.137985,-1.1168 3.145093,2.6182 2.983177,3.4937 -0.54007,2.0325 -14.1399257,5.6471 -15.6319412,4.155 -1.30574295,-1.3059 1.2986728,-11.8827 3.3314828,-14.8684 z"
         style="opacity:1;fill:#000000;fill-opacity:1;fill-rule:nonzero;stroke:#ffffff;stroke-width:0.99999988;stroke-linecap:round;stroke-linejoin:miter;stroke-miterlimit:4;stroke-dasharray:none;stroke-dashoffset:0;stroke-opacity:1" />
      <path
         style="opacity:1;fill:#000000;fill-opacity:1;fill-rule:nonzero;stroke:#ffffff;stroke-width:0.99999994;stroke-linecap:round;stroke-linejoin:miter;stroke-miterlimit:4;stroke-dasharray:none;stroke-dashoffset:0;stroke-opacity:1"
         d="m 27.815072,1051.07 c -0.2896,0.4273 -0.568926,0.6976 -0.821434,0.7666 -1.46714,-0.5654 -4.40888,-1.6149 -3.493473,-2.9835 0.278786,-0.6388 0.554003,-1.4743 0.778394,-2.3238 0.2245,-0.8496 0.398281,-1.7139 0.471925,-2.4085 0.07353,-0.6945 0.04758,-1.2192 -0.126525,-1.3932 -0.173673,-0.1737 -0.698478,-0.2001 -1.392847,-0.1263 -0.694477,0.073 -1.558951,0.2472 -2.408393,0.4719 -0.849442,0.2244 -1.684826,0.4997 -2.323502,0.7784 -1.137961,1.1168 -3.145153,-2.6182 -2.983159,-3.4937 0.540053,-2.0324 14.139886,-5.6471 15.631898,-4.155 1.305794,1.3059 -1.298657,11.8828 -3.331478,14.8685 z"
         id="path6265"
         inkscape:connector-curvature="0"
         sodipodi:nodetypes="sccsssssccss" />
    </g>
  </g>
</svg>
