<?xml version="1.0" encoding="UTF-8" standalone="no"?>
<!-- Created with Inkscape (http://www.inkscape.org/) -->

<svg
   xmlns:dc="http://purl.org/dc/elements/1.1/"
   xmlns:cc="http://creativecommons.org/ns#"
   xmlns:rdf="http://www.w3.org/1999/02/22-rdf-syntax-ns#"
   xmlns:svg="http://www.w3.org/2000/svg"
   xmlns="http://www.w3.org/2000/svg"
   xmlns:sodipodi="http://sodipodi.sourceforge.net/DTD/sodipodi-0.dtd"
   xmlns:inkscape="http://www.inkscape.org/namespaces/inkscape"
   width="32"
   height="32"
   viewBox="0 0 31.999999 31.999998"
   id="svg4413"
   version="1.1"
   inkscape:version="0.91 r13725"
   sodipodi:docname="save.svg">
  <defs
     id="defs4415" />
  <sodipodi:namedview
     id="base"
     pagecolor="#e8e8e0"
     bordercolor="#666666"
     borderopacity="1.0"
     inkscape:pageopacity="0"
     inkscape:pageshadow="2"
     inkscape:zoom="8.4631843"
     inkscape:cx="-5.7510636"
     inkscape:cy="21.013055"
     inkscape:document-units="px"
     inkscape:current-layer="layer1"
     showgrid="true"
     units="px">
    <inkscape:grid
       type="xygrid"
       id="grid4421"
       spacingx="2.0000001"
       spacingy="2.0000001" />
  </sodipodi:namedview>
  <metadata
     id="metadata4418">
    <rdf:RDF>
      <cc:Work
         rdf:about="">
        <dc:format>image/svg+xml</dc:format>
        <dc:type
           rdf:resource="http://purl.org/dc/dcmitype/StillImage" />
        <dc:title />
      </cc:Work>
    </rdf:RDF>
  </metadata>
  <g
     inkscape:label="Layer 1"
     inkscape:groupmode="layer"
     id="layer1"
     transform="translate(0,-1020.3622)">
    <g
       id="g11803"
       style="opacity:0.8">
      <path
         inkscape:connector-curvature="0"
         id="path4346"
         d="m 18.000023,1024.8622 a 13.499897,13.499859 0 0 0 -0.956758,0.034 13.499897,13.499859 0 0 0 -1.337163,0.162 13.499897,13.499859 0 0 0 -1.318366,0.2976 13.499897,13.499859 0 0 0 -1.280679,0.4257 13.499897,13.499859 0 0 0 -1.231703,0.5497 13.499897,13.499859 0 0 0 -1.167689,0.6705 13.499897,13.499859 0 0 0 -1.0998749,0.7872 13.499897,13.499859 0 0 0 -1.0132418,0.889 13.499897,13.499859 0 0 0 -0.9190909,0.9871 13.499897,13.499859 0 0 0 -0.8173793,1.0733 13.499897,13.499859 0 0 0 -0.7043687,1.1528 13.499897,13.499859 0 0 0 -0.5876092,1.2128 13.499897,13.499859 0 0 0 -0.4632996,1.2693 13.499897,13.499859 0 0 0 -0.3352411,1.3069 13.499897,13.499859 0 0 0 -0.199643,1.3338 13.499897,13.499859 0 0 0 -0.067918,1.3481 13.499897,13.499859 0 0 0 0.033959,0.9569 13.499897,13.499859 0 0 0 0.161997,1.3372 13.499897,13.499859 0 0 0 0.2975744,1.3183 13.499897,13.499859 0 0 0 0.4256329,1.2807 13.499897,13.499859 0 0 0 0.5499424,1.2316 13.499897,13.499859 0 0 0 0.6704718,1.1677 13.499897,13.499859 0 0 0 0.7872522,1.1 13.499897,13.499859 0 0 0 0.8889325,1.0131 13.499897,13.499859 0 0 0 0.9868744,0.9191 13.499897,13.499859 0 0 0 1.0735169,0.8175 13.499897,13.499859 0 0 0 1.15262,0.704 13.499897,13.499859 0 0 0 1.212885,0.5878 13.499897,13.499859 0 0 0 1.26938,0.4635 13.499897,13.499859 0 0 0 1.307037,0.3351 13.499897,13.499859 0 0 0 1.333424,0.1997 13.499897,13.499859 0 0 0 1.348483,0.068 13.499897,13.499859 0 0 0 0.956737,-0.033 13.499897,13.499859 0 0 0 1.337195,-0.162 13.499897,13.499859 0 0 0 1.318356,-0.2972 13.499897,13.499859 0 0 0 1.280679,-0.4258 13.499897,13.499859 0 0 0 1.231703,-0.5502 13.499897,13.499859 0 0 0 1.167689,-0.6702 13.499897,13.499859 0 0 0 1.099874,-0.7874 13.499897,13.499859 0 0 0 1.013242,-0.889 13.499897,13.499859 0 0 0 0.919081,-0.9869 13.499897,13.499859 0 0 0 0.817379,-1.0733 13.499897,13.499859 0 0 0 0.70439,-1.1527 13.499897,13.499859 0 0 0 0.587588,-1.2129 13.499897,13.499859 0 0 0 0.46331,-1.2695 13.499897,13.499859 0 0 0 0.335241,-1.3069 13.499897,13.499859 0 0 0 0.199633,-1.3335 13.499897,13.499859 0 0 0 0.06792,-1.3486 13.499897,13.499859 0 0 0 -0.03396,-0.9566 13.499897,13.499859 0 0 0 -0.162008,-1.3371 13.499897,13.499859 0 0 0 -0.297574,-1.3183 13.499897,13.499859 0 0 0 -0.425633,-1.2809 13.499897,13.499859 0 0 0 -0.549953,-1.2317 13.499897,13.499859 0 0 0 -0.670482,-1.1676 13.499897,13.499859 0 0 0 -0.787231,-1.0998 13.499897,13.499859 0 0 0 -0.888953,-1.0134 13.499897,13.499859 0 0 0 -0.986885,-0.919 13.499897,13.499859 0 0 0 -1.073507,-0.8172 13.499897,13.499859 0 0 0 -1.1526,-0.7045 13.499897,13.499859 0 0 0 -1.212885,-0.5876 13.499897,13.499859 0 0 0 -1.26938,-0.4634 13.499897,13.499859 0 0 0 -1.307057,-0.3353 13.499897,13.499859 0 0 0 -1.333404,-0.1994 13.499897,13.499859 0 0 0 -1.348493,-0.068 z"
         style="opacity:1;fill:#000000;fill-opacity:1;fill-rule:nonzero;stroke:#ffffff;stroke-width:0.99999994;stroke-linecap:round;stroke-linejoin:miter;stroke-miterlimit:4;stroke-dasharray:none;stroke-dashoffset:0;stroke-opacity:0.76862745" />
      <path
         style="opacity:1;fill:#000000;fill-opacity:1;fill-rule:nonzero;stroke:#ffffff;stroke-width:0.99999988;stroke-linecap:round;stroke-linejoin:miter;stroke-miterlimit:4;stroke-dasharray:none;stroke-dashoffset:0;stroke-opacity:0.76862745"
         d="m 16.442771,1022.1959 c -0.257028,-0.4443 -1.310397,-0.7772 -2.762109,-0.9992 -1.451594,-0.2221 -3.302119,-0.3345 -5.1518303,-0.3345 -1.8497112,0 -3.7004614,0.1127 -5.1520552,0.3345 -1.451476,0.222 -2.50484538,0.5549 -2.76199068,0.9992 -0.25713466,0.4441 -0.019496,1.5203 0.51359438,2.8849 0.5329941,1.3647 1.3618581,3.0163 2.2865423,4.6138 0.9249091,1.5974 1.9467954,3.139 2.8655129,4.2816 0.9187068,1.1425 1.734127,1.886 2.2483963,1.886 0.51428,0 1.3295821,-0.7435 2.2484073,-1.886 0.918707,-1.1426 1.940593,-2.6842 2.865277,-4.2816 0.924802,-1.5975 1.753773,-3.2491 2.286553,-4.6138 0.532994,-1.3646 0.770836,-2.4408 0.513702,-2.8849 z"
         id="path4348"
         inkscape:connector-curvature="0" />
    </g>
  </g>
</svg>
