<?xml version="1.0" encoding="UTF-8" standalone="no"?>
<!-- Created with Inkscape (http://www.inkscape.org/) -->

<svg
   xmlns:dc="http://purl.org/dc/elements/1.1/"
   xmlns:cc="http://creativecommons.org/ns#"
   xmlns:rdf="http://www.w3.org/1999/02/22-rdf-syntax-ns#"
   xmlns:svg="http://www.w3.org/2000/svg"
   xmlns="http://www.w3.org/2000/svg"
   xmlns:sodipodi="http://sodipodi.sourceforge.net/DTD/sodipodi-0.dtd"
   xmlns:inkscape="http://www.inkscape.org/namespaces/inkscape"
   width="32"
   height="32"
   viewBox="0 0 31.999999 31.999998"
   id="svg4413"
   version="1.1"
   inkscape:version="0.91 r13725"
   sodipodi:docname="save-as.svg">
  <defs
     id="defs4415" />
  <sodipodi:namedview
     id="base"
     pagecolor="#e8e8e0"
     bordercolor="#666666"
     borderopacity="1.0"
     inkscape:pageopacity="0"
     inkscape:pageshadow="2"
     inkscape:zoom="16"
     inkscape:cx="7.5"
     inkscape:cy="21.013055"
     inkscape:document-units="px"
     inkscape:current-layer="layer1"
     showgrid="true"
     units="px">
    <inkscape:grid
       type="xygrid"
       id="grid4421"
       spacingx="0.99999997"
       spacingy="0.99999994"
       empspacing="4" />
  </sodipodi:namedview>
  <metadata
     id="metadata4418">
    <rdf:RDF>
      <cc:Work
         rdf:about="">
        <dc:format>image/svg+xml</dc:format>
        <dc:type
           rdf:resource="http://purl.org/dc/dcmitype/StillImage" />
        <dc:title />
      </cc:Work>
    </rdf:RDF>
  </metadata>
  <g
     inkscape:label="Layer 1"
     inkscape:groupmode="layer"
     id="layer1"
     transform="translate(0,-1020.3622)">
    <g
       id="g11827"
       style="opacity:0.8">
      <g
         style="stroke:#ffffff;stroke-opacity:0.76862745"
         transform="translate(4.2947442e-8,0.63290458)"
         id="g11823">
        <path
           inkscape:connector-curvature="0"
           style="opacity:1;fill:#000000;fill-opacity:1;fill-rule:nonzero;stroke:#ffffff;stroke-width:0.99999994;stroke-linecap:round;stroke-linejoin:round;stroke-miterlimit:4;stroke-dasharray:none;stroke-dashoffset:0;stroke-opacity:0.76862745"
           d="m 16.500001,1026.2264 a 12.999896,12.665409 0 0 0 -0.208984,0.024 12.999896,12.665409 0 0 0 -1.269532,0.2777 12.999896,12.665409 0 0 0 -1.232422,0.3996 12.999896,12.665409 0 0 0 -1.187501,0.5157 12.999896,12.665409 0 0 0 -1.123046,0.6297 12.999896,12.665409 0 0 0 -1.060547,0.7383 12.999896,12.665409 0 0 0 -0.9746095,0.8333 12.999896,12.665409 0 0 0 -0.8847656,0.9267 12.999896,12.665409 0 0 0 -0.7871094,1.0065 12.999896,12.665409 0 0 0 -0.6796875,1.0826 12.999896,12.665409 0 0 0 -0.5644531,1.1379 12.999896,12.665409 0 0 0 -0.4472657,1.1911 12.999896,12.665409 0 0 0 -0.3222656,1.2253 12.999896,12.665409 0 0 0 -0.1933594,1.252 12.999896,12.665409 0 0 0 -0.064453,1.2634 12.999896,12.665409 0 0 0 0.033203,0.8981 12.999896,12.665409 0 0 0 0.15625,1.2557 12.999896,12.665409 0 0 0 0.2851563,1.2349 12.999896,12.665409 0 0 0 0.4101562,1.2025 12.999896,12.665409 0 0 0 0.5292969,1.1549 12.999896,12.665409 0 0 0 0.6464844,1.096 12.999896,12.665409 0 0 0 0.7578125,1.0313 12.999896,12.665409 0 0 0 0.8554687,0.9514 12.999896,12.665409 0 0 0 0.9511718,0.8619 12.999896,12.665409 0 0 0 1.033203,0.7668 12.999896,12.665409 0 0 0 1.109375,0.6602 12.999896,12.665409 0 0 0 1.167969,0.5518 12.999896,12.665409 0 0 0 1.222657,0.4357 12.999896,12.665409 0 0 0 1.259766,0.3139 12.999896,12.665409 0 0 0 0.582031,0.084 l 0,-25.0035 z"
           id="path3452" />
        <path
           id="path11821"
           d="m 19.499999,1026.2264 a 12.999896,12.665409 0 0 1 0.208984,0.024 12.999896,12.665409 0 0 1 1.269532,0.2777 12.999896,12.665409 0 0 1 1.232422,0.3996 12.999896,12.665409 0 0 1 1.187501,0.5157 12.999896,12.665409 0 0 1 1.123046,0.6297 12.999896,12.665409 0 0 1 1.060547,0.7383 12.999896,12.665409 0 0 1 0.97461,0.8333 12.999896,12.665409 0 0 1 0.884765,0.9267 12.999896,12.665409 0 0 1 0.78711,1.0065 12.999896,12.665409 0 0 1 0.679687,1.0826 12.999896,12.665409 0 0 1 0.564453,1.1379 12.999896,12.665409 0 0 1 0.447266,1.1911 12.999896,12.665409 0 0 1 0.322266,1.2253 12.999896,12.665409 0 0 1 0.193359,1.252 12.999896,12.665409 0 0 1 0.06445,1.2634 12.999896,12.665409 0 0 1 -0.0332,0.8981 12.999896,12.665409 0 0 1 -0.15625,1.2557 12.999896,12.665409 0 0 1 -0.285156,1.2349 12.999896,12.665409 0 0 1 -0.410157,1.2025 12.999896,12.665409 0 0 1 -0.529296,1.1549 12.999896,12.665409 0 0 1 -0.646485,1.096 12.999896,12.665409 0 0 1 -0.757812,1.0313 12.999896,12.665409 0 0 1 -0.855469,0.9514 12.999896,12.665409 0 0 1 -0.951172,0.8619 12.999896,12.665409 0 0 1 -1.033203,0.7668 12.999896,12.665409 0 0 1 -1.109375,0.6602 12.999896,12.665409 0 0 1 -1.167969,0.5518 12.999896,12.665409 0 0 1 -1.222657,0.4357 12.999896,12.665409 0 0 1 -1.259766,0.3139 12.999896,12.665409 0 0 1 -0.582031,0.084 l 0,-25.0035 z"
           style="opacity:1;fill:#000000;fill-opacity:1;fill-rule:nonzero;stroke:#ffffff;stroke-width:0.99999994;stroke-linecap:round;stroke-linejoin:round;stroke-miterlimit:4;stroke-dasharray:none;stroke-dashoffset:0;stroke-opacity:0.76862745"
           inkscape:connector-curvature="0" />
      </g>
      <path
         style="opacity:1;fill:#000000;fill-opacity:1;fill-rule:nonzero;stroke:#ffffff;stroke-width:0.99999988;stroke-linecap:round;stroke-linejoin:miter;stroke-miterlimit:4;stroke-dasharray:none;stroke-dashoffset:0;stroke-opacity:0.76862746"
         d="m 16.442771,1022.1959 c -0.257028,-0.4443 -1.310397,-0.7772 -2.762109,-0.9992 -1.451594,-0.2221 -3.302119,-0.3345 -5.1518303,-0.3345 -1.8497112,0 -3.7004614,0.1127 -5.1520552,0.3345 -1.451476,0.222 -2.50484537,0.5549 -2.76199067,0.9992 -0.25713469,0.4441 -0.019496,1.5203 0.51359437,2.8849 0.5329941,1.3647 1.3618581,3.0163 2.2865423,4.6138 0.9249091,1.5974 1.9467954,3.139 2.8655129,4.2816 0.9187068,1.1425 1.734127,1.886 2.2483963,1.886 0.51428,0 1.3295823,-0.7435 2.2484073,-1.886 0.918707,-1.1426 1.940593,-2.6842 2.865277,-4.2816 0.924802,-1.5975 1.753773,-3.2491 2.286553,-4.6138 0.532994,-1.3646 0.770836,-2.4408 0.513702,-2.8849 z"
         id="path4348"
         inkscape:connector-curvature="0" />
    </g>
  </g>
</svg>
