<?xml version="1.0" encoding="UTF-8" standalone="no"?>
<!-- Created with Inkscape (http://www.inkscape.org/) -->

<svg
   xmlns:dc="http://purl.org/dc/elements/1.1/"
   xmlns:cc="http://creativecommons.org/ns#"
   xmlns:rdf="http://www.w3.org/1999/02/22-rdf-syntax-ns#"
   xmlns:svg="http://www.w3.org/2000/svg"
   xmlns="http://www.w3.org/2000/svg"
   xmlns:sodipodi="http://sodipodi.sourceforge.net/DTD/sodipodi-0.dtd"
   xmlns:inkscape="http://www.inkscape.org/namespaces/inkscape"
   width="32"
   height="32"
   viewBox="0 0 31.999999 31.999998"
   id="svg4413"
   version="1.1"
   inkscape:version="0.91 r13725"
   sodipodi:docname="save-all.svg">
  <defs
     id="defs4415" />
  <sodipodi:namedview
     id="base"
     pagecolor="#e8e8e0"
     bordercolor="#666666"
     borderopacity="1.0"
     inkscape:pageopacity="0"
     inkscape:pageshadow="2"
     inkscape:zoom="2.8284271"
     inkscape:cx="-32.083262"
     inkscape:cy="21.013055"
     inkscape:document-units="px"
     inkscape:current-layer="layer1"
     showgrid="true"
     units="px">
    <inkscape:grid
       type="xygrid"
       id="grid4421"
       spacingx="2.0000001"
       spacingy="2.0000001" />
  </sodipodi:namedview>
  <metadata
     id="metadata4418">
    <rdf:RDF>
      <cc:Work
         rdf:about="">
        <dc:format>image/svg+xml</dc:format>
        <dc:type
           rdf:resource="http://purl.org/dc/dcmitype/StillImage" />
        <dc:title />
      </cc:Work>
    </rdf:RDF>
  </metadata>
  <g
     inkscape:label="Layer 1"
     inkscape:groupmode="layer"
     id="layer1"
     transform="translate(0,-1020.3622)">
    <g
       id="g3499"
       style="opacity:0.8">
      <path
         style="opacity:1;fill:#000000;fill-opacity:1;fill-rule:nonzero;stroke:#ffffff;stroke-width:1.99999976;stroke-linecap:round;stroke-linejoin:miter;stroke-miterlimit:4;stroke-dasharray:none;stroke-dashoffset:0;stroke-opacity:1"
         d="m 15.89445,1022.607 c -0.23994,-0.4147 -1.22328,-0.7254 -2.57848,-0.9326 -1.35509,-0.2073 -3.08259,-0.3122 -4.80933,-0.3122 -1.72674,0 -3.45445,0.1052 -4.80954,0.3122 -1.35498,0.2072 -2.33832,0.5179 -2.57837,0.9326 -0.24004,0.4145 -0.0182,1.4189 0.47945,2.6926 0.49756,1.2737 1.27132,2.8152 2.13453,4.3062 0.86342,1.4909 1.81737,2.9297 2.67501,3.9961 0.85763,1.0664 1.61884,1.7603 2.09892,1.7603 0.48009,0 1.24119,-0.6939 2.09893,-1.7603 0.85763,-1.0664 1.81158,-2.5052 2.67479,-3.9961 0.86332,-1.491 1.63718,-3.0325 2.13454,-4.3062 0.49756,-1.2737 0.71959,-2.2781 0.47955,-2.6926 z"
         id="path4348"
         inkscape:connector-curvature="0" />
      <g
         id="g3404"
         style="">
        <path
           style="opacity:1;fill:#000000;fill-opacity:1;fill-rule:nonzero;stroke:#ffffff;stroke-width:1.99999976;stroke-linecap:round;stroke-linejoin:miter;stroke-miterlimit:4;stroke-dasharray:none;stroke-dashoffset:0;stroke-opacity:1"
           d="m 5.0000066,1043.363 a 3.9999689,3.9995093 0 0 0 -0.2834834,0.01 3.9999689,3.9995093 0 0 0 -0.3961965,0.048 3.9999689,3.9995093 0 0 0 -0.3906274,0.088 3.9999689,3.9995093 0 0 0 -0.3794602,0.1261 3.9999689,3.9995093 0 0 0 -0.3649489,0.1629 3.9999689,3.9995093 0 0 0 -0.3459819,0.1986 3.9999689,3.9995093 0 0 0 -0.3258887,0.2332 3.9999689,3.9995093 0 0 0 -0.3002198,0.2634 3.9999689,3.9995093 0 0 0 -0.2723232,0.2924 3.9999689,3.9995093 0 0 0 -0.2421864,0.318 3.9999689,3.9995093 0 0 0 -0.2087018,0.3416 3.9999689,3.9995093 0 0 0 -0.1741064,0.3593 3.9999689,3.9995093 0 0 0 -0.137274,0.376 3.9999689,3.9995093 0 0 0 -0.099331,0.3872 3.9999689,3.9995093 0 0 0 -0.059154,0.3951 3.9999689,3.9995093 0 0 0 -0.020124,0.3994 3.9999689,3.9995093 0 0 0 0.0100623,0.2835 3.9999689,3.9995093 0 0 0 0.047999,0.3962 3.9999689,3.9995093 0 0 0 0.08817,0.3905 3.9999689,3.9995093 0 0 0 0.1261134,0.3795 3.9999689,3.9995093 0 0 0 0.1629459,0.3649 3.9999689,3.9995093 0 0 0 0.1986583,0.3459 3.9999689,3.9995093 0 0 0 0.2332598,0.3259 3.9999689,3.9995093 0 0 0 0.2633874,0.3002 3.9999689,3.9995093 0 0 0 0.2924072,0.2722 3.9999689,3.9995093 0 0 0 0.318079,0.2422 3.9999689,3.9995093 0 0 0 0.3415171,0.2086 3.9999689,3.9995093 0 0 0 0.3593733,0.1742 3.9999689,3.9995093 0 0 0 0.3761125,0.1373 3.9999689,3.9995093 0 0 0 0.3872702,0.099 3.9999689,3.9995093 0 0 0 0.3950885,0.059 3.9999689,3.9995093 0 0 0 0.3995508,0.02 3.9999689,3.9995093 0 0 0 0.283477,-0.01 3.9999689,3.9995093 0 0 0 0.3962062,-0.048 3.9999689,3.9995093 0 0 0 0.390624,-0.088 3.9999689,3.9995093 0 0 0 0.37946,-0.1261 3.9999689,3.9995093 0 0 0 0.364949,-0.163 3.9999689,3.9995093 0 0 0 0.3459822,-0.1986 3.9999689,3.9995093 0 0 0 0.3258886,-0.2332 3.9999689,3.9995093 0 0 0 0.3002199,-0.2634 3.9999689,3.9995093 0 0 0 0.2723199,-0.2924 3.9999689,3.9995093 0 0 0 0.2421863,-0.318 3.9999689,3.9995093 0 0 0 0.2087079,-0.3415 3.9999689,3.9995093 0 0 0 0.1741006,-0.3594 3.9999689,3.9995093 0 0 0 0.1372765,-0.3761 3.9999689,3.9995093 0 0 0 0.099331,-0.3871 3.9999689,3.9995093 0 0 0 0.05915,-0.3951 3.9999689,3.9995093 0 0 0 0.020126,-0.3995 3.9999689,3.9995093 0 0 0 -0.010063,-0.2835 3.9999689,3.9995093 0 0 0 -0.048,-0.396 3.9999689,3.9995093 0 0 0 -0.08817,-0.3906 3.9999689,3.9995093 0 0 0 -0.1261131,-0.3795 3.9999689,3.9995093 0 0 0 -0.1629491,-0.3649 3.9999689,3.9995093 0 0 0 -0.1986617,-0.346 3.9999689,3.9995093 0 0 0 -0.2332536,-0.3258 3.9999689,3.9995093 0 0 0 -0.2633931,-0.3002 3.9999689,3.9995093 0 0 0 -0.2924103,-0.2723 3.9999689,3.9995093 0 0 0 -0.3180759,-0.2421 3.9999689,3.9995093 0 0 0 -0.3415114,-0.2087 3.9999689,3.9995093 0 0 0 -0.359373,-0.1741 3.9999689,3.9995093 0 0 0 -0.3761125,-0.1373 3.9999689,3.9995093 0 0 0 -0.387276,-0.099 3.9999689,3.9995093 0 0 0 -0.3950828,-0.059 3.9999689,3.9995093 0 0 0 -0.3995536,-0.02 z"
           id="path4346"
           inkscape:connector-curvature="0" />
        <path
           inkscape:connector-curvature="0"
           id="path3400"
           d="m 15.000006,1043.363 a 3.9999689,3.9995093 0 0 0 -0.283483,0.01 3.9999689,3.9995093 0 0 0 -0.396196,0.048 3.9999689,3.9995093 0 0 0 -0.390628,0.088 3.9999689,3.9995093 0 0 0 -0.37946,0.1261 3.9999689,3.9995093 0 0 0 -0.364949,0.1629 3.9999689,3.9995093 0 0 0 -0.345982,0.1986 3.9999689,3.9995093 0 0 0 -0.325889,0.2332 3.9999689,3.9995093 0 0 0 -0.300219,0.2634 3.9999689,3.9995093 0 0 0 -0.272324,0.2924 3.9999689,3.9995093 0 0 0 -0.242186,0.318 3.9999689,3.9995093 0 0 0 -0.208702,0.3416 3.9999689,3.9995093 0 0 0 -0.174106,0.3593 3.9999689,3.9995093 0 0 0 -0.137274,0.376 3.9999689,3.9995093 0 0 0 -0.09933,0.3872 3.9999689,3.9995093 0 0 0 -0.05915,0.3951 3.9999689,3.9995093 0 0 0 -0.02012,0.3994 3.9999689,3.9995093 0 0 0 0.01006,0.2835 3.9999689,3.9995093 0 0 0 0.048,0.3962 3.9999689,3.9995093 0 0 0 0.08817,0.3905 3.9999689,3.9995093 0 0 0 0.126114,0.3795 3.9999689,3.9995093 0 0 0 0.162945,0.3649 3.9999689,3.9995093 0 0 0 0.198659,0.3459 3.9999689,3.9995093 0 0 0 0.23326,0.3259 3.9999689,3.9995093 0 0 0 0.263387,0.3002 3.9999689,3.9995093 0 0 0 0.292407,0.2722 3.9999689,3.9995093 0 0 0 0.318079,0.2422 3.9999689,3.9995093 0 0 0 0.341517,0.2086 3.9999689,3.9995093 0 0 0 0.359374,0.1742 3.9999689,3.9995093 0 0 0 0.376112,0.1373 3.9999689,3.9995093 0 0 0 0.38727,0.099 3.9999689,3.9995093 0 0 0 0.395089,0.059 3.9999689,3.9995093 0 0 0 0.399551,0.02 3.9999689,3.9995093 0 0 0 0.283477,-0.01 3.9999689,3.9995093 0 0 0 0.396206,-0.048 3.9999689,3.9995093 0 0 0 0.390624,-0.088 3.9999689,3.9995093 0 0 0 0.37946,-0.1261 3.9999689,3.9995093 0 0 0 0.364949,-0.163 3.9999689,3.9995093 0 0 0 0.345982,-0.1986 3.9999689,3.9995093 0 0 0 0.325889,-0.2332 3.9999689,3.9995093 0 0 0 0.300219,-0.2634 3.9999689,3.9995093 0 0 0 0.27232,-0.2924 3.9999689,3.9995093 0 0 0 0.242187,-0.318 3.9999689,3.9995093 0 0 0 0.208708,-0.3415 3.9999689,3.9995093 0 0 0 0.1741,-0.3594 3.9999689,3.9995093 0 0 0 0.137277,-0.3761 3.9999689,3.9995093 0 0 0 0.09933,-0.3871 3.9999689,3.9995093 0 0 0 0.05915,-0.3951 3.9999689,3.9995093 0 0 0 0.02013,-0.3995 3.9999689,3.9995093 0 0 0 -0.01006,-0.2835 3.9999689,3.9995093 0 0 0 -0.048,-0.396 3.9999689,3.9995093 0 0 0 -0.08817,-0.3906 3.9999689,3.9995093 0 0 0 -0.126113,-0.3795 3.9999689,3.9995093 0 0 0 -0.16295,-0.3649 3.9999689,3.9995093 0 0 0 -0.198661,-0.346 3.9999689,3.9995093 0 0 0 -0.233254,-0.3258 3.9999689,3.9995093 0 0 0 -0.263393,-0.3002 3.9999689,3.9995093 0 0 0 -0.29241,-0.2723 3.9999689,3.9995093 0 0 0 -0.318076,-0.2421 3.9999689,3.9995093 0 0 0 -0.341512,-0.2087 3.9999689,3.9995093 0 0 0 -0.359373,-0.1741 3.9999689,3.9995093 0 0 0 -0.376112,-0.1373 3.9999689,3.9995093 0 0 0 -0.387276,-0.099 3.9999689,3.9995093 0 0 0 -0.395083,-0.059 3.9999689,3.9995093 0 0 0 -0.399553,-0.02 z"
           style="opacity:1;fill:#000000;fill-opacity:1;fill-rule:nonzero;stroke:#ffffff;stroke-width:1.99999976;stroke-linecap:round;stroke-linejoin:miter;stroke-miterlimit:4;stroke-dasharray:none;stroke-dashoffset:0;stroke-opacity:1" />
        <path
           style="opacity:1;fill:#000000;fill-opacity:1;fill-rule:nonzero;stroke:#ffffff;stroke-width:1.99999976;stroke-linecap:round;stroke-linejoin:miter;stroke-miterlimit:4;stroke-dasharray:none;stroke-dashoffset:0;stroke-opacity:1"
           d="m 25.000006,1043.363 a 3.9999689,3.9995093 0 0 0 -0.283483,0.01 3.9999689,3.9995093 0 0 0 -0.396196,0.048 3.9999689,3.9995093 0 0 0 -0.390628,0.088 3.9999689,3.9995093 0 0 0 -0.37946,0.1261 3.9999689,3.9995093 0 0 0 -0.364949,0.1629 3.9999689,3.9995093 0 0 0 -0.345982,0.1986 3.9999689,3.9995093 0 0 0 -0.325889,0.2332 3.9999689,3.9995093 0 0 0 -0.300219,0.2634 3.9999689,3.9995093 0 0 0 -0.272324,0.2924 3.9999689,3.9995093 0 0 0 -0.242186,0.318 3.9999689,3.9995093 0 0 0 -0.208702,0.3416 3.9999689,3.9995093 0 0 0 -0.174106,0.3593 3.9999689,3.9995093 0 0 0 -0.137274,0.376 3.9999689,3.9995093 0 0 0 -0.09933,0.3872 3.9999689,3.9995093 0 0 0 -0.05915,0.3951 3.9999689,3.9995093 0 0 0 -0.02012,0.3994 3.9999689,3.9995093 0 0 0 0.01006,0.2835 3.9999689,3.9995093 0 0 0 0.048,0.3962 3.9999689,3.9995093 0 0 0 0.08817,0.3905 3.9999689,3.9995093 0 0 0 0.126114,0.3795 3.9999689,3.9995093 0 0 0 0.162945,0.3649 3.9999689,3.9995093 0 0 0 0.198659,0.3459 3.9999689,3.9995093 0 0 0 0.23326,0.3259 3.9999689,3.9995093 0 0 0 0.263387,0.3002 3.9999689,3.9995093 0 0 0 0.292407,0.2722 3.9999689,3.9995093 0 0 0 0.318079,0.2422 3.9999689,3.9995093 0 0 0 0.341517,0.2086 3.9999689,3.9995093 0 0 0 0.359374,0.1742 3.9999689,3.9995093 0 0 0 0.376112,0.1373 3.9999689,3.9995093 0 0 0 0.38727,0.099 3.9999689,3.9995093 0 0 0 0.395089,0.059 3.9999689,3.9995093 0 0 0 0.399551,0.02 3.9999689,3.9995093 0 0 0 0.283477,-0.01 3.9999689,3.9995093 0 0 0 0.396206,-0.048 3.9999689,3.9995093 0 0 0 0.390624,-0.088 3.9999689,3.9995093 0 0 0 0.37946,-0.1261 3.9999689,3.9995093 0 0 0 0.364949,-0.163 3.9999689,3.9995093 0 0 0 0.345982,-0.1986 3.9999689,3.9995093 0 0 0 0.325889,-0.2332 3.9999689,3.9995093 0 0 0 0.300219,-0.2634 3.9999689,3.9995093 0 0 0 0.27232,-0.2924 3.9999689,3.9995093 0 0 0 0.242187,-0.318 3.9999689,3.9995093 0 0 0 0.208708,-0.3415 3.9999689,3.9995093 0 0 0 0.1741,-0.3594 3.9999689,3.9995093 0 0 0 0.137277,-0.3761 3.9999689,3.9995093 0 0 0 0.09933,-0.3871 3.9999689,3.9995093 0 0 0 0.05915,-0.3951 3.9999689,3.9995093 0 0 0 0.02013,-0.3995 3.9999689,3.9995093 0 0 0 -0.01006,-0.2835 3.9999689,3.9995093 0 0 0 -0.048,-0.396 3.9999689,3.9995093 0 0 0 -0.08817,-0.3906 3.9999689,3.9995093 0 0 0 -0.126113,-0.3795 3.9999689,3.9995093 0 0 0 -0.16295,-0.3649 3.9999689,3.9995093 0 0 0 -0.198661,-0.346 3.9999689,3.9995093 0 0 0 -0.233254,-0.3258 3.9999689,3.9995093 0 0 0 -0.263393,-0.3002 3.9999689,3.9995093 0 0 0 -0.29241,-0.2723 3.9999689,3.9995093 0 0 0 -0.318076,-0.2421 3.9999689,3.9995093 0 0 0 -0.341512,-0.2087 3.9999689,3.9995093 0 0 0 -0.359373,-0.1741 3.9999689,3.9995093 0 0 0 -0.376112,-0.1373 3.9999689,3.9995093 0 0 0 -0.387276,-0.099 3.9999689,3.9995093 0 0 0 -0.395083,-0.059 3.9999689,3.9995093 0 0 0 -0.399553,-0.02 z"
           id="path3402"
           inkscape:connector-curvature="0" />
      </g>
      <path
         style="opacity:1;fill:#000000;fill-opacity:1;fill-rule:nonzero;stroke:#ffffff;stroke-width:1.99999976;stroke-linecap:round;stroke-linejoin:miter;stroke-miterlimit:4;stroke-dasharray:none;stroke-dashoffset:0;stroke-opacity:1"
         d="m 5.0000063,1035.363 a 3.9999689,3.9995093 0 0 0 -0.283483,0.01 3.9999689,3.9995093 0 0 0 -0.396197,0.048 3.9999689,3.9995093 0 0 0 -0.390627,0.088 3.9999689,3.9995093 0 0 0 -0.3794602,0.1261 3.9999689,3.9995093 0 0 0 -0.3649489,0.1629 3.9999689,3.9995093 0 0 0 -0.3459819,0.1986 3.9999689,3.9995093 0 0 0 -0.3258887,0.2332 3.9999689,3.9995093 0 0 0 -0.3002198,0.2634 3.9999689,3.9995093 0 0 0 -0.2723232,0.2924 3.9999689,3.9995093 0 0 0 -0.2421864,0.318 3.9999689,3.9995093 0 0 0 -0.2087018,0.3416 3.9999689,3.9995093 0 0 0 -0.1741064,0.3593 3.9999689,3.9995093 0 0 0 -0.137274,0.376 3.9999689,3.9995093 0 0 0 -0.099331,0.3872 3.9999689,3.9995093 0 0 0 -0.059154,0.3951 3.9999689,3.9995093 0 0 0 -0.020124,0.3994 3.9999689,3.9995093 0 0 0 0.010062,0.2835 3.9999689,3.9995093 0 0 0 0.047999,0.3962 3.9999689,3.9995093 0 0 0 0.08817,0.3905 3.9999689,3.9995093 0 0 0 0.1261134,0.3795 3.9999689,3.9995093 0 0 0 0.1629459,0.3649 3.9999689,3.9995093 0 0 0 0.1986583,0.3459 3.9999689,3.9995093 0 0 0 0.2332598,0.3259 3.9999689,3.9995093 0 0 0 0.2633874,0.3002 3.9999689,3.9995093 0 0 0 0.2924072,0.2722 3.9999689,3.9995093 0 0 0 0.318079,0.2422 3.9999689,3.9995093 0 0 0 0.3415171,0.2086 3.9999689,3.9995093 0 0 0 0.3593733,0.1742 3.9999689,3.9995093 0 0 0 0.3761125,0.1373 3.9999689,3.9995093 0 0 0 0.3872704,0.099 3.9999689,3.9995093 0 0 0 0.395088,0.059 3.9999689,3.9995093 0 0 0 0.399551,0.02 3.9999689,3.9995093 0 0 0 0.283477,-0.01 3.9999689,3.9995093 0 0 0 0.396206,-0.048 3.9999689,3.9995093 0 0 0 0.3906239,-0.088 3.9999689,3.9995093 0 0 0 0.37946,-0.1261 3.9999689,3.9995093 0 0 0 0.364949,-0.163 3.9999689,3.9995093 0 0 0 0.345983,-0.1986 3.9999689,3.9995093 0 0 0 0.325888,-0.2332 3.9999689,3.9995093 0 0 0 0.30022,-0.2634 3.9999689,3.9995093 0 0 0 0.2723199,-0.2924 3.9999689,3.9995093 0 0 0 0.242187,-0.318 3.9999689,3.9995093 0 0 0 0.208708,-0.3415 3.9999689,3.9995093 0 0 0 0.1741,-0.3594 3.9999689,3.9995093 0 0 0 0.137277,-0.3761 3.9999689,3.9995093 0 0 0 0.09933,-0.3871 3.9999689,3.9995093 0 0 0 0.05915,-0.3951 3.9999689,3.9995093 0 0 0 0.02013,-0.3995 3.9999689,3.9995093 0 0 0 -0.01006,-0.2835 3.9999689,3.9995093 0 0 0 -0.048,-0.396 3.9999689,3.9995093 0 0 0 -0.08817,-0.3906 3.9999689,3.9995093 0 0 0 -0.126113,-0.3795 3.9999689,3.9995093 0 0 0 -0.16295,-0.3649 3.9999689,3.9995093 0 0 0 -0.198661,-0.346 3.9999689,3.9995093 0 0 0 -0.233254,-0.3258 3.9999689,3.9995093 0 0 0 -0.2633929,-0.3002 3.9999689,3.9995093 0 0 0 -0.292411,-0.2723 3.9999689,3.9995093 0 0 0 -0.318076,-0.2421 3.9999689,3.9995093 0 0 0 -0.341511,-0.2087 3.9999689,3.9995093 0 0 0 -0.359373,-0.1741 3.9999689,3.9995093 0 0 0 -0.376112,-0.1373 3.9999689,3.9995093 0 0 0 -0.3872769,-0.099 3.9999689,3.9995093 0 0 0 -0.395082,-0.059 3.9999689,3.9995093 0 0 0 -0.399554,-0.02 z"
         id="path3411"
         inkscape:connector-curvature="0" />
      <path
         inkscape:connector-curvature="0"
         id="path3413"
         d="m 15.000006,1035.363 a 3.9999689,3.9995093 0 0 0 -0.283483,0.01 3.9999689,3.9995093 0 0 0 -0.396196,0.048 3.9999689,3.9995093 0 0 0 -0.390628,0.088 3.9999689,3.9995093 0 0 0 -0.37946,0.1261 3.9999689,3.9995093 0 0 0 -0.364949,0.1629 3.9999689,3.9995093 0 0 0 -0.345982,0.1986 3.9999689,3.9995093 0 0 0 -0.325889,0.2332 3.9999689,3.9995093 0 0 0 -0.300219,0.2634 3.9999689,3.9995093 0 0 0 -0.272324,0.2924 3.9999689,3.9995093 0 0 0 -0.242186,0.318 3.9999689,3.9995093 0 0 0 -0.208702,0.3416 3.9999689,3.9995093 0 0 0 -0.174106,0.3593 3.9999689,3.9995093 0 0 0 -0.137274,0.376 3.9999689,3.9995093 0 0 0 -0.09933,0.3872 3.9999689,3.9995093 0 0 0 -0.05915,0.3951 3.9999689,3.9995093 0 0 0 -0.02012,0.3994 3.9999689,3.9995093 0 0 0 0.01006,0.2835 3.9999689,3.9995093 0 0 0 0.048,0.3962 3.9999689,3.9995093 0 0 0 0.08817,0.3905 3.9999689,3.9995093 0 0 0 0.126114,0.3795 3.9999689,3.9995093 0 0 0 0.162945,0.3649 3.9999689,3.9995093 0 0 0 0.198659,0.3459 3.9999689,3.9995093 0 0 0 0.23326,0.3259 3.9999689,3.9995093 0 0 0 0.263387,0.3002 3.9999689,3.9995093 0 0 0 0.292407,0.2722 3.9999689,3.9995093 0 0 0 0.318079,0.2422 3.9999689,3.9995093 0 0 0 0.341517,0.2086 3.9999689,3.9995093 0 0 0 0.359374,0.1742 3.9999689,3.9995093 0 0 0 0.376112,0.1373 3.9999689,3.9995093 0 0 0 0.38727,0.099 3.9999689,3.9995093 0 0 0 0.395089,0.059 3.9999689,3.9995093 0 0 0 0.399551,0.02 3.9999689,3.9995093 0 0 0 0.283477,-0.01 3.9999689,3.9995093 0 0 0 0.396206,-0.048 3.9999689,3.9995093 0 0 0 0.390624,-0.088 3.9999689,3.9995093 0 0 0 0.37946,-0.1261 3.9999689,3.9995093 0 0 0 0.364949,-0.163 3.9999689,3.9995093 0 0 0 0.345982,-0.1986 3.9999689,3.9995093 0 0 0 0.325889,-0.2332 3.9999689,3.9995093 0 0 0 0.300219,-0.2634 3.9999689,3.9995093 0 0 0 0.27232,-0.2924 3.9999689,3.9995093 0 0 0 0.242187,-0.318 3.9999689,3.9995093 0 0 0 0.208708,-0.3415 3.9999689,3.9995093 0 0 0 0.1741,-0.3594 3.9999689,3.9995093 0 0 0 0.137277,-0.3761 3.9999689,3.9995093 0 0 0 0.09933,-0.3871 3.9999689,3.9995093 0 0 0 0.05915,-0.3951 3.9999689,3.9995093 0 0 0 0.02013,-0.3995 3.9999689,3.9995093 0 0 0 -0.01006,-0.2835 3.9999689,3.9995093 0 0 0 -0.048,-0.396 3.9999689,3.9995093 0 0 0 -0.08817,-0.3906 3.9999689,3.9995093 0 0 0 -0.126113,-0.3795 3.9999689,3.9995093 0 0 0 -0.16295,-0.3649 3.9999689,3.9995093 0 0 0 -0.198661,-0.346 3.9999689,3.9995093 0 0 0 -0.233254,-0.3258 3.9999689,3.9995093 0 0 0 -0.263393,-0.3002 3.9999689,3.9995093 0 0 0 -0.29241,-0.2723 3.9999689,3.9995093 0 0 0 -0.318076,-0.2421 3.9999689,3.9995093 0 0 0 -0.341512,-0.2087 3.9999689,3.9995093 0 0 0 -0.359373,-0.1741 3.9999689,3.9995093 0 0 0 -0.376112,-0.1373 3.9999689,3.9995093 0 0 0 -0.387276,-0.099 3.9999689,3.9995093 0 0 0 -0.395083,-0.059 3.9999689,3.9995093 0 0 0 -0.399553,-0.02 z"
         style="opacity:1;fill:#000000;fill-opacity:1;fill-rule:nonzero;stroke:#ffffff;stroke-width:1.99999976;stroke-linecap:round;stroke-linejoin:miter;stroke-miterlimit:4;stroke-dasharray:none;stroke-dashoffset:0;stroke-opacity:1" />
      <path
         inkscape:connector-curvature="0"
         id="path3420"
         d="m 25.000006,1035.363 a 3.9999689,3.9995093 0 0 0 -0.283483,0.01 3.9999689,3.9995093 0 0 0 -0.396196,0.048 3.9999689,3.9995093 0 0 0 -0.390628,0.088 3.9999689,3.9995093 0 0 0 -0.37946,0.1261 3.9999689,3.9995093 0 0 0 -0.364949,0.1629 3.9999689,3.9995093 0 0 0 -0.345982,0.1986 3.9999689,3.9995093 0 0 0 -0.325889,0.2332 3.9999689,3.9995093 0 0 0 -0.300219,0.2634 3.9999689,3.9995093 0 0 0 -0.272324,0.2924 3.9999689,3.9995093 0 0 0 -0.242186,0.318 3.9999689,3.9995093 0 0 0 -0.208702,0.3416 3.9999689,3.9995093 0 0 0 -0.174106,0.3593 3.9999689,3.9995093 0 0 0 -0.137274,0.376 3.9999689,3.9995093 0 0 0 -0.09933,0.3872 3.9999689,3.9995093 0 0 0 -0.05915,0.3951 3.9999689,3.9995093 0 0 0 -0.02012,0.3994 3.9999689,3.9995093 0 0 0 0.01006,0.2835 3.9999689,3.9995093 0 0 0 0.048,0.3962 3.9999689,3.9995093 0 0 0 0.08817,0.3905 3.9999689,3.9995093 0 0 0 0.126114,0.3795 3.9999689,3.9995093 0 0 0 0.162945,0.3649 3.9999689,3.9995093 0 0 0 0.198659,0.3459 3.9999689,3.9995093 0 0 0 0.23326,0.3259 3.9999689,3.9995093 0 0 0 0.263387,0.3002 3.9999689,3.9995093 0 0 0 0.292407,0.2722 3.9999689,3.9995093 0 0 0 0.318079,0.2422 3.9999689,3.9995093 0 0 0 0.341517,0.2086 3.9999689,3.9995093 0 0 0 0.359374,0.1742 3.9999689,3.9995093 0 0 0 0.376112,0.1373 3.9999689,3.9995093 0 0 0 0.38727,0.099 3.9999689,3.9995093 0 0 0 0.395089,0.059 3.9999689,3.9995093 0 0 0 0.399551,0.02 3.9999689,3.9995093 0 0 0 0.283477,-0.01 3.9999689,3.9995093 0 0 0 0.396206,-0.048 3.9999689,3.9995093 0 0 0 0.390624,-0.088 3.9999689,3.9995093 0 0 0 0.37946,-0.1261 3.9999689,3.9995093 0 0 0 0.364949,-0.163 3.9999689,3.9995093 0 0 0 0.345982,-0.1986 3.9999689,3.9995093 0 0 0 0.325889,-0.2332 3.9999689,3.9995093 0 0 0 0.300219,-0.2634 3.9999689,3.9995093 0 0 0 0.27232,-0.2924 3.9999689,3.9995093 0 0 0 0.242187,-0.318 3.9999689,3.9995093 0 0 0 0.208708,-0.3415 3.9999689,3.9995093 0 0 0 0.1741,-0.3594 3.9999689,3.9995093 0 0 0 0.137277,-0.3761 3.9999689,3.9995093 0 0 0 0.09933,-0.3871 3.9999689,3.9995093 0 0 0 0.05915,-0.3951 3.9999689,3.9995093 0 0 0 0.02013,-0.3995 3.9999689,3.9995093 0 0 0 -0.01006,-0.2835 3.9999689,3.9995093 0 0 0 -0.048,-0.396 3.9999689,3.9995093 0 0 0 -0.08817,-0.3906 3.9999689,3.9995093 0 0 0 -0.126113,-0.3795 3.9999689,3.9995093 0 0 0 -0.16295,-0.3649 3.9999689,3.9995093 0 0 0 -0.198661,-0.346 3.9999689,3.9995093 0 0 0 -0.233254,-0.3258 3.9999689,3.9995093 0 0 0 -0.263393,-0.3002 3.9999689,3.9995093 0 0 0 -0.29241,-0.2723 3.9999689,3.9995093 0 0 0 -0.318076,-0.2421 3.9999689,3.9995093 0 0 0 -0.341512,-0.2087 3.9999689,3.9995093 0 0 0 -0.359373,-0.1741 3.9999689,3.9995093 0 0 0 -0.376112,-0.1373 3.9999689,3.9995093 0 0 0 -0.387276,-0.099 3.9999689,3.9995093 0 0 0 -0.395083,-0.059 3.9999689,3.9995093 0 0 0 -0.399553,-0.02 z"
         style="opacity:1;fill:#000000;fill-opacity:1;fill-rule:nonzero;stroke:#ffffff;stroke-width:1.99999976;stroke-linecap:round;stroke-linejoin:miter;stroke-miterlimit:4;stroke-dasharray:none;stroke-dashoffset:0;stroke-opacity:1" />
    </g>
  </g>
</svg>
