<?xml version="1.0" encoding="UTF-8" standalone="no"?>
<!-- Created with Inkscape (http://www.inkscape.org/) -->

<svg
   xmlns:dc="http://purl.org/dc/elements/1.1/"
   xmlns:cc="http://creativecommons.org/ns#"
   xmlns:rdf="http://www.w3.org/1999/02/22-rdf-syntax-ns#"
   xmlns:svg="http://www.w3.org/2000/svg"
   xmlns="http://www.w3.org/2000/svg"
   xmlns:sodipodi="http://sodipodi.sourceforge.net/DTD/sodipodi-0.dtd"
   xmlns:inkscape="http://www.inkscape.org/namespaces/inkscape"
   width="32"
   height="32"
   viewBox="0 0 31.999999 31.999998"
   id="svg4413"
   version="1.1"
   inkscape:version="0.91 r13725"
   sodipodi:docname="shell.svg">
  <defs
     id="defs4415" />
  <sodipodi:namedview
     id="base"
     pagecolor="#e8e8e0"
     bordercolor="#666666"
     borderopacity="1.0"
     inkscape:pageopacity="0"
     inkscape:pageshadow="2"
     inkscape:zoom="11.96875"
     inkscape:cx="18.686086"
     inkscape:cy="17.671018"
     inkscape:document-units="px"
     inkscape:current-layer="g3653"
     showgrid="true"
     units="px">
    <inkscape:grid
       type="xygrid"
       id="grid4421"
       spacingx="2.0000001"
       spacingy="2.0000001" />
  </sodipodi:namedview>
  <metadata
     id="metadata4418">
    <rdf:RDF>
      <cc:Work
         rdf:about="">
        <dc:format>image/svg+xml</dc:format>
        <dc:type
           rdf:resource="http://purl.org/dc/dcmitype/StillImage" />
        <dc:title />
      </cc:Work>
    </rdf:RDF>
  </metadata>
  <g
     inkscape:label="Layer 1"
     inkscape:groupmode="layer"
     id="layer1"
     transform="translate(0,-1020.3622)">
    <g
       id="g3653"
       style="opacity:0.8">
      <rect
         style="opacity:1;fill:#000000;fill-opacity:1;fill-rule:nonzero;stroke:#ffffff;stroke-width:1;stroke-linecap:butt;stroke-linejoin:miter;stroke-miterlimit:4;stroke-dasharray:none;stroke-dashoffset:0;stroke-opacity:0.76862745"
         id="rect4254"
         width="24.999998"
         height="20.999998"
         x="3.4999998"
         y="1023.8621"
         rx="2.4000001"
         ry="2" />
      <path
         style="opacity:1;fill:#ffffff;fill-opacity:1;fill-rule:nonzero;stroke:none;stroke-width:1.99999988;stroke-linecap:round;stroke-linejoin:miter;stroke-miterlimit:4;stroke-dasharray:none;stroke-dashoffset:0;stroke-opacity:1"
         d="m 6.6572621,1026.4109 c -0.3709373,-0.071 -0.6552947,-0.067 -0.8216668,0.029 -0.4665813,1.0488 -1.4457644,3.108 -0.2639953,3.3419 0.4747316,0.1857 1.0493498,0.4747 1.6050609,0.7973 0.5557119,0.3224 1.0927804,0.6788 1.4902478,0.9991 0.3974674,0.3204 0.6553024,0.6047 0.6553024,0.7841 0,0.1792 -0.257835,0.4635 -0.6553024,0.7839 -0.3974674,0.3203 -0.9345359,0.6767 -1.4902478,0.9992 -0.5557111,0.3225 -1.1303293,0.6115 -1.6050609,0.7972 -1.1665622,0.012 -0.272711,2.9737 0.2639953,3.3418 1.3309722,0.7699 10.2380287,-4.3824 10.2380287,-5.9221 0,-1.3475 -6.8198054,-5.4607 -9.4163619,-5.9521 z"
         id="path4169"
         inkscape:connector-curvature="0"
         sodipodi:nodetypes="sccsssssccss" />
      <rect
         transform="matrix(0,1,-1,0,0,0)"
         rx="2"
         ry="2"
         y="-25.999998"
         x="1036.3622"
         height="11.999999"
         width="3.9999998"
         id="rect4203"
         style="opacity:1;fill:#ffffff;fill-opacity:1;fill-rule:nonzero;stroke:none;stroke-width:2;stroke-linecap:round;stroke-linejoin:miter;stroke-miterlimit:4;stroke-dasharray:none;stroke-dashoffset:0;stroke-opacity:1" />
    </g>
  </g>
</svg>
