<?xml version="1.0" encoding="UTF-8" standalone="no"?>
<!-- Created with Inkscape (http://www.inkscape.org/) -->

<svg
   xmlns:dc="http://purl.org/dc/elements/1.1/"
   xmlns:cc="http://creativecommons.org/ns#"
   xmlns:rdf="http://www.w3.org/1999/02/22-rdf-syntax-ns#"
   xmlns:svg="http://www.w3.org/2000/svg"
   xmlns="http://www.w3.org/2000/svg"
   xmlns:sodipodi="http://sodipodi.sourceforge.net/DTD/sodipodi-0.dtd"
   xmlns:inkscape="http://www.inkscape.org/namespaces/inkscape"
   width="32"
   height="32"
   viewBox="0 0 31.999999 31.999998"
   id="svg4413"
   version="1.1"
   inkscape:version="0.91 r13725"
   sodipodi:docname="sound0.svg">
  <defs
     id="defs4415" />
  <sodipodi:namedview
     id="base"
     pagecolor="#e8e8e0"
     bordercolor="#666666"
     borderopacity="1.0"
     inkscape:pageopacity="0"
     inkscape:pageshadow="2"
     inkscape:zoom="11.313708"
     inkscape:cx="16"
     inkscape:cy="16"
     inkscape:document-units="px"
     inkscape:current-layer="g10435"
     showgrid="true"
     units="px">
    <inkscape:grid
       type="xygrid"
       id="grid4421"
       spacingx="2.0000001"
       spacingy="2.0000001" />
  </sodipodi:namedview>
  <metadata
     id="metadata4418">
    <rdf:RDF>
      <cc:Work
         rdf:about="">
        <dc:format>image/svg+xml</dc:format>
        <dc:type
           rdf:resource="http://purl.org/dc/dcmitype/StillImage" />
        <dc:title></dc:title>
      </cc:Work>
    </rdf:RDF>
  </metadata>
  <g
     inkscape:label="Layer 1"
     inkscape:groupmode="layer"
     id="layer1"
     transform="translate(0,-1020.3622)">
    <g
       id="g10435"
       style="opacity:0.8">
      <path
         inkscape:connector-curvature="0"
         id="path5051"
         d="m 15.687805,1021.3624 a 1.7557523,1.7648575 0 1 0 0,3.5293 c 6.87472,0 12.301039,5.1792 12.301039,11.4704 0,6.2914 -5.426319,11.4705 -12.301039,11.4705 a 1.7557523,1.7648575 0 1 0 0,3.5293 c 8.652121,0 15.812193,-6.6721 15.812193,-14.9998 0,-8.3276 -7.160072,-14.9997 -15.812193,-14.9997 z"
         style="color:#000000;font-style:normal;font-variant:normal;font-weight:normal;font-stretch:normal;font-size:medium;line-height:normal;font-family:sans-serif;text-indent:0;text-align:start;text-decoration:none;text-decoration-line:none;text-decoration-style:solid;text-decoration-color:#000000;letter-spacing:normal;word-spacing:normal;text-transform:none;direction:ltr;block-progression:tb;writing-mode:lr-tb;baseline-shift:baseline;text-anchor:start;white-space:normal;clip-rule:nonzero;display:inline;overflow:visible;visibility:visible;opacity:0.2;isolation:auto;mix-blend-mode:normal;color-interpolation:sRGB;color-interpolation-filters:linearRGB;solid-color:#000000;solid-opacity:1;fill:#000000;fill-opacity:1;fill-rule:nonzero;stroke:#ffffff;stroke-width:0.99999994;stroke-linecap:round;stroke-linejoin:round;stroke-miterlimit:4;stroke-dasharray:none;stroke-dashoffset:0;stroke-opacity:0.76862745;color-rendering:auto;image-rendering:auto;shape-rendering:auto;text-rendering:auto;enable-background:accumulate" />
      <path
         inkscape:connector-curvature="0"
         id="path4338"
         d="m 13.2552,1043.7501 c 0.4147,-0.24 0.7254,-1.2233 0.9325,-2.5785 0.2074,-1.3551 0.3123,-3.0826 0.3123,-4.8093 0,-1.7268 -0.1052,-3.4545 -0.3122,-4.8096 -0.2073,-1.355 -0.5179,-2.3383 -0.9327,-2.5784 -0.4144,-0.24 -1.4188,-0.018 -2.6925,0.4795 -1.2737,0.4976 -2.8152,1.2713 -4.3062001,2.1345 -1.4908999,0.8634 -2.9296999,1.8174 -3.9960999,2.6751 -1.0664,0.8576 -1.76030003,1.6188 -1.76030003,2.0989 0,0.4801 0.69390003,1.2411 1.76030003,2.0989 1.0664,0.8576 2.5052,1.8116 3.9960999,2.6748 1.4910001,0.8633 3.0325001,1.6372 4.3062001,2.1345 1.2737,0.4976 2.2781,0.7196 2.6926,0.4796 z"
         style="opacity:1;fill:#000000;fill-opacity:1;fill-rule:nonzero;stroke:#ffffff;stroke-width:0.99999994;stroke-linecap:round;stroke-linejoin:miter;stroke-miterlimit:4;stroke-dasharray:none;stroke-dashoffset:0;stroke-opacity:0.76862745" />
      <path
         inkscape:connector-curvature="0"
         id="path5045"
         d="m 15.05904,1025.3624 a 1.8266401,1.8334805 0 1 0 0,3.6666 c 5.012582,0 8.788044,3.4224 8.788043,7.3332 10e-7,3.9109 -3.775463,7.3332 -8.788043,7.3332 a 1.8266401,1.8334805 0 1 0 0,3.6666 c 6.711156,0 12.440959,-4.7858 12.440958,-10.9998 10e-7,-6.2139 -5.7298,-10.9998 -12.440958,-10.9998 z"
         style="color:#000000;font-style:normal;font-variant:normal;font-weight:normal;font-stretch:normal;font-size:medium;line-height:normal;font-family:sans-serif;text-indent:0;text-align:start;text-decoration:none;text-decoration-line:none;text-decoration-style:solid;text-decoration-color:#000000;letter-spacing:normal;word-spacing:normal;text-transform:none;direction:ltr;block-progression:tb;writing-mode:lr-tb;baseline-shift:baseline;text-anchor:start;white-space:normal;clip-rule:nonzero;display:inline;overflow:visible;visibility:visible;opacity:0.2;isolation:auto;mix-blend-mode:normal;color-interpolation:sRGB;color-interpolation-filters:linearRGB;solid-color:#000000;solid-opacity:1;fill:#000000;fill-opacity:1;fill-rule:nonzero;stroke:#ffffff;stroke-width:0.99999994;stroke-linecap:round;stroke-linejoin:round;stroke-miterlimit:4;stroke-dasharray:none;stroke-dashoffset:0;stroke-opacity:0.76862745;color-rendering:auto;image-rendering:auto;shape-rendering:auto;text-rendering:auto;enable-background:accumulate" />
      <path
         inkscape:connector-curvature="0"
         id="path5049"
         d="m 16.626624,1029.3624 a 1.5275691,1.555669 0 1 0 0,3.1111 c 2.126964,0 3.818541,1.7227 3.818541,3.8887 0,2.1662 -1.691577,3.8888 -3.818541,3.8888 a 1.5275691,1.555669 0 1 0 0,3.111 c 3.777922,0 6.873374,-3.1524 6.873374,-6.9998 0,-3.8474 -3.095452,-6.9998 -6.873374,-6.9998 z"
         style="color:#000000;font-style:normal;font-variant:normal;font-weight:normal;font-stretch:normal;font-size:medium;line-height:normal;font-family:sans-serif;text-indent:0;text-align:start;text-decoration:none;text-decoration-line:none;text-decoration-style:solid;text-decoration-color:#000000;letter-spacing:normal;word-spacing:normal;text-transform:none;direction:ltr;block-progression:tb;writing-mode:lr-tb;baseline-shift:baseline;text-anchor:start;white-space:normal;clip-rule:nonzero;display:inline;overflow:visible;visibility:visible;opacity:0.2;isolation:auto;mix-blend-mode:normal;color-interpolation:sRGB;color-interpolation-filters:linearRGB;solid-color:#000000;solid-opacity:1;fill:#000000;fill-opacity:1;fill-rule:nonzero;stroke:#ffffff;stroke-width:0.99999994;stroke-linecap:round;stroke-linejoin:round;stroke-miterlimit:4;stroke-dasharray:none;stroke-dashoffset:0;stroke-opacity:0.76862745;color-rendering:auto;image-rendering:auto;shape-rendering:auto;text-rendering:auto;enable-background:accumulate" />
    </g>
  </g>
</svg>
