<?xml version="1.0" encoding="UTF-8" standalone="no"?>
<!-- Created with Inkscape (http://www.inkscape.org/) -->

<svg
   xmlns:dc="http://purl.org/dc/elements/1.1/"
   xmlns:cc="http://creativecommons.org/ns#"
   xmlns:rdf="http://www.w3.org/1999/02/22-rdf-syntax-ns#"
   xmlns:svg="http://www.w3.org/2000/svg"
   xmlns="http://www.w3.org/2000/svg"
   xmlns:sodipodi="http://sodipodi.sourceforge.net/DTD/sodipodi-0.dtd"
   xmlns:inkscape="http://www.inkscape.org/namespaces/inkscape"
   width="32"
   height="32"
   viewBox="0 0 31.999999 31.999998"
   id="svg4413"
   version="1.1"
   inkscape:version="0.91 r13725"
   sodipodi:docname="text-document.svg">
  <defs
     id="defs4415" />
  <sodipodi:namedview
     id="base"
     pagecolor="#e8e8e0"
     bordercolor="#666666"
     borderopacity="1.0"
     inkscape:pageopacity="0"
     inkscape:pageshadow="2"
     inkscape:zoom="2.9921875"
     inkscape:cx="-29.451697"
     inkscape:cy="17.671018"
     inkscape:document-units="px"
     inkscape:current-layer="g4387"
     showgrid="true"
     units="px">
    <inkscape:grid
       type="xygrid"
       id="grid4421"
       spacingx="2.0000001"
       spacingy="2.0000001" />
  </sodipodi:namedview>
  <metadata
     id="metadata4418">
    <rdf:RDF>
      <cc:Work
         rdf:about="">
        <dc:format>image/svg+xml</dc:format>
        <dc:type
           rdf:resource="http://purl.org/dc/dcmitype/StillImage" />
        <dc:title />
      </cc:Work>
    </rdf:RDF>
  </metadata>
  <g
     inkscape:label="Layer 1"
     inkscape:groupmode="layer"
     id="layer1"
     transform="translate(0,-1020.3622)">
    <g
       id="g4387"
       style="opacity:0.8"
       transform="translate(-251.56517,80.269184)">
      <path
         style="opacity:1;fill:#ffffff;fill-opacity:1;fill-rule:nonzero;stroke:#000000;stroke-width:0.99999994;stroke-linecap:round;stroke-linejoin:miter;stroke-miterlimit:4;stroke-dasharray:none;stroke-dashoffset:0;stroke-opacity:1"
         d="m 267.56522,940.59314 a 15.499875,15.499894 0 0 0 -1.09851,0.0393 15.499875,15.499894 0 0 0 -1.53525,0.186 15.499875,15.499894 0 0 0 -1.51368,0.34173 15.499875,15.499894 0 0 0 -1.47043,0.48877 15.499875,15.499894 0 0 0 -1.41416,0.63116 15.499875,15.499894 0 0 0 -1.34069,0.76984 15.499875,15.499894 0 0 0 -1.26282,0.90387 15.499875,15.499894 0 0 0 -1.16334,1.02063 15.499875,15.499894 0 0 0 -1.05525,1.13327 15.499875,15.499894 0 0 0 -0.93849,1.23246 15.499875,15.499894 0 0 0 -0.80871,1.32361 15.499875,15.499894 0 0 0 -0.67467,1.39243 15.499875,15.499894 0 0 0 -0.53192,1.45732 15.499875,15.499894 0 0 0 -0.38491,1.50052 15.499875,15.499894 0 0 0 -0.22923,1.53131 15.499875,15.499894 0 0 0 -0.078,1.54795 15.499875,15.499894 0 0 0 0.039,1.09865 15.499875,15.499894 0 0 0 0.186,1.53534 15.499875,15.499894 0 0 0 0.34166,1.51353 15.499875,15.499894 0 0 0 0.48869,1.47045 15.499875,15.499894 0 0 0 0.63141,1.41413 15.499875,15.499894 0 0 0 0.7698,1.34066 15.499875,15.499894 0 0 0 0.90389,1.26295 15.499875,15.499894 0 0 0 1.02062,1.16323 15.499875,15.499894 0 0 0 1.13309,1.05525 15.499875,15.499894 0 0 0 1.23255,0.93859 15.499875,15.499894 0 0 0 1.32338,0.80838 15.499875,15.499894 0 0 0 1.39257,0.67488 15.499875,15.499894 0 0 0 1.45744,0.53207 15.499875,15.499894 0 0 0 1.50066,0.38481 15.499875,15.499894 0 0 0 1.53098,0.2293 15.499875,15.499894 0 0 0 1.54824,0.0775 15.499875,15.499894 0 0 0 1.09848,-0.0382 15.499875,15.499894 0 0 0 1.5353,-0.186 15.499875,15.499894 0 0 0 1.51366,-0.34132 15.499875,15.499894 0 0 0 1.47041,-0.48887 15.499875,15.499894 0 0 0 1.41419,-0.63168 15.499875,15.499894 0 0 0 1.34067,-0.76953 15.499875,15.499894 0 0 0 1.26283,-0.90397 15.499875,15.499894 0 0 0 1.16335,-1.02084 15.499875,15.499894 0 0 0 1.05523,-1.13306 15.499875,15.499894 0 0 0 0.93847,-1.23226 15.499875,15.499894 0 0 0 0.80876,-1.32351 15.499875,15.499894 0 0 0 0.67463,-1.39263 15.499875,15.499894 0 0 0 0.53195,-1.45743 15.499875,15.499894 0 0 0 0.38491,-1.50062 15.499875,15.499894 0 0 0 0.2292,-1.531 15.499875,15.499894 0 0 0 0.078,-1.54846 15.499875,15.499894 0 0 0 -0.039,-1.09834 15.499875,15.499894 0 0 0 -0.186,-1.53514 15.499875,15.499894 0 0 0 -0.34166,-1.51364 15.499875,15.499894 0 0 0 -0.48869,-1.47065 15.499875,15.499894 0 0 0 -0.63143,-1.41423 15.499875,15.499894 0 0 0 -0.76981,-1.34056 15.499875,15.499894 0 0 0 -0.90385,-1.26274 15.499875,15.499894 0 0 0 -1.02066,-1.16344 15.499875,15.499894 0 0 0 -1.13308,-1.05525 15.499875,15.499894 0 0 0 -1.23255,-0.93828 15.499875,15.499894 0 0 0 -1.32336,-0.8089 15.499875,15.499894 0 0 0 -1.39257,-0.67456 15.499875,15.499894 0 0 0 -1.45743,-0.53207 15.499875,15.499894 0 0 0 -1.5007,-0.38492 15.499875,15.499894 0 0 0 -1.53094,-0.22899 15.499875,15.499894 0 0 0 -1.54828,-0.0775 z"
         id="path4331"
         inkscape:connector-curvature="0" />
      <rect
         style="opacity:1;fill:#000000;fill-opacity:1;fill-rule:nonzero;stroke:none;stroke-width:2;stroke-linecap:round;stroke-linejoin:miter;stroke-miterlimit:4;stroke-dasharray:none;stroke-dashoffset:0;stroke-opacity:1"
         id="rect4335"
         width="16"
         height="2"
         x="259.56519"
         y="950.09302"
         rx="1"
         ry="1" />
      <rect
         ry="1"
         rx="1"
         y="954.09302"
         x="259.56519"
         height="2"
         width="16"
         id="rect4337"
         style="opacity:1;fill:#000000;fill-opacity:1;fill-rule:nonzero;stroke:none;stroke-width:2;stroke-linecap:round;stroke-linejoin:miter;stroke-miterlimit:4;stroke-dasharray:none;stroke-dashoffset:0;stroke-opacity:1" />
      <rect
         style="opacity:1;fill:#000000;fill-opacity:1;fill-rule:nonzero;stroke:none;stroke-width:2;stroke-linecap:round;stroke-linejoin:miter;stroke-miterlimit:4;stroke-dasharray:none;stroke-dashoffset:0;stroke-opacity:1"
         id="rect4339"
         width="16"
         height="2"
         x="259.56519"
         y="958.09302"
         rx="1"
         ry="1" />
      <rect
         ry="1"
         rx="1"
         y="964.09302"
         x="267.56516"
         height="2"
         width="8"
         id="rect4341"
         style="opacity:1;fill:#000000;fill-opacity:1;fill-rule:nonzero;stroke:none;stroke-width:2;stroke-linecap:round;stroke-linejoin:miter;stroke-miterlimit:4;stroke-dasharray:none;stroke-dashoffset:0;stroke-opacity:1" />
      <rect
         ry="1"
         rx="1"
         y="946.09302"
         x="259.56519"
         height="2"
         width="8"
         id="rect4371"
         style="opacity:1;fill:#000000;fill-opacity:1;fill-rule:nonzero;stroke:none;stroke-width:2;stroke-linecap:round;stroke-linejoin:miter;stroke-miterlimit:4;stroke-dasharray:none;stroke-dashoffset:0;stroke-opacity:1" />
    </g>
  </g>
</svg>
