<?xml version="1.0" encoding="UTF-8" standalone="no"?>
<!-- Created with Inkscape (http://www.inkscape.org/) -->

<svg
   xmlns:dc="http://purl.org/dc/elements/1.1/"
   xmlns:cc="http://creativecommons.org/ns#"
   xmlns:rdf="http://www.w3.org/1999/02/22-rdf-syntax-ns#"
   xmlns:svg="http://www.w3.org/2000/svg"
   xmlns="http://www.w3.org/2000/svg"
   xmlns:sodipodi="http://sodipodi.sourceforge.net/DTD/sodipodi-0.dtd"
   xmlns:inkscape="http://www.inkscape.org/namespaces/inkscape"
   width="32"
   height="32"
   viewBox="0 0 31.999999 31.999998"
   id="svg4413"
   version="1.1"
   inkscape:version="0.91 r13725"
   sodipodi:docname="view-icons.svg">
  <defs
     id="defs4415" />
  <sodipodi:namedview
     id="base"
     pagecolor="#e8e8e0"
     bordercolor="#666666"
     borderopacity="1.0"
     inkscape:pageopacity="0"
     inkscape:pageshadow="2"
     inkscape:zoom="8"
     inkscape:cx="-21.446087"
     inkscape:cy="16"
     inkscape:document-units="px"
     inkscape:current-layer="g9715"
     showgrid="true"
     units="px">
    <inkscape:grid
       type="xygrid"
       id="grid4421"
       spacingx="2.0000001"
       spacingy="2.0000001" />
  </sodipodi:namedview>
  <metadata
     id="metadata4418">
    <rdf:RDF>
      <cc:Work
         rdf:about="">
        <dc:format>image/svg+xml</dc:format>
        <dc:type
           rdf:resource="http://purl.org/dc/dcmitype/StillImage" />
        <dc:title />
      </cc:Work>
    </rdf:RDF>
  </metadata>
  <g
     inkscape:label="Layer 1"
     inkscape:groupmode="layer"
     id="layer1"
     transform="translate(0,-1020.3622)">
    <g
       id="g9715"
       style="opacity:0.8">
      <path
         style="opacity:1;fill:#ffffff;fill-opacity:1;fill-rule:nonzero;stroke:#000000;stroke-width:0.99999994;stroke-linecap:round;stroke-linejoin:miter;stroke-miterlimit:4;stroke-dasharray:none;stroke-dashoffset:0;stroke-opacity:0.76862745"
         d="m 8.0000079,1020.8575 a 2.4999786,2.5001799 0 0 0 -0.1771778,0.01 2.4999786,2.5001799 0 0 0 -0.247622,0.03 2.4999786,2.5001799 0 0 0 -0.2441417,0.055 2.4999786,2.5001799 0 0 0 -0.2371648,0.079 2.4999786,2.5001799 0 0 0 -0.2280913,0.1018 2.4999786,2.5001799 0 0 0 -0.2162393,0.1242 2.4999786,2.5001799 0 0 0 -0.2036801,0.1458 2.4999786,2.5001799 0 0 0 -0.1876367,0.1646 2.4999786,2.5001799 0 0 0 -0.170201,0.1828 2.4999786,2.5001799 0 0 0 -0.1513685,0.1988 2.4999786,2.5001799 0 0 0 -0.1304379,0.2135 2.4999786,2.5001799 0 0 0 -0.1088171,0.2246 2.4999786,2.5001799 0 0 0 -0.085795,0.2351 2.4999786,2.5001799 0 0 0 -0.062082,0.2421 2.4999786,2.5001799 0 0 0 -0.036971,0.2469 2.4999786,2.5001799 0 0 0 -0.012582,0.2497 2.4999786,2.5001799 0 0 0 0.00628,0.1772 2.4999786,2.5001799 0 0 0 0.03,0.2477 2.4999786,2.5001799 0 0 0 0.055107,0.2441 2.4999786,2.5001799 0 0 0 0.078821,0.2372 2.4999786,2.5001799 0 0 0 0.1018404,0.2281 2.4999786,2.5001799 0 0 0 0.124161,0.2163 2.4999786,2.5001799 0 0 0 0.1457884,0.2037 2.4999786,2.5001799 0 0 0 0.1646157,0.1875 2.4999786,2.5001799 0 0 0 0.1827563,0.1703 2.4999786,2.5001799 0 0 0 0.1987985,0.1514 2.4999786,2.5001799 0 0 0 0.2134492,0.1304 2.4999786,2.5001799 0 0 0 0.2246077,0.1089 2.4999786,2.5001799 0 0 0 0.2350699,0.086 2.4999786,2.5001799 0 0 0 0.2420417,0.062 2.4999786,2.5001799 0 0 0 0.2469316,0.037 2.4999786,2.5001799 0 0 0 0.2497174,0.013 2.4999786,2.5001799 0 0 0 0.1771746,-0.01 2.4999786,2.5001799 0 0 0 0.2476284,-0.03 2.4999786,2.5001799 0 0 0 0.2441386,-0.055 2.4999786,2.5001799 0 0 0 0.2371631,-0.079 2.4999786,2.5001799 0 0 0 0.228095,-0.1019 2.4999786,2.5001799 0 0 0 0.2162375,-0.1242 2.4999786,2.5001799 0 0 0 0.2036819,-0.1458 2.4999786,2.5001799 0 0 0 0.1876362,-0.1646 2.4999786,2.5001799 0 0 0 0.1701975,-0.1828 2.4999786,2.5001799 0 0 0 0.1513677,-0.1987 2.4999786,2.5001799 0 0 0 0.130444,-0.2136 2.4999786,2.5001799 0 0 0 0.108813,-0.2245 2.4999786,2.5001799 0 0 0 0.0858,-0.2352 2.4999786,2.5001799 0 0 0 0.06208,-0.2421 2.4999786,2.5001799 0 0 0 0.03697,-0.2469 2.4999786,2.5001799 0 0 0 0.01259,-0.2498 2.4999786,2.5001799 0 0 0 -0.0063,-0.1771 2.4999786,2.5001799 0 0 0 -0.03,-0.2477 2.4999786,2.5001799 0 0 0 -0.05511,-0.2441 2.4999786,2.5001799 0 0 0 -0.07882,-0.2372 2.4999786,2.5001799 0 0 0 -0.101844,-0.2282 2.4999786,2.5001799 0 0 0 -0.124165,-0.2162 2.4999786,2.5001799 0 0 0 -0.1457807,-0.2037 2.4999786,2.5001799 0 0 0 -0.1646225,-0.1876 2.4999786,2.5001799 0 0 0 -0.182755,-0.1702 2.4999786,2.5001799 0 0 0 -0.1987982,-0.1514 2.4999786,2.5001799 0 0 0 -0.2134444,-0.1305 2.4999786,2.5001799 0 0 0 -0.2246075,-0.1088 2.4999786,2.5001799 0 0 0 -0.23507,-0.086 2.4999786,2.5001799 0 0 0 -0.2420482,-0.062 2.4999786,2.5001799 0 0 0 -0.2469257,-0.037 2.4999786,2.5001799 0 0 0 -0.2497219,-0.013 z"
         id="path4395"
         inkscape:connector-curvature="0" />
      <rect
         ry="2"
         rx="2"
         y="1027.8622"
         x="3.4999998"
         height="5"
         width="8.999999"
         id="rect9695"
         style="opacity:0.6;fill:#000000;fill-opacity:0.94117647;fill-rule:nonzero;stroke:#ffffff;stroke-width:1;stroke-linecap:round;stroke-linejoin:round;stroke-miterlimit:4;stroke-dasharray:none;stroke-dashoffset:0;stroke-opacity:0.76862745" />
      <rect
         style="opacity:0.6;fill:#000000;fill-opacity:0.94117647;fill-rule:nonzero;stroke:#ffffff;stroke-width:1;stroke-linecap:round;stroke-linejoin:round;stroke-miterlimit:4;stroke-dasharray:none;stroke-dashoffset:0;stroke-opacity:0.76862745"
         id="rect9699"
         width="8.999999"
         height="5"
         x="3.5"
         y="1043.8622"
         rx="2"
         ry="2" />
      <path
         style="opacity:1;fill:#ffffff;fill-opacity:1;fill-rule:nonzero;stroke:#000000;stroke-width:0.99999994;stroke-linecap:round;stroke-linejoin:miter;stroke-miterlimit:4;stroke-dasharray:none;stroke-dashoffset:0;stroke-opacity:0.76862745"
         d="m 7.9999882,1036.8575 a 2.4999786,2.5001799 0 0 1 0.177178,0.01 2.4999786,2.5001799 0 0 1 0.247622,0.03 2.4999786,2.5001799 0 0 1 0.244142,0.055 2.4999786,2.5001799 0 0 1 0.237165,0.079 2.4999786,2.5001799 0 0 1 0.228091,0.1018 2.4999786,2.5001799 0 0 1 0.216239,0.1242 2.4999786,2.5001799 0 0 1 0.20368,0.1458 2.4999786,2.5001799 0 0 1 0.187637,0.1646 2.4999786,2.5001799 0 0 1 0.170201,0.1828 2.4999786,2.5001799 0 0 1 0.1513688,0.1988 2.4999786,2.5001799 0 0 1 0.130438,0.2135 2.4999786,2.5001799 0 0 1 0.108817,0.2246 2.4999786,2.5001799 0 0 1 0.08579,0.2351 2.4999786,2.5001799 0 0 1 0.06208,0.2421 2.4999786,2.5001799 0 0 1 0.03697,0.2469 2.4999786,2.5001799 0 0 1 0.01258,0.2497 2.4999786,2.5001799 0 0 1 -0.0063,0.1772 2.4999786,2.5001799 0 0 1 -0.03,0.2477 2.4999786,2.5001799 0 0 1 -0.05511,0.2441 2.4999786,2.5001799 0 0 1 -0.07882,0.2372 2.4999786,2.5001799 0 0 1 -0.101841,0.2281 2.4999786,2.5001799 0 0 1 -0.124161,0.2163 2.4999786,2.5001799 0 0 1 -0.1457878,0.2037 2.4999786,2.5001799 0 0 1 -0.164616,0.1875 2.4999786,2.5001799 0 0 1 -0.182756,0.1703 2.4999786,2.5001799 0 0 1 -0.198799,0.1514 2.4999786,2.5001799 0 0 1 -0.213449,0.1304 2.4999786,2.5001799 0 0 1 -0.224608,0.1089 2.4999786,2.5001799 0 0 1 -0.23507,0.086 2.4999786,2.5001799 0 0 1 -0.242041,0.062 2.4999786,2.5001799 0 0 1 -0.246932,0.037 2.4999786,2.5001799 0 0 1 -0.249717,0.013 2.4999786,2.5001799 0 0 1 -0.177175,-0.01 2.4999786,2.5001799 0 0 1 -0.247628,-0.03 2.4999786,2.5001799 0 0 1 -0.244139,-0.055 2.4999786,2.5001799 0 0 1 -0.237163,-0.079 2.4999786,2.5001799 0 0 1 -0.228095,-0.1019 2.4999786,2.5001799 0 0 1 -0.216238,-0.1242 2.4999786,2.5001799 0 0 1 -0.203681,-0.1458 2.4999786,2.5001799 0 0 1 -0.187637,-0.1646 2.4999786,2.5001799 0 0 1 -0.170197,-0.1828 2.4999786,2.5001799 0 0 1 -0.151368,-0.1987 2.4999786,2.5001799 0 0 1 -0.130444,-0.2136 2.4999786,2.5001799 0 0 1 -0.108813,-0.2245 2.4999786,2.5001799 0 0 1 -0.0858,-0.2352 2.4999786,2.5001799 0 0 1 -0.06208,-0.2421 2.4999786,2.5001799 0 0 1 -0.03697,-0.2469 2.4999786,2.5001799 0 0 1 -0.01259,-0.2498 2.4999786,2.5001799 0 0 1 0.0063,-0.1771 2.4999786,2.5001799 0 0 1 0.03,-0.2477 2.4999786,2.5001799 0 0 1 0.05511,-0.2441 2.4999786,2.5001799 0 0 1 0.07882,-0.2372 2.4999786,2.5001799 0 0 1 0.101844,-0.2282 2.4999786,2.5001799 0 0 1 0.124165,-0.2162 2.4999786,2.5001799 0 0 1 0.145781,-0.2037 2.4999786,2.5001799 0 0 1 0.164622,-0.1876 2.4999786,2.5001799 0 0 1 0.182755,-0.1702 2.4999786,2.5001799 0 0 1 0.198799,-0.1514 2.4999786,2.5001799 0 0 1 0.213444,-0.1305 2.4999786,2.5001799 0 0 1 0.224607,-0.1088 2.4999786,2.5001799 0 0 1 0.23507,-0.086 2.4999786,2.5001799 0 0 1 0.242049,-0.062 2.4999786,2.5001799 0 0 1 0.246925,-0.037 2.4999786,2.5001799 0 0 1 0.249722,-0.013 z"
         id="path9705"
         inkscape:connector-curvature="0" />
      <path
         inkscape:connector-curvature="0"
         id="path9707"
         d="m 24.000007,1020.8575 a 2.4999786,2.5001799 0 0 0 -0.177178,0.01 2.4999786,2.5001799 0 0 0 -0.247622,0.03 2.4999786,2.5001799 0 0 0 -0.244142,0.055 2.4999786,2.5001799 0 0 0 -0.237165,0.079 2.4999786,2.5001799 0 0 0 -0.228091,0.1018 2.4999786,2.5001799 0 0 0 -0.216239,0.1242 2.4999786,2.5001799 0 0 0 -0.20368,0.1458 2.4999786,2.5001799 0 0 0 -0.187637,0.1646 2.4999786,2.5001799 0 0 0 -0.170201,0.1828 2.4999786,2.5001799 0 0 0 -0.151368,0.1988 2.4999786,2.5001799 0 0 0 -0.130438,0.2135 2.4999786,2.5001799 0 0 0 -0.108817,0.2246 2.4999786,2.5001799 0 0 0 -0.0858,0.2351 2.4999786,2.5001799 0 0 0 -0.06208,0.2421 2.4999786,2.5001799 0 0 0 -0.03697,0.2469 2.4999786,2.5001799 0 0 0 -0.01258,0.2497 2.4999786,2.5001799 0 0 0 0.0063,0.1772 2.4999786,2.5001799 0 0 0 0.03,0.2477 2.4999786,2.5001799 0 0 0 0.05511,0.2441 2.4999786,2.5001799 0 0 0 0.07882,0.2372 2.4999786,2.5001799 0 0 0 0.10184,0.2281 2.4999786,2.5001799 0 0 0 0.124161,0.2163 2.4999786,2.5001799 0 0 0 0.145788,0.2037 2.4999786,2.5001799 0 0 0 0.164616,0.1875 2.4999786,2.5001799 0 0 0 0.182756,0.1703 2.4999786,2.5001799 0 0 0 0.198799,0.1514 2.4999786,2.5001799 0 0 0 0.213449,0.1304 2.4999786,2.5001799 0 0 0 0.224608,0.1089 2.4999786,2.5001799 0 0 0 0.23507,0.086 2.4999786,2.5001799 0 0 0 0.242041,0.062 2.4999786,2.5001799 0 0 0 0.246932,0.037 2.4999786,2.5001799 0 0 0 0.249717,0.013 2.4999786,2.5001799 0 0 0 0.177175,-0.01 2.4999786,2.5001799 0 0 0 0.247628,-0.03 2.4999786,2.5001799 0 0 0 0.244139,-0.055 2.4999786,2.5001799 0 0 0 0.237163,-0.079 2.4999786,2.5001799 0 0 0 0.228095,-0.1019 2.4999786,2.5001799 0 0 0 0.216238,-0.1242 2.4999786,2.5001799 0 0 0 0.203681,-0.1458 2.4999786,2.5001799 0 0 0 0.187637,-0.1646 2.4999786,2.5001799 0 0 0 0.170197,-0.1828 2.4999786,2.5001799 0 0 0 0.151368,-0.1987 2.4999786,2.5001799 0 0 0 0.130444,-0.2136 2.4999786,2.5001799 0 0 0 0.108813,-0.2245 2.4999786,2.5001799 0 0 0 0.0858,-0.2352 2.4999786,2.5001799 0 0 0 0.06208,-0.2421 2.4999786,2.5001799 0 0 0 0.03697,-0.2469 2.4999786,2.5001799 0 0 0 0.01259,-0.2498 2.4999786,2.5001799 0 0 0 -0.0063,-0.1771 2.4999786,2.5001799 0 0 0 -0.03,-0.2477 2.4999786,2.5001799 0 0 0 -0.05511,-0.2441 2.4999786,2.5001799 0 0 0 -0.07882,-0.2372 2.4999786,2.5001799 0 0 0 -0.101844,-0.2282 2.4999786,2.5001799 0 0 0 -0.124165,-0.2162 2.4999786,2.5001799 0 0 0 -0.145781,-0.2037 2.4999786,2.5001799 0 0 0 -0.164622,-0.1876 2.4999786,2.5001799 0 0 0 -0.182755,-0.1702 2.4999786,2.5001799 0 0 0 -0.198799,-0.1514 2.4999786,2.5001799 0 0 0 -0.213444,-0.1305 2.4999786,2.5001799 0 0 0 -0.224607,-0.1088 2.4999786,2.5001799 0 0 0 -0.23507,-0.086 2.4999786,2.5001799 0 0 0 -0.242049,-0.062 2.4999786,2.5001799 0 0 0 -0.246925,-0.037 2.4999786,2.5001799 0 0 0 -0.249722,-0.013 z"
         style="opacity:1;fill:#ffffff;fill-opacity:1;fill-rule:nonzero;stroke:#000000;stroke-width:0.99999994;stroke-linecap:round;stroke-linejoin:miter;stroke-miterlimit:4;stroke-dasharray:none;stroke-dashoffset:0;stroke-opacity:0.76862745" />
      <rect
         style="opacity:0.6;fill:#000000;fill-opacity:0.94117647;fill-rule:nonzero;stroke:#ffffff;stroke-width:1;stroke-linecap:round;stroke-linejoin:round;stroke-miterlimit:4;stroke-dasharray:none;stroke-dashoffset:0;stroke-opacity:0.76862745"
         id="rect9709"
         width="8.999999"
         height="5"
         x="19.499998"
         y="1027.8622"
         rx="2"
         ry="2" />
      <rect
         ry="2"
         rx="2"
         y="1043.8622"
         x="19.499998"
         height="5"
         width="8.999999"
         id="rect9711"
         style="opacity:0.6;fill:#000000;fill-opacity:0.94117647;fill-rule:nonzero;stroke:#ffffff;stroke-width:1;stroke-linecap:round;stroke-linejoin:round;stroke-miterlimit:4;stroke-dasharray:none;stroke-dashoffset:0;stroke-opacity:0.76862745" />
      <path
         inkscape:connector-curvature="0"
         id="path9713"
         d="m 23.999987,1036.8575 a 2.4999786,2.5001799 0 0 1 0.177178,0.01 2.4999786,2.5001799 0 0 1 0.247622,0.03 2.4999786,2.5001799 0 0 1 0.244142,0.055 2.4999786,2.5001799 0 0 1 0.237165,0.079 2.4999786,2.5001799 0 0 1 0.228091,0.1018 2.4999786,2.5001799 0 0 1 0.216239,0.1242 2.4999786,2.5001799 0 0 1 0.20368,0.1458 2.4999786,2.5001799 0 0 1 0.187637,0.1646 2.4999786,2.5001799 0 0 1 0.170201,0.1828 2.4999786,2.5001799 0 0 1 0.151369,0.1988 2.4999786,2.5001799 0 0 1 0.130438,0.2135 2.4999786,2.5001799 0 0 1 0.108817,0.2246 2.4999786,2.5001799 0 0 1 0.08579,0.2351 2.4999786,2.5001799 0 0 1 0.06208,0.2421 2.4999786,2.5001799 0 0 1 0.03697,0.2469 2.4999786,2.5001799 0 0 1 0.01258,0.2497 2.4999786,2.5001799 0 0 1 -0.0063,0.1772 2.4999786,2.5001799 0 0 1 -0.03,0.2477 2.4999786,2.5001799 0 0 1 -0.05511,0.2441 2.4999786,2.5001799 0 0 1 -0.07882,0.2372 2.4999786,2.5001799 0 0 1 -0.101841,0.2281 2.4999786,2.5001799 0 0 1 -0.124161,0.2163 2.4999786,2.5001799 0 0 1 -0.145788,0.2037 2.4999786,2.5001799 0 0 1 -0.164616,0.1875 2.4999786,2.5001799 0 0 1 -0.182756,0.1703 2.4999786,2.5001799 0 0 1 -0.198799,0.1514 2.4999786,2.5001799 0 0 1 -0.213449,0.1304 2.4999786,2.5001799 0 0 1 -0.224608,0.1089 2.4999786,2.5001799 0 0 1 -0.23507,0.086 2.4999786,2.5001799 0 0 1 -0.242041,0.062 2.4999786,2.5001799 0 0 1 -0.246932,0.037 2.4999786,2.5001799 0 0 1 -0.249717,0.013 2.4999786,2.5001799 0 0 1 -0.177175,-0.01 2.4999786,2.5001799 0 0 1 -0.247628,-0.03 2.4999786,2.5001799 0 0 1 -0.244139,-0.055 2.4999786,2.5001799 0 0 1 -0.237163,-0.079 2.4999786,2.5001799 0 0 1 -0.228095,-0.1019 2.4999786,2.5001799 0 0 1 -0.216238,-0.1242 2.4999786,2.5001799 0 0 1 -0.203681,-0.1458 2.4999786,2.5001799 0 0 1 -0.187637,-0.1646 2.4999786,2.5001799 0 0 1 -0.170197,-0.1828 2.4999786,2.5001799 0 0 1 -0.151368,-0.1987 2.4999786,2.5001799 0 0 1 -0.130444,-0.2136 2.4999786,2.5001799 0 0 1 -0.108813,-0.2245 2.4999786,2.5001799 0 0 1 -0.0858,-0.2352 2.4999786,2.5001799 0 0 1 -0.06208,-0.2421 2.4999786,2.5001799 0 0 1 -0.03697,-0.2469 2.4999786,2.5001799 0 0 1 -0.01259,-0.2498 2.4999786,2.5001799 0 0 1 0.0063,-0.1771 2.4999786,2.5001799 0 0 1 0.03,-0.2477 2.4999786,2.5001799 0 0 1 0.05511,-0.2441 2.4999786,2.5001799 0 0 1 0.07882,-0.2372 2.4999786,2.5001799 0 0 1 0.101844,-0.2282 2.4999786,2.5001799 0 0 1 0.124165,-0.2162 2.4999786,2.5001799 0 0 1 0.145781,-0.2037 2.4999786,2.5001799 0 0 1 0.164622,-0.1876 2.4999786,2.5001799 0 0 1 0.182755,-0.1702 2.4999786,2.5001799 0 0 1 0.198799,-0.1514 2.4999786,2.5001799 0 0 1 0.213444,-0.1305 2.4999786,2.5001799 0 0 1 0.224607,-0.1088 2.4999786,2.5001799 0 0 1 0.23507,-0.086 2.4999786,2.5001799 0 0 1 0.242049,-0.062 2.4999786,2.5001799 0 0 1 0.246925,-0.037 2.4999786,2.5001799 0 0 1 0.249722,-0.013 z"
         style="opacity:1;fill:#ffffff;fill-opacity:1;fill-rule:nonzero;stroke:#000000;stroke-width:0.99999994;stroke-linecap:round;stroke-linejoin:miter;stroke-miterlimit:4;stroke-dasharray:none;stroke-dashoffset:0;stroke-opacity:0.76862745" />
    </g>
  </g>
</svg>
