<?xml version="1.0" encoding="UTF-8" standalone="no"?>
<!-- Created with Inkscape (http://www.inkscape.org/) -->

<svg
   xmlns:dc="http://purl.org/dc/elements/1.1/"
   xmlns:cc="http://creativecommons.org/ns#"
   xmlns:rdf="http://www.w3.org/1999/02/22-rdf-syntax-ns#"
   xmlns:svg="http://www.w3.org/2000/svg"
   xmlns="http://www.w3.org/2000/svg"
   xmlns:sodipodi="http://sodipodi.sourceforge.net/DTD/sodipodi-0.dtd"
   xmlns:inkscape="http://www.inkscape.org/namespaces/inkscape"
   width="32"
   height="32"
   viewBox="0 0 31.999999 31.999998"
   id="svg4413"
   version="1.1"
   inkscape:version="0.91 r13725"
   sodipodi:docname="warn.svg">
  <defs
     id="defs4415" />
  <sodipodi:namedview
     id="base"
     pagecolor="#e8e8e0"
     bordercolor="#666666"
     borderopacity="1.0"
     inkscape:pageopacity="0"
     inkscape:pageshadow="2"
     inkscape:zoom="8.4631843"
     inkscape:cx="18.686087"
     inkscape:cy="17.671018"
     inkscape:document-units="px"
     inkscape:current-layer="g4902"
     showgrid="true"
     units="px">
    <inkscape:grid
       type="xygrid"
       id="grid4421"
       spacingx="2.0000001"
       spacingy="2.0000001" />
  </sodipodi:namedview>
  <metadata
     id="metadata4418">
    <rdf:RDF>
      <cc:Work
         rdf:about="">
        <dc:format>image/svg+xml</dc:format>
        <dc:type
           rdf:resource="http://purl.org/dc/dcmitype/StillImage" />
        <dc:title />
      </cc:Work>
    </rdf:RDF>
  </metadata>
  <g
     inkscape:label="Layer 1"
     inkscape:groupmode="layer"
     id="layer1"
     transform="translate(0,-1020.3622)">
    <g
       id="g4902"
       style="opacity:0.8">
      <path
         inkscape:connector-curvature="0"
         id="path4483"
         d="m 1.215708,1047.9848 c 0.4802,0.8373 2.448,1.465 5.16,1.8834 2.7117,0.4194 6.1686,0.6305 9.6241,0.6305 3.4555,0 6.9129,-0.212 9.6245,-0.6305 2.7117,-0.4193 4.6795,-1.0461 5.1599,-1.8834 0.4802,-0.8369 0.037,-2.8655 -0.9595,-5.4379 -0.9958,-2.5718 -2.5441,-5.6852 -4.2716,-8.6963 -1.7278,-3.0106 -3.6368,-5.9165 -5.3531,-8.07 -1.7162,-2.1535 -3.2395,-3.5549 -4.2002,-3.5549 -0.9608,0 -2.4838,1.4014 -4.2003,3.5549 -1.7162,2.1535 -3.6252,5.0594 -5.3526,8.07 -1.7277,3.0111 -3.2763,6.1245 -4.2715,8.6963 -0.9957,2.5724 -1.43999999,4.601 -0.9597,5.4379 z"
         style="opacity:1;fill:#fdbc4b;fill-opacity:1;fill-rule:nonzero;stroke:#000000;stroke-width:1.99999976;stroke-linecap:round;stroke-linejoin:miter;stroke-miterlimit:4;stroke-dasharray:none;stroke-dashoffset:0;stroke-opacity:1" />
      <rect
         ry="2"
         rx="2"
         y="1026.3622"
         x="13.999999"
         height="15.999999"
         width="3.9999998"
         id="rect4898"
         style="opacity:1;fill:#000000;fill-opacity:1;fill-rule:nonzero;stroke:none;stroke-width:2;stroke-linecap:square;stroke-linejoin:round;stroke-miterlimit:4;stroke-dasharray:none;stroke-dashoffset:0;stroke-opacity:1" />
      <circle
         r="1.9999999"
         cy="1046.3622"
         cx="15.999999"
         id="path4900"
         style="opacity:1;fill:#000000;fill-opacity:1;fill-rule:nonzero;stroke:none;stroke-width:2;stroke-linecap:square;stroke-linejoin:round;stroke-miterlimit:4;stroke-dasharray:none;stroke-dashoffset:0;stroke-opacity:1" />
    </g>
  </g>
</svg>
